<svg xmlns="http://www.w3.org/2000/svg" xmlns:xlink="http://www.w3.org/1999/xlink" width="500" zoomAndPan="magnify" viewBox="0 0 375 374.999991" height="500" preserveAspectRatio="xMidYMid meet" version="1.0"><defs><g/><clipPath id="043cc60596"><path d="M 127.003906 92.632812 L 247.996094 92.632812 L 247.996094 213.621094 L 127.003906 213.621094 Z M 127.003906 92.632812 " clip-rule="nonzero"/></clipPath><clipPath id="9f7591ee88"><path d="M 187.5 92.632812 C 154.089844 92.632812 127.003906 119.714844 127.003906 153.128906 C 127.003906 186.539062 154.089844 213.621094 187.5 213.621094 C 220.910156 213.621094 247.996094 186.539062 247.996094 153.128906 C 247.996094 119.714844 220.910156 92.632812 187.5 92.632812 Z M 187.5 92.632812 " clip-rule="nonzero"/></clipPath><clipPath id="56d934e91e"><path d="M 145 123 L 230 123 L 230 194.316406 L 145 194.316406 Z M 145 123 " clip-rule="nonzero"/></clipPath><clipPath id="b2d2c74c31"><path d="M 180 111.816406 L 195 111.816406 L 195 126 L 180 126 Z M 180 111.816406 " clip-rule="nonzero"/></clipPath><clipPath id="1fb342cecd"><path d="M 138.828125 125 L 151 125 L 151 138 L 138.828125 138 Z M 138.828125 125 " clip-rule="nonzero"/></clipPath><clipPath id="1b9f5ad6b9"><path d="M 224 125 L 236.328125 125 L 236.328125 138 L 224 138 Z M 224 125 " clip-rule="nonzero"/></clipPath></defs><g clip-path="url(#043cc60596)"><g clip-path="url(#9f7591ee88)"><path fill="#b0882e" d="M 127.003906 92.632812 L 247.996094 92.632812 L 247.996094 213.621094 L 127.003906 213.621094 Z M 127.003906 92.632812 " fill-opacity="1" fill-rule="nonzero"/></g></g><path fill="#fefefd" d="M 219.703125 183.847656 C 211.480469 180.644531 199.738281 178.8125 187.496094 178.8125 C 175.253906 178.8125 163.511719 180.644531 155.285156 183.847656 L 154.316406 181.351562 C 162.839844 178.039062 174.933594 176.136719 187.496094 176.136719 C 200.058594 176.136719 212.152344 178.039062 220.675781 181.351562 L 219.703125 183.847656 " fill-opacity="1" fill-rule="nonzero"/><g clip-path="url(#56d934e91e)"><path fill="#fefefd" d="M 186.742188 186.65625 C 198.914062 186.65625 210.324219 188.371094 218.875 191.488281 L 218.851562 182.492188 L 225.402344 141.859375 L 202.824219 161.613281 L 187.496094 129.425781 L 172.167969 161.613281 L 149.589844 141.859375 L 156.136719 182.597656 L 156.136719 190.964844 C 164.511719 188.179688 175.375 186.65625 186.742188 186.65625 Z M 218.863281 194.160156 C 218.554688 194.160156 218.253906 194.109375 217.960938 194 C 209.691406 190.984375 198.609375 189.332031 186.742188 189.332031 C 175.652344 189.332031 165.085938 190.808594 157 193.492188 C 156.175781 193.765625 155.265625 193.628906 154.566406 193.121094 C 153.867188 192.617188 153.464844 191.828125 153.464844 190.964844 L 153.464844 182.703125 L 145.769531 134.960938 L 171.269531 157.277344 L 187.496094 123.210938 L 203.132812 156.046875 L 203.722656 157.277344 L 229.222656 134.960938 L 221.527344 182.703125 L 221.527344 191.488281 C 221.527344 192.359375 221.097656 193.179688 220.382812 193.679688 C 219.933594 194 219.398438 194.160156 218.863281 194.160156 " fill-opacity="1" fill-rule="nonzero"/></g><g clip-path="url(#b2d2c74c31)"><path fill="#fefefd" d="M 187.496094 114.628906 C 185.105469 114.628906 183.15625 116.578125 183.15625 118.96875 C 183.15625 121.367188 185.105469 123.316406 187.496094 123.316406 C 189.886719 123.316406 191.835938 121.367188 191.835938 118.96875 C 191.835938 116.578125 189.886719 114.628906 187.496094 114.628906 Z M 187.496094 125.988281 C 183.625 125.988281 180.480469 122.839844 180.480469 118.96875 C 180.480469 115.097656 183.625 111.957031 187.496094 111.957031 C 191.367188 111.957031 194.511719 115.097656 194.511719 118.96875 C 194.511719 122.839844 191.367188 125.988281 187.496094 125.988281 " fill-opacity="1" fill-rule="nonzero"/></g><g clip-path="url(#1fb342cecd)"><path fill="#fefefd" d="M 144.792969 128.175781 C 142.996094 128.175781 141.53125 129.640625 141.53125 131.441406 C 141.53125 133.238281 142.996094 134.707031 144.792969 134.707031 C 146.589844 134.707031 148.058594 133.238281 148.058594 131.441406 C 148.058594 129.640625 146.589844 128.175781 144.792969 128.175781 Z M 144.792969 137.378906 C 141.519531 137.378906 138.855469 134.714844 138.855469 131.441406 C 138.855469 128.167969 141.519531 125.503906 144.792969 125.503906 C 148.070312 125.503906 150.734375 128.167969 150.734375 131.441406 C 150.734375 134.714844 148.070312 137.378906 144.792969 137.378906 " fill-opacity="1" fill-rule="nonzero"/></g><g clip-path="url(#1b9f5ad6b9)"><path fill="#fefefd" d="M 230.199219 128.175781 C 228.402344 128.175781 226.933594 129.640625 226.933594 131.441406 C 226.933594 133.238281 228.402344 134.707031 230.199219 134.707031 C 231.992188 134.707031 233.460938 133.238281 233.460938 131.441406 C 233.460938 129.640625 231.992188 128.175781 230.199219 128.175781 Z M 230.199219 137.378906 C 226.921875 137.378906 224.257812 134.714844 224.257812 131.441406 C 224.257812 128.167969 226.921875 125.503906 230.199219 125.503906 C 233.472656 125.503906 236.136719 128.167969 236.136719 131.441406 C 236.136719 134.714844 233.472656 137.378906 230.199219 137.378906 " fill-opacity="1" fill-rule="nonzero"/></g><g fill="#000000" fill-opacity="1"><g transform="translate(11.759948, 251.272133)"><g><path d="M 3.5625 0 L 3.5625 -24.5 L 6.65625 -24.5 L 6.65625 -2.9375 L 18.546875 -2.9375 L 18.546875 0 Z M 3.5625 0 "/></g></g></g><g fill="#000000" fill-opacity="1"><g transform="translate(39.160401, 251.272133)"><g><path d="M 3.5625 0 L 3.5625 -24.5 L 18.4375 -24.5 L 18.4375 -21.625 L 6.65625 -21.625 L 6.65625 -13.890625 L 17.5625 -13.890625 L 17.5625 -11.0625 L 6.65625 -11.0625 L 6.65625 -2.875 L 18.828125 -2.875 L 18.828125 0 Z M 3.5625 0 "/></g></g></g><g fill="#000000" fill-opacity="1"><g transform="translate(68.030527, 251.272133)"><g><path d="M 0.59375 0 L 10.671875 -24.5 L 13.546875 -24.5 L 23.625 0 L 20.375 0 L 18.0625 -5.5625 L 6.125 -5.5625 L 3.890625 0 Z M 7.3125 -8.4375 L 16.90625 -8.4375 L 12.109375 -20.1875 Z M 7.3125 -8.4375 "/></g></g></g><g fill="#000000" fill-opacity="1"><g transform="translate(100.014948, 251.272133)"><g><path d="M 3.5625 0 L 3.5625 -24.5 L 12.046875 -24.5 C 14.554688 -24.5 16.75 -23.976562 18.625 -22.9375 C 20.507812 -21.90625 21.976562 -20.472656 23.03125 -18.640625 C 24.082031 -16.804688 24.609375 -14.675781 24.609375 -12.25 C 24.609375 -9.84375 24.082031 -7.71875 23.03125 -5.875 C 21.976562 -4.03125 20.507812 -2.585938 18.625 -1.546875 C 16.75 -0.515625 14.554688 0 12.046875 0 Z M 6.65625 -2.9375 L 12.046875 -2.9375 C 13.910156 -2.9375 15.546875 -3.328125 16.953125 -4.109375 C 18.367188 -4.890625 19.472656 -5.976562 20.265625 -7.375 C 21.054688 -8.78125 21.453125 -10.40625 21.453125 -12.25 C 21.453125 -14.113281 21.050781 -15.738281 20.25 -17.125 C 19.445312 -18.519531 18.332031 -19.609375 16.90625 -20.390625 C 15.476562 -21.171875 13.8125 -21.5625 11.90625 -21.5625 L 6.65625 -21.5625 Z M 6.65625 -2.9375 "/></g></g></g><g fill="#000000" fill-opacity="1"><g transform="translate(134.413814, 251.272133)"><g><path d="M 3.5625 0 L 3.5625 -24.5 L 18.4375 -24.5 L 18.4375 -21.625 L 6.65625 -21.625 L 6.65625 -13.890625 L 17.5625 -13.890625 L 17.5625 -11.0625 L 6.65625 -11.0625 L 6.65625 -2.875 L 18.828125 -2.875 L 18.828125 0 Z M 3.5625 0 "/></g></g></g><g fill="#000000" fill-opacity="1"><g transform="translate(163.283937, 251.272133)"><g><path d="M 3.5625 0 L 3.5625 -24.5 L 12.921875 -24.5 C 14.617188 -24.5 16.097656 -24.175781 17.359375 -23.53125 C 18.617188 -22.894531 19.597656 -21.992188 20.296875 -20.828125 C 20.992188 -19.660156 21.34375 -18.257812 21.34375 -16.625 C 21.34375 -14.644531 20.828125 -13.003906 19.796875 -11.703125 C 18.773438 -10.410156 17.367188 -9.539062 15.578125 -9.09375 L 21.734375 0 L 18.03125 0 L 12.046875 -8.78125 L 6.65625 -8.78125 L 6.65625 0 Z M 6.65625 -11.71875 L 12.5625 -11.71875 C 14.363281 -11.71875 15.753906 -12.144531 16.734375 -13 C 17.710938 -13.851562 18.203125 -15.0625 18.203125 -16.625 C 18.203125 -18.1875 17.710938 -19.398438 16.734375 -20.265625 C 15.753906 -21.128906 14.363281 -21.5625 12.5625 -21.5625 L 6.65625 -21.5625 Z M 6.65625 -11.71875 "/></g></g></g><g fill="#000000" fill-opacity="1"><g transform="translate(194.883441, 251.272133)"><g><path d="M 3.5625 0 L 3.5625 -24.5 L 13.0625 -24.5 C 15.414062 -24.5 17.296875 -23.910156 18.703125 -22.734375 C 20.117188 -21.554688 20.828125 -19.972656 20.828125 -17.984375 C 20.828125 -16.796875 20.546875 -15.742188 19.984375 -14.828125 C 19.421875 -13.921875 18.640625 -13.210938 17.640625 -12.703125 C 18.898438 -12.191406 19.863281 -11.429688 20.53125 -10.421875 C 21.195312 -9.421875 21.53125 -8.234375 21.53125 -6.859375 C 21.53125 -4.734375 20.8125 -3.054688 19.375 -1.828125 C 17.9375 -0.609375 15.984375 0 13.515625 0 Z M 6.65625 -2.875 L 13.4375 -2.875 C 15.019531 -2.875 16.238281 -3.234375 17.09375 -3.953125 C 17.945312 -4.679688 18.375 -5.695312 18.375 -7 C 18.375 -8.300781 17.941406 -9.304688 17.078125 -10.015625 C 16.210938 -10.734375 14.988281 -11.09375 13.40625 -11.09375 L 6.65625 -11.09375 Z M 6.65625 -13.890625 L 12.984375 -13.890625 C 14.503906 -13.890625 15.664062 -14.226562 16.46875 -14.90625 C 17.269531 -15.582031 17.671875 -16.53125 17.671875 -17.75 C 17.671875 -18.976562 17.257812 -19.929688 16.4375 -20.609375 C 15.625 -21.285156 14.472656 -21.625 12.984375 -21.625 L 6.65625 -21.625 Z M 6.65625 -13.890625 "/></g></g></g><g fill="#000000" fill-opacity="1"><g transform="translate(226.133019, 251.272133)"><g><path d="M 14.703125 0.453125 C 12.222656 0.453125 10.023438 -0.0859375 8.109375 -1.171875 C 6.203125 -2.253906 4.710938 -3.753906 3.640625 -5.671875 C 2.566406 -7.585938 2.03125 -9.78125 2.03125 -12.25 C 2.03125 -14.75 2.566406 -16.945312 3.640625 -18.84375 C 4.710938 -20.75 6.203125 -22.242188 8.109375 -23.328125 C 10.023438 -24.410156 12.222656 -24.953125 14.703125 -24.953125 C 17.191406 -24.953125 19.390625 -24.410156 21.296875 -23.328125 C 23.203125 -22.242188 24.695312 -20.75 25.78125 -18.84375 C 26.863281 -16.945312 27.40625 -14.75 27.40625 -12.25 C 27.40625 -9.78125 26.863281 -7.585938 25.78125 -5.671875 C 24.695312 -3.753906 23.203125 -2.253906 21.296875 -1.171875 C 19.390625 -0.0859375 17.191406 0.453125 14.703125 0.453125 Z M 5.1875 -12.25 C 5.1875 -10.363281 5.585938 -8.695312 6.390625 -7.25 C 7.191406 -5.800781 8.3125 -4.664062 9.75 -3.84375 C 11.1875 -3.03125 12.835938 -2.625 14.703125 -2.625 C 16.585938 -2.625 18.242188 -3.03125 19.671875 -3.84375 C 21.097656 -4.664062 22.210938 -5.800781 23.015625 -7.25 C 23.816406 -8.695312 24.21875 -10.363281 24.21875 -12.25 C 24.21875 -14.164062 23.816406 -15.835938 23.015625 -17.265625 C 22.210938 -18.703125 21.097656 -19.828125 19.671875 -20.640625 C 18.242188 -21.460938 16.585938 -21.875 14.703125 -21.875 C 12.835938 -21.875 11.1875 -21.460938 9.75 -20.640625 C 8.3125 -19.828125 7.191406 -18.703125 6.390625 -17.265625 C 5.585938 -15.835938 5.1875 -14.164062 5.1875 -12.25 Z M 5.1875 -12.25 "/></g></g></g><g fill="#000000" fill-opacity="1"><g transform="translate(263.296263, 251.272133)"><g><path d="M 0.59375 0 L 10.671875 -24.5 L 13.546875 -24.5 L 23.625 0 L 20.375 0 L 18.0625 -5.5625 L 6.125 -5.5625 L 3.890625 0 Z M 7.3125 -8.4375 L 16.90625 -8.4375 L 12.109375 -20.1875 Z M 7.3125 -8.4375 "/></g></g></g><g fill="#000000" fill-opacity="1"><g transform="translate(295.28069, 251.272133)"><g><path d="M 3.5625 0 L 3.5625 -24.5 L 12.921875 -24.5 C 14.617188 -24.5 16.097656 -24.175781 17.359375 -23.53125 C 18.617188 -22.894531 19.597656 -21.992188 20.296875 -20.828125 C 20.992188 -19.660156 21.34375 -18.257812 21.34375 -16.625 C 21.34375 -14.644531 20.828125 -13.003906 19.796875 -11.703125 C 18.773438 -10.410156 17.367188 -9.539062 15.578125 -9.09375 L 21.734375 0 L 18.03125 0 L 12.046875 -8.78125 L 6.65625 -8.78125 L 6.65625 0 Z M 6.65625 -11.71875 L 12.5625 -11.71875 C 14.363281 -11.71875 15.753906 -12.144531 16.734375 -13 C 17.710938 -13.851562 18.203125 -15.0625 18.203125 -16.625 C 18.203125 -18.1875 17.710938 -19.398438 16.734375 -20.265625 C 15.753906 -21.128906 14.363281 -21.5625 12.5625 -21.5625 L 6.65625 -21.5625 Z M 6.65625 -11.71875 "/></g></g></g><g fill="#000000" fill-opacity="1"><g transform="translate(326.880205, 251.272133)"><g><path d="M 3.5625 0 L 3.5625 -24.5 L 12.046875 -24.5 C 14.554688 -24.5 16.75 -23.976562 18.625 -22.9375 C 20.507812 -21.90625 21.976562 -20.472656 23.03125 -18.640625 C 24.082031 -16.804688 24.609375 -14.675781 24.609375 -12.25 C 24.609375 -9.84375 24.082031 -7.71875 23.03125 -5.875 C 21.976562 -4.03125 20.507812 -2.585938 18.625 -1.546875 C 16.75 -0.515625 14.554688 0 12.046875 0 Z M 6.65625 -2.9375 L 12.046875 -2.9375 C 13.910156 -2.9375 15.546875 -3.328125 16.953125 -4.109375 C 18.367188 -4.890625 19.472656 -5.976562 20.265625 -7.375 C 21.054688 -8.78125 21.453125 -10.40625 21.453125 -12.25 C 21.453125 -14.113281 21.050781 -15.738281 20.25 -17.125 C 19.445312 -18.519531 18.332031 -19.609375 16.90625 -20.390625 C 15.476562 -21.171875 13.8125 -21.5625 11.90625 -21.5625 L 6.65625 -21.5625 Z M 6.65625 -2.9375 "/></g></g></g><g fill="#000000" fill-opacity="1"><g transform="translate(159.336714, 277.77177)"><g><path d="M 3.53125 0 L 3.53125 -7.71875 L 0.421875 -7.71875 L 0.421875 -9.796875 L 8.859375 -9.796875 L 8.859375 -7.71875 L 5.75 -7.71875 L 5.75 0 Z M 3.53125 0 "/></g></g></g><g fill="#000000" fill-opacity="1"><g transform="translate(170.013537, 277.77177)"><g><path d="M 5.828125 0.203125 C 4.804688 0.203125 3.898438 -0.015625 3.109375 -0.453125 C 2.328125 -0.890625 1.710938 -1.488281 1.265625 -2.25 C 0.828125 -3.019531 0.609375 -3.90625 0.609375 -4.90625 C 0.609375 -5.894531 0.828125 -6.769531 1.265625 -7.53125 C 1.710938 -8.300781 2.328125 -8.90625 3.109375 -9.34375 C 3.898438 -9.78125 4.804688 -10 5.828125 -10 C 6.847656 -10 7.75 -9.78125 8.53125 -9.34375 C 9.320312 -8.90625 9.941406 -8.300781 10.390625 -7.53125 C 10.835938 -6.769531 11.0625 -5.894531 11.0625 -4.90625 C 11.0625 -3.90625 10.835938 -3.019531 10.390625 -2.25 C 9.941406 -1.488281 9.320312 -0.890625 8.53125 -0.453125 C 7.75 -0.015625 6.847656 0.203125 5.828125 0.203125 Z M 2.875 -4.90625 C 2.875 -4.3125 3 -3.789062 3.25 -3.34375 C 3.5 -2.894531 3.84375 -2.546875 4.28125 -2.296875 C 4.726562 -2.046875 5.242188 -1.921875 5.828125 -1.921875 C 6.410156 -1.921875 6.921875 -2.046875 7.359375 -2.296875 C 7.804688 -2.546875 8.15625 -2.894531 8.40625 -3.34375 C 8.65625 -3.789062 8.78125 -4.3125 8.78125 -4.90625 C 8.78125 -5.488281 8.65625 -6.003906 8.40625 -6.453125 C 8.15625 -6.898438 7.804688 -7.25 7.359375 -7.5 C 6.921875 -7.75 6.410156 -7.875 5.828125 -7.875 C 5.242188 -7.875 4.726562 -7.75 4.28125 -7.5 C 3.84375 -7.25 3.5 -6.898438 3.25 -6.453125 C 3 -6.003906 2.875 -5.488281 2.875 -4.90625 Z M 2.875 -4.90625 "/></g></g></g><g fill="#000000" fill-opacity="1"><g transform="translate(183.069039, 277.77177)"><g><path d="M 1.171875 0 L 1.171875 -9.796875 L 5.015625 -9.796875 C 5.804688 -9.796875 6.488281 -9.648438 7.0625 -9.359375 C 7.644531 -9.078125 8.097656 -8.671875 8.421875 -8.140625 C 8.742188 -7.609375 8.90625 -6.984375 8.90625 -6.265625 C 8.90625 -5.546875 8.742188 -4.921875 8.421875 -4.390625 C 8.097656 -3.859375 7.644531 -3.445312 7.0625 -3.15625 C 6.488281 -2.875 5.804688 -2.734375 5.015625 -2.734375 L 3.40625 -2.734375 L 3.40625 0 Z M 3.390625 -4.640625 L 4.828125 -4.640625 C 5.410156 -4.640625 5.859375 -4.773438 6.171875 -5.046875 C 6.484375 -5.328125 6.640625 -5.726562 6.640625 -6.25 C 6.640625 -6.757812 6.484375 -7.15625 6.171875 -7.4375 C 5.859375 -7.71875 5.410156 -7.859375 4.828125 -7.859375 L 3.390625 -7.859375 Z M 3.390625 -4.640625 "/></g></g></g><g fill="#000000" fill-opacity="1"><g transform="translate(193.773841, 277.77177)"><g/></g></g><g fill="#000000" fill-opacity="1"><g transform="translate(198.462005, 277.77177)"><g><path d="M 2.625 0 L 2.625 -6.3125 L 0.40625 -6.3125 L 0.40625 -8.265625 L 1.40625 -8.265625 C 1.863281 -8.265625 2.207031 -8.335938 2.4375 -8.484375 C 2.675781 -8.628906 2.851562 -8.882812 2.96875 -9.25 L 3.140625 -9.796875 L 4.796875 -9.796875 L 4.796875 0 Z M 2.625 0 "/></g></g></g><g fill="#000000" fill-opacity="1"><g transform="translate(205.836669, 277.77177)"><g><path d="M 4.90625 0.203125 C 4.03125 0.203125 3.273438 0 2.640625 -0.40625 C 2.015625 -0.8125 1.535156 -1.394531 1.203125 -2.15625 C 0.867188 -2.914062 0.703125 -3.832031 0.703125 -4.90625 C 0.703125 -5.96875 0.867188 -6.878906 1.203125 -7.640625 C 1.535156 -8.398438 2.015625 -8.984375 2.640625 -9.390625 C 3.273438 -9.796875 4.03125 -10 4.90625 -10 C 5.789062 -10 6.546875 -9.796875 7.171875 -9.390625 C 7.804688 -8.984375 8.289062 -8.398438 8.625 -7.640625 C 8.957031 -6.878906 9.125 -5.96875 9.125 -4.90625 C 9.125 -3.832031 8.957031 -2.914062 8.625 -2.15625 C 8.289062 -1.394531 7.804688 -0.8125 7.171875 -0.40625 C 6.546875 0 5.789062 0.203125 4.90625 0.203125 Z M 2.859375 -4.90625 C 2.859375 -3.925781 3.035156 -3.160156 3.390625 -2.609375 C 3.753906 -2.066406 4.257812 -1.796875 4.90625 -1.796875 C 5.5625 -1.796875 6.066406 -2.066406 6.421875 -2.609375 C 6.773438 -3.160156 6.953125 -3.925781 6.953125 -4.90625 C 6.953125 -5.875 6.773438 -6.632812 6.421875 -7.1875 C 6.066406 -7.738281 5.5625 -8.015625 4.90625 -8.015625 C 4.257812 -8.015625 3.753906 -7.738281 3.390625 -7.1875 C 3.035156 -6.632812 2.859375 -5.875 2.859375 -4.90625 Z M 2.859375 -4.90625 "/></g></g></g></svg>