<svg xmlns="http://www.w3.org/2000/svg" xmlns:xlink="http://www.w3.org/1999/xlink" width="500" zoomAndPan="magnify" viewBox="0 0 375 374.999991" height="500" preserveAspectRatio="xMidYMid meet" version="1.0"><defs><g/><clipPath id="3ef5736173"><path d="M 52.402344 60 L 310 60 L 310 307 L 52.402344 307 Z M 52.402344 60 " clip-rule="nonzero"/></clipPath><clipPath id="aa799dc112"><path d="M 156 172 L 206 172 L 206 322.589844 L 156 322.589844 Z M 156 172 " clip-rule="nonzero"/></clipPath></defs><g clip-path="url(#3ef5736173)"><path fill="#df2e2e" d="M 52.589844 189.101562 C 52.589844 192.203125 52.703125 195.304688 52.929688 198.398438 C 53.152344 201.496094 53.492188 204.578125 53.9375 207.648438 C 54.386719 210.71875 54.949219 213.769531 55.617188 216.800781 C 56.289062 219.832031 57.066406 222.835938 57.953125 225.808594 C 58.839844 228.78125 59.835938 231.722656 60.9375 234.621094 C 62.035156 237.523438 63.242188 240.382812 64.546875 243.199219 C 65.855469 246.011719 67.265625 248.777344 68.773438 251.488281 C 70.28125 254.203125 71.882812 256.855469 73.585938 259.453125 C 75.285156 262.050781 77.078125 264.582031 78.960938 267.046875 C 80.84375 269.515625 82.816406 271.910156 84.871094 274.234375 C 86.929688 276.558594 89.066406 278.804688 91.289062 280.972656 C 93.507812 283.140625 95.804688 285.226562 98.175781 287.230469 C 100.546875 289.234375 102.988281 291.148438 105.496094 292.972656 C 108.007812 294.796875 110.582031 296.53125 113.214844 298.167969 C 115.851562 299.808594 118.542969 301.351562 121.289062 302.792969 C 124.039062 304.238281 126.832031 305.582031 129.679688 306.824219 L 136.101562 292.046875 C 134.148438 291.195312 132.21875 290.285156 130.316406 289.324219 C 128.414062 288.363281 126.542969 287.347656 124.695312 286.277344 C 122.851562 285.207031 121.039062 284.085938 119.257812 282.914062 C 117.476562 281.742188 115.730469 280.519531 114.019531 279.25 C 112.308594 277.976562 110.636719 276.660156 109 275.292969 C 107.363281 273.925781 105.765625 272.511719 104.210938 271.054688 C 102.65625 269.597656 101.140625 268.097656 99.671875 266.554688 C 98.203125 265.011719 96.777344 263.425781 95.394531 261.800781 C 94.015625 260.175781 92.683594 258.511719 91.394531 256.8125 C 90.109375 255.113281 88.875 253.375 87.6875 251.605469 C 86.5 249.835938 85.363281 248.03125 84.28125 246.195312 C 83.195312 244.359375 82.164062 242.496094 81.183594 240.601562 C 80.207031 238.707031 79.285156 236.785156 78.414062 234.839844 C 77.546875 232.894531 76.730469 230.921875 75.976562 228.929688 C 75.21875 226.9375 74.519531 224.925781 73.875 222.890625 C 73.234375 220.859375 72.648438 218.808594 72.121094 216.742188 C 71.597656 214.675781 71.128906 212.597656 70.722656 210.503906 C 70.316406 208.414062 69.96875 206.308594 69.679688 204.199219 C 69.390625 202.085938 69.164062 199.964844 68.996094 197.839844 C 68.828125 195.714844 68.722656 193.585938 68.675781 191.457031 C 68.628906 189.324219 68.644531 187.191406 68.71875 185.0625 C 68.792969 182.933594 68.929688 180.804688 69.125 178.683594 C 69.320312 176.558594 69.574219 174.441406 69.890625 172.335938 C 70.207031 170.226562 70.585938 168.128906 71.019531 166.042969 C 71.457031 163.953125 71.949219 161.882812 72.503906 159.824219 C 73.058594 157.765625 73.667969 155.722656 74.339844 153.699219 C 75.007812 151.675781 75.734375 149.671875 76.519531 147.6875 C 77.300781 145.707031 78.140625 143.746094 79.035156 141.8125 C 79.929688 139.878906 80.882812 137.96875 81.882812 136.089844 C 82.886719 134.207031 83.945312 132.355469 85.054688 130.535156 C 86.164062 128.714844 87.320312 126.925781 88.53125 125.171875 C 89.742188 123.417969 91.003906 121.699219 92.3125 120.015625 C 93.621094 118.332031 94.976562 116.6875 96.378906 115.082031 C 97.777344 113.472656 99.226562 111.910156 100.714844 110.386719 C 102.207031 108.863281 103.742188 107.382812 105.316406 105.945312 C 106.890625 104.507812 108.507812 103.117188 110.160156 101.773438 C 111.816406 100.429688 113.507812 99.132812 115.234375 97.882812 C 116.960938 96.632812 118.726562 95.4375 120.519531 94.289062 C 122.316406 93.140625 124.144531 92.042969 126.003906 91 C 127.863281 89.953125 129.75 88.964844 131.664062 88.027344 C 133.578125 87.089844 135.519531 86.207031 137.484375 85.382812 C 139.449219 84.554688 141.4375 83.785156 143.445312 83.070312 C 145.453125 82.359375 147.484375 81.703125 149.527344 81.105469 C 151.574219 80.507812 153.636719 79.964844 155.714844 79.484375 C 157.792969 79.003906 159.878906 78.582031 161.980469 78.222656 C 164.082031 77.859375 166.191406 77.558594 168.308594 77.316406 C 170.429688 77.074219 172.550781 76.890625 174.679688 76.769531 C 176.808594 76.648438 178.9375 76.589844 181.070312 76.589844 C 183.203125 76.589844 185.332031 76.648438 187.460938 76.769531 C 189.589844 76.890625 191.714844 77.074219 193.832031 77.316406 C 195.949219 77.558594 198.058594 77.859375 200.160156 78.222656 C 202.261719 78.582031 204.351562 79.003906 206.425781 79.484375 C 208.503906 79.964844 210.566406 80.507812 212.613281 81.105469 C 214.660156 81.703125 216.6875 82.359375 218.695312 83.070312 C 220.703125 83.785156 222.691406 84.554688 224.65625 85.382812 C 226.621094 86.207031 228.5625 87.089844 230.476562 88.027344 C 232.390625 88.964844 234.277344 89.953125 236.136719 91 C 237.996094 92.042969 239.824219 93.140625 241.621094 94.289062 C 243.417969 95.4375 245.179688 96.632812 246.90625 97.882812 C 248.636719 99.132812 250.328125 100.429688 251.980469 101.773438 C 253.636719 103.117188 255.25 104.507812 256.824219 105.945312 C 258.402344 107.382812 259.933594 108.863281 261.425781 110.386719 C 262.914062 111.910156 264.363281 113.472656 265.765625 115.082031 C 267.167969 116.6875 268.519531 118.332031 269.828125 120.015625 C 271.136719 121.699219 272.398438 123.417969 273.609375 125.171875 C 274.820312 126.925781 275.980469 128.714844 277.085938 130.535156 C 278.195312 132.355469 279.253906 134.207031 280.257812 136.089844 C 281.261719 137.96875 282.210938 139.878906 283.105469 141.8125 C 284 143.746094 284.839844 145.707031 285.621094 147.6875 C 286.40625 149.671875 287.132812 151.675781 287.800781 153.699219 C 288.472656 155.722656 289.082031 157.765625 289.636719 159.824219 C 290.191406 161.882812 290.683594 163.953125 291.121094 166.042969 C 291.558594 168.128906 291.933594 170.226562 292.25 172.335938 C 292.566406 174.441406 292.820312 176.558594 293.015625 178.683594 C 293.210938 180.804688 293.347656 182.933594 293.421875 185.0625 C 293.496094 187.191406 293.511719 189.324219 293.464844 191.457031 C 293.417969 193.585938 293.3125 195.714844 293.144531 197.839844 C 292.976562 199.964844 292.75 202.085938 292.460938 204.199219 C 292.175781 206.308594 291.828125 208.414062 291.417969 210.503906 C 291.011719 212.597656 290.542969 214.675781 290.019531 216.742188 C 289.492188 218.808594 288.90625 220.859375 288.265625 222.890625 C 287.625 224.925781 286.921875 226.9375 286.167969 228.929688 C 285.410156 230.921875 284.597656 232.894531 283.726562 234.839844 C 282.859375 236.785156 281.933594 238.707031 280.957031 240.601562 C 279.976562 242.496094 278.945312 244.359375 277.863281 246.195312 C 276.777344 248.03125 275.640625 249.835938 274.453125 251.605469 C 273.265625 253.375 272.03125 255.113281 270.746094 256.8125 C 269.460938 258.515625 268.125 260.175781 266.746094 261.800781 C 265.367188 263.425781 263.941406 265.011719 262.46875 266.554688 C 261 268.097656 259.484375 269.597656 257.929688 271.054688 C 256.375 272.511719 254.777344 273.925781 253.140625 275.292969 C 251.503906 276.660156 249.832031 277.976562 248.121094 279.25 C 246.410156 280.519531 244.664062 281.742188 242.882812 282.914062 C 241.101562 284.085938 239.289062 285.207031 237.445312 286.277344 C 235.601562 287.347656 233.726562 288.363281 231.824219 289.324219 C 229.921875 290.285156 227.992188 291.195312 226.039062 292.046875 L 232.464844 306.824219 C 234.222656 306.054688 235.964844 305.25 237.6875 304.402344 C 239.410156 303.558594 241.113281 302.671875 242.792969 301.75 C 244.476562 300.828125 246.140625 299.871094 247.78125 298.875 C 249.421875 297.878906 251.039062 296.84375 252.632812 295.777344 C 254.226562 294.707031 255.792969 293.601562 257.339844 292.464844 C 258.882812 291.324219 260.402344 290.152344 261.894531 288.945312 C 263.386719 287.738281 264.847656 286.496094 266.285156 285.222656 C 267.722656 283.949219 269.128906 282.644531 270.507812 281.308594 C 271.882812 279.972656 273.230469 278.609375 274.546875 277.210938 C 275.863281 275.816406 277.148438 274.390625 278.402344 272.9375 C 279.65625 271.484375 280.875 270 282.0625 268.492188 C 283.246094 266.984375 284.398438 265.449219 285.515625 263.890625 C 286.632812 262.332031 287.71875 260.746094 288.761719 259.136719 C 289.808594 257.527344 290.820312 255.898438 291.792969 254.242188 C 292.765625 252.589844 293.703125 250.914062 294.601562 249.21875 C 295.5 247.523438 296.359375 245.808594 297.183594 244.074219 C 298.003906 242.339844 298.785156 240.585938 299.527344 238.816406 C 300.273438 237.046875 300.976562 235.261719 301.640625 233.460938 C 302.300781 231.660156 302.925781 229.847656 303.507812 228.019531 C 304.089844 226.1875 304.628906 224.347656 305.128906 222.496094 C 305.628906 220.640625 306.085938 218.777344 306.5 216.90625 C 306.917969 215.03125 307.289062 213.148438 307.621094 211.257812 C 307.953125 209.371094 308.242188 207.472656 308.488281 205.570312 C 308.734375 203.667969 308.9375 201.757812 309.101562 199.847656 C 309.261719 197.933594 309.378906 196.019531 309.453125 194.101562 C 309.53125 192.183594 309.5625 190.265625 309.550781 188.34375 C 309.539062 186.425781 309.484375 184.507812 309.390625 182.59375 C 309.292969 180.675781 309.152344 178.761719 308.972656 176.851562 C 308.789062 174.941406 308.5625 173.035156 308.296875 171.136719 C 308.027344 169.234375 307.71875 167.339844 307.363281 165.453125 C 307.011719 163.566406 306.617188 161.691406 306.179688 159.820312 C 305.742188 157.953125 305.265625 156.09375 304.746094 154.246094 C 304.226562 152.402344 303.664062 150.566406 303.0625 148.742188 C 302.457031 146.921875 301.816406 145.113281 301.132812 143.320312 C 300.449219 141.527344 299.726562 139.75 298.964844 137.988281 C 298.199219 136.226562 297.398438 134.484375 296.558594 132.761719 C 295.714844 131.035156 294.835938 129.328125 293.917969 127.644531 C 293.003906 125.957031 292.046875 124.292969 291.054688 122.652344 C 290.0625 121.007812 289.035156 119.386719 287.96875 117.792969 C 286.90625 116.195312 285.804688 114.621094 284.671875 113.074219 C 283.535156 111.527344 282.367188 110.007812 281.164062 108.511719 C 279.960938 107.015625 278.722656 105.550781 277.453125 104.109375 C 276.1875 102.667969 274.886719 101.257812 273.554688 99.878906 C 272.222656 98.496094 270.859375 97.144531 269.464844 95.824219 C 268.074219 94.503906 266.652344 93.214844 265.199219 91.960938 C 263.75 90.703125 262.273438 89.480469 260.765625 88.289062 C 259.261719 87.097656 257.730469 85.941406 256.171875 84.820312 C 254.617188 83.699219 253.035156 82.613281 251.429688 81.5625 C 249.824219 80.511719 248.195312 79.496094 246.542969 78.519531 C 244.890625 77.539062 243.21875 76.601562 241.527344 75.695312 C 239.832031 74.792969 238.121094 73.929688 236.386719 73.101562 C 234.65625 72.277344 232.90625 71.488281 231.136719 70.742188 C 229.371094 69.992188 227.585938 69.285156 225.789062 68.617188 C 223.988281 67.949219 222.175781 67.324219 220.347656 66.734375 C 218.523438 66.148438 216.683594 65.605469 214.832031 65.097656 C 212.980469 64.59375 211.117188 64.132812 209.246094 63.710938 C 207.371094 63.289062 205.492188 62.910156 203.601562 62.574219 C 201.710938 62.238281 199.816406 61.945312 197.914062 61.691406 C 196.011719 61.441406 194.105469 61.234375 192.191406 61.066406 C 190.28125 60.902344 188.367188 60.777344 186.449219 60.695312 C 184.53125 60.617188 182.613281 60.578125 180.691406 60.585938 C 178.773438 60.589844 176.855469 60.640625 174.9375 60.730469 C 173.023438 60.824219 171.109375 60.957031 169.195312 61.132812 C 167.285156 61.3125 165.378906 61.53125 163.480469 61.792969 C 161.578125 62.058594 159.683594 62.363281 157.796875 62.710938 C 155.910156 63.058594 154.03125 63.449219 152.160156 63.878906 C 150.289062 64.3125 148.429688 64.785156 146.582031 65.300781 C 144.734375 65.816406 142.898438 66.371094 141.074219 66.96875 C 139.25 67.566406 137.441406 68.203125 135.644531 68.882812 C 133.851562 69.5625 132.070312 70.28125 130.308594 71.039062 C 128.546875 71.796875 126.800781 72.59375 125.074219 73.429688 C 123.34375 74.265625 121.636719 75.140625 119.949219 76.054688 C 118.261719 76.96875 116.59375 77.917969 114.949219 78.90625 C 113.304688 79.890625 111.679688 80.917969 110.082031 81.976562 C 108.480469 83.039062 106.90625 84.132812 105.355469 85.265625 C 103.804688 86.394531 102.28125 87.558594 100.785156 88.757812 C 99.285156 89.957031 97.8125 91.191406 96.371094 92.457031 C 94.929688 93.722656 93.515625 95.019531 92.128906 96.347656 C 90.746094 97.675781 89.390625 99.035156 88.066406 100.421875 C 86.742188 101.8125 85.449219 103.230469 84.1875 104.675781 C 82.929688 106.125 81.699219 107.597656 80.507812 109.101562 C 79.3125 110.601562 78.152344 112.132812 77.027344 113.6875 C 75.898438 115.238281 74.808594 116.816406 73.753906 118.421875 C 72.699219 120.023438 71.679688 121.648438 70.699219 123.296875 C 69.714844 124.949219 68.769531 126.617188 67.863281 128.308594 C 66.953125 130 66.085938 131.710938 65.253906 133.441406 C 64.425781 135.167969 63.632812 136.917969 62.878906 138.683594 C 62.128906 140.449219 61.414062 142.230469 60.742188 144.027344 C 60.070312 145.824219 59.4375 147.636719 58.84375 149.460938 C 58.253906 151.285156 57.703125 153.125 57.195312 154.976562 C 56.683594 156.824219 56.21875 158.6875 55.792969 160.558594 C 55.367188 162.429688 54.980469 164.308594 54.640625 166.199219 C 54.296875 168.085938 54 169.980469 53.742188 171.882812 C 53.484375 173.785156 53.273438 175.691406 53.101562 177.601562 C 52.929688 179.515625 52.800781 181.429688 52.714844 183.347656 C 52.628906 185.261719 52.589844 187.179688 52.589844 189.101562 Z M 52.589844 189.101562 " fill-opacity="1" fill-rule="nonzero"/></g><path fill="#df2e2e" d="M 209.980469 255.429688 L 216.402344 270.207031 C 217.9375 269.535156 219.453125 268.820312 220.949219 268.066406 C 222.441406 267.308594 223.914062 266.511719 225.363281 265.671875 C 226.8125 264.832031 228.238281 263.949219 229.636719 263.03125 C 231.035156 262.109375 232.40625 261.148438 233.753906 260.148438 C 235.097656 259.152344 236.414062 258.113281 237.699219 257.039062 C 238.984375 255.964844 240.238281 254.855469 241.460938 253.710938 C 242.683594 252.566406 243.871094 251.386719 245.027344 250.175781 C 246.183594 248.960938 247.300781 247.71875 248.386719 246.441406 C 249.472656 245.164062 250.519531 243.859375 251.527344 242.519531 C 252.539062 241.183594 253.511719 239.820312 254.445312 238.429688 C 255.375 237.039062 256.269531 235.621094 257.121094 234.179688 C 257.972656 232.738281 258.78125 231.273438 259.550781 229.785156 C 260.320312 228.296875 261.046875 226.785156 261.730469 225.257812 C 262.414062 223.726562 263.050781 222.179688 263.644531 220.613281 C 264.242188 219.046875 264.789062 217.464844 265.296875 215.867188 C 265.800781 214.269531 266.257812 212.660156 266.671875 211.039062 C 267.085938 209.414062 267.453125 207.78125 267.773438 206.136719 C 268.09375 204.492188 268.367188 202.839844 268.59375 201.179688 C 268.820312 199.519531 268.996094 197.855469 269.128906 196.1875 C 269.261719 194.515625 269.34375 192.84375 269.382812 191.167969 C 269.417969 189.492188 269.40625 187.820312 269.347656 186.144531 C 269.289062 184.472656 269.183594 182.800781 269.027344 181.132812 C 268.875 179.464844 268.671875 177.800781 268.425781 176.144531 C 268.175781 174.488281 267.882812 172.839844 267.539062 171.199219 C 267.195312 169.5625 266.808594 167.933594 266.375 166.316406 C 265.9375 164.695312 265.457031 163.09375 264.929688 161.503906 C 264.40625 159.914062 263.835938 158.339844 263.21875 156.78125 C 262.601562 155.222656 261.945312 153.683594 261.242188 152.164062 C 260.535156 150.644531 259.792969 149.144531 259.003906 147.664062 C 258.214844 146.1875 257.382812 144.734375 256.511719 143.304688 C 255.640625 141.871094 254.730469 140.46875 253.777344 139.089844 C 252.828125 137.710938 251.839844 136.359375 250.808594 135.035156 C 249.78125 133.714844 248.71875 132.421875 247.617188 131.160156 C 246.515625 129.898438 245.378906 128.667969 244.207031 127.472656 C 243.035156 126.273438 241.828125 125.109375 240.59375 123.980469 C 239.355469 122.851562 238.085938 121.761719 236.785156 120.703125 C 235.484375 119.648438 234.15625 118.628906 232.800781 117.648438 C 231.441406 116.667969 230.058594 115.726562 228.644531 114.824219 C 227.234375 113.921875 225.796875 113.058594 224.335938 112.238281 C 222.878906 111.417969 221.394531 110.640625 219.890625 109.902344 C 218.386719 109.167969 216.859375 108.476562 215.316406 107.824219 C 213.773438 107.175781 212.210938 106.570312 210.632812 106.011719 C 209.054688 105.449219 207.460938 104.933594 205.851562 104.464844 C 204.246094 103.996094 202.625 103.570312 200.992188 103.191406 C 199.363281 102.816406 197.71875 102.484375 196.070312 102.199219 C 194.417969 101.914062 192.761719 101.675781 191.097656 101.488281 C 189.433594 101.296875 187.765625 101.15625 186.09375 101.058594 C 184.417969 100.964844 182.746094 100.917969 181.070312 100.917969 C 179.394531 100.917969 177.722656 100.964844 176.050781 101.058594 C 174.375 101.15625 172.707031 101.296875 171.042969 101.488281 C 169.378906 101.675781 167.722656 101.914062 166.070312 102.199219 C 164.421875 102.484375 162.78125 102.816406 161.148438 103.191406 C 159.515625 103.570312 157.894531 103.996094 156.289062 104.464844 C 154.679688 104.933594 153.085938 105.449219 151.507812 106.011719 C 149.929688 106.570312 148.367188 107.175781 146.824219 107.824219 C 145.28125 108.476562 143.757812 109.167969 142.25 109.902344 C 140.746094 110.640625 139.265625 111.417969 137.804688 112.238281 C 136.34375 113.058594 134.90625 113.921875 133.496094 114.824219 C 132.085938 115.726562 130.699219 116.667969 129.34375 117.648438 C 127.984375 118.628906 126.65625 119.648438 125.355469 120.703125 C 124.054688 121.761719 122.785156 122.851562 121.550781 123.980469 C 120.3125 125.109375 119.105469 126.273438 117.933594 127.472656 C 116.765625 128.667969 115.628906 129.898438 114.527344 131.160156 C 113.425781 132.421875 112.359375 133.714844 111.332031 135.035156 C 110.304688 136.359375 109.3125 137.710938 108.363281 139.089844 C 107.410156 140.46875 106.5 141.871094 105.628906 143.304688 C 104.757812 144.734375 103.925781 146.1875 103.140625 147.664062 C 102.351562 149.144531 101.605469 150.644531 100.902344 152.164062 C 100.199219 153.683594 99.539062 155.222656 98.921875 156.78125 C 98.308594 158.339844 97.734375 159.914062 97.210938 161.503906 C 96.683594 163.09375 96.203125 164.695312 95.769531 166.316406 C 95.332031 167.933594 94.945312 169.5625 94.601562 171.199219 C 94.261719 172.839844 93.964844 174.488281 93.714844 176.144531 C 93.46875 177.800781 93.265625 179.464844 93.113281 181.132812 C 92.957031 182.800781 92.851562 184.472656 92.792969 186.144531 C 92.734375 187.820312 92.722656 189.492188 92.761719 191.167969 C 92.796875 192.84375 92.878906 194.515625 93.011719 196.1875 C 93.144531 197.855469 93.324219 199.519531 93.546875 201.179688 C 93.773438 202.839844 94.046875 204.492188 94.367188 206.136719 C 94.6875 207.78125 95.054688 209.414062 95.46875 211.039062 C 95.882812 212.660156 96.339844 214.269531 96.847656 215.867188 C 97.351562 217.464844 97.902344 219.046875 98.496094 220.613281 C 99.089844 222.179688 99.730469 223.726562 100.410156 225.257812 C 101.09375 226.785156 101.820312 228.296875 102.589844 229.785156 C 103.359375 231.273438 104.167969 232.738281 105.019531 234.179688 C 105.871094 235.621094 106.765625 237.039062 107.699219 238.429688 C 108.628906 239.820312 109.601562 241.183594 110.613281 242.519531 C 111.621094 243.859375 112.667969 245.164062 113.753906 246.441406 C 114.839844 247.71875 115.960938 248.960938 117.113281 250.175781 C 118.269531 251.386719 119.457031 252.566406 120.679688 253.710938 C 121.902344 254.855469 123.15625 255.964844 124.445312 257.039062 C 125.730469 258.113281 127.042969 259.152344 128.390625 260.148438 C 129.734375 261.148438 131.105469 262.109375 132.503906 263.03125 C 133.902344 263.949219 135.328125 264.832031 136.777344 265.671875 C 138.226562 266.511719 139.699219 267.308594 141.191406 268.066406 C 142.6875 268.820312 144.203125 269.535156 145.738281 270.207031 L 152.164062 255.429688 C 150.90625 254.882812 149.667969 254.296875 148.445312 253.679688 C 147.21875 253.058594 146.015625 252.40625 144.832031 251.71875 C 143.644531 251.03125 142.480469 250.3125 141.335938 249.558594 C 140.191406 248.804688 139.066406 248.019531 137.96875 247.203125 C 136.867188 246.386719 135.792969 245.539062 134.738281 244.660156 C 133.6875 243.78125 132.660156 242.871094 131.660156 241.933594 C 130.660156 241 129.6875 240.035156 128.742188 239.042969 C 127.796875 238.046875 126.882812 237.03125 125.992188 235.984375 C 125.105469 234.941406 124.25 233.871094 123.421875 232.777344 C 122.597656 231.6875 121.800781 230.570312 121.039062 229.433594 C 120.273438 228.292969 119.546875 227.132812 118.847656 225.953125 C 118.152344 224.773438 117.488281 223.574219 116.859375 222.359375 C 116.230469 221.140625 115.636719 219.90625 115.078125 218.652344 C 114.519531 217.402344 113.996094 216.136719 113.507812 214.855469 C 113.023438 213.574219 112.574219 212.28125 112.160156 210.972656 C 111.746094 209.664062 111.371094 208.347656 111.03125 207.019531 C 110.695312 205.691406 110.394531 204.355469 110.132812 203.007812 C 109.871094 201.664062 109.648438 200.3125 109.460938 198.953125 C 109.277344 197.597656 109.128906 196.234375 109.023438 194.867188 C 108.914062 193.503906 108.847656 192.132812 108.816406 190.761719 C 108.785156 189.394531 108.796875 188.023438 108.84375 186.652344 C 108.890625 185.285156 108.980469 183.917969 109.105469 182.550781 C 109.230469 181.1875 109.394531 179.828125 109.597656 178.472656 C 109.800781 177.117188 110.042969 175.769531 110.324219 174.425781 C 110.605469 173.085938 110.921875 171.753906 111.277344 170.429688 C 111.632812 169.105469 112.027344 167.792969 112.457031 166.492188 C 112.886719 165.191406 113.355469 163.902344 113.859375 162.628906 C 114.363281 161.351562 114.902344 160.09375 115.476562 158.851562 C 116.050781 157.605469 116.664062 156.378906 117.308594 155.171875 C 117.953125 153.960938 118.632812 152.769531 119.34375 151.601562 C 120.058594 150.429688 120.804688 149.28125 121.582031 148.152344 C 122.359375 147.023438 123.171875 145.917969 124.011719 144.835938 C 124.851562 143.753906 125.722656 142.699219 126.625 141.664062 C 127.527344 140.632812 128.457031 139.625 129.414062 138.648438 C 130.371094 137.667969 131.359375 136.714844 132.371094 135.792969 C 133.382812 134.867188 134.421875 133.976562 135.484375 133.109375 C 136.550781 132.246094 137.636719 131.414062 138.746094 130.609375 C 139.859375 129.808594 140.992188 129.035156 142.144531 128.296875 C 143.300781 127.558594 144.476562 126.855469 145.671875 126.183594 C 146.867188 125.511719 148.078125 124.875 149.308594 124.273438 C 150.539062 123.671875 151.789062 123.105469 153.050781 122.574219 C 154.3125 122.042969 155.59375 121.546875 156.882812 121.089844 C 158.175781 120.628906 159.476562 120.207031 160.792969 119.824219 C 162.109375 119.4375 163.433594 119.09375 164.769531 118.78125 C 166.105469 118.472656 167.449219 118.203125 168.796875 117.96875 C 170.148438 117.738281 171.503906 117.542969 172.867188 117.386719 C 174.230469 117.230469 175.59375 117.117188 176.960938 117.039062 C 178.332031 116.960938 179.699219 116.921875 181.070312 116.921875 C 182.441406 116.921875 183.8125 116.960938 185.179688 117.039062 C 186.546875 117.117188 187.914062 117.230469 189.273438 117.386719 C 190.636719 117.542969 191.992188 117.738281 193.34375 117.96875 C 194.691406 118.203125 196.035156 118.472656 197.371094 118.78125 C 198.707031 119.09375 200.03125 119.4375 201.347656 119.824219 C 202.664062 120.207031 203.964844 120.628906 205.257812 121.089844 C 206.550781 121.546875 207.828125 122.042969 209.089844 122.574219 C 210.355469 123.105469 211.601562 123.671875 212.832031 124.273438 C 214.0625 124.875 215.277344 125.511719 216.472656 126.183594 C 217.664062 126.855469 218.839844 127.558594 219.996094 128.296875 C 221.148438 129.035156 222.28125 129.808594 223.394531 130.609375 C 224.503906 131.414062 225.59375 132.246094 226.65625 133.109375 C 227.71875 133.976562 228.757812 134.867188 229.769531 135.792969 C 230.78125 136.714844 231.769531 137.667969 232.726562 138.648438 C 233.683594 139.625 234.613281 140.632812 235.515625 141.664062 C 236.417969 142.699219 237.289062 143.753906 238.128906 144.835938 C 238.972656 145.917969 239.78125 147.023438 240.558594 148.152344 C 241.335938 149.28125 242.082031 150.429688 242.796875 151.601562 C 243.507812 152.769531 244.1875 153.960938 244.832031 155.171875 C 245.476562 156.378906 246.089844 157.605469 246.664062 158.851562 C 247.238281 160.09375 247.777344 161.351562 248.28125 162.628906 C 248.785156 163.902344 249.253906 165.191406 249.683594 166.492188 C 250.113281 167.792969 250.507812 169.105469 250.863281 170.429688 C 251.21875 171.753906 251.539062 173.085938 251.816406 174.425781 C 252.097656 175.769531 252.339844 177.117188 252.542969 178.472656 C 252.746094 179.828125 252.910156 181.1875 253.035156 182.550781 C 253.160156 183.917969 253.25 185.285156 253.296875 186.652344 C 253.34375 188.023438 253.355469 189.394531 253.324219 190.761719 C 253.296875 192.132812 253.226562 193.503906 253.117188 194.867188 C 253.011719 196.234375 252.863281 197.597656 252.679688 198.953125 C 252.496094 200.3125 252.269531 201.664062 252.007812 203.007812 C 251.746094 204.355469 251.445312 205.691406 251.109375 207.019531 C 250.769531 208.347656 250.394531 209.664062 249.980469 210.972656 C 249.570312 212.28125 249.117188 213.574219 248.632812 214.855469 C 248.144531 216.136719 247.621094 217.402344 247.0625 218.652344 C 246.503906 219.90625 245.910156 221.140625 245.28125 222.359375 C 244.652344 223.574219 243.992188 224.773438 243.292969 225.953125 C 242.597656 227.132812 241.867188 228.292969 241.101562 229.433594 C 240.339844 230.570312 239.546875 231.6875 238.71875 232.777344 C 237.890625 233.871094 237.035156 234.941406 236.148438 235.984375 C 235.261719 237.03125 234.34375 238.046875 233.398438 239.039062 C 232.453125 240.035156 231.480469 241 230.480469 241.933594 C 229.480469 242.871094 228.453125 243.78125 227.402344 244.660156 C 226.351562 245.539062 225.273438 246.386719 224.175781 247.203125 C 223.074219 248.019531 221.953125 248.804688 220.808594 249.558594 C 219.660156 250.3125 218.496094 251.03125 217.3125 251.71875 C 216.125 252.40625 214.921875 253.058594 213.699219 253.679688 C 212.476562 254.296875 211.234375 254.882812 209.980469 255.429688 Z M 209.980469 255.429688 " fill-opacity="1" fill-rule="nonzero"/><path fill="#df2e2e" d="M 213.191406 189.101562 C 213.1875 190.652344 213.074219 192.195312 212.847656 193.734375 C 212.621094 195.269531 212.285156 196.78125 211.839844 198.265625 C 211.394531 199.753906 210.847656 201.199219 210.191406 202.609375 C 209.535156 204.015625 208.78125 205.367188 207.929688 206.664062 C 207.082031 207.964844 206.140625 209.195312 205.109375 210.355469 C 204.082031 211.515625 202.972656 212.597656 201.785156 213.597656 C 200.601562 214.601562 199.347656 215.511719 198.03125 216.332031 C 196.710938 217.148438 195.339844 217.871094 193.917969 218.492188 L 200.34375 233.265625 C 201.179688 232.902344 202.007812 232.511719 202.820312 232.097656 C 203.636719 231.6875 204.441406 231.25 205.230469 230.792969 C 206.019531 230.335938 206.796875 229.855469 207.5625 229.351562 C 208.324219 228.851562 209.074219 228.328125 209.804688 227.78125 C 210.539062 227.238281 211.257812 226.671875 211.957031 226.085938 C 212.660156 225.5 213.34375 224.894531 214.011719 224.269531 C 214.675781 223.644531 215.324219 223.003906 215.957031 222.339844 C 216.585938 221.679688 217.195312 221 217.789062 220.304688 C 218.378906 219.609375 218.953125 218.894531 219.503906 218.167969 C 220.054688 217.4375 220.582031 216.695312 221.09375 215.933594 C 221.601562 215.175781 222.085938 214.402344 222.550781 213.617188 C 223.015625 212.828125 223.460938 212.03125 223.878906 211.21875 C 224.296875 210.40625 224.695312 209.582031 225.066406 208.75 C 225.4375 207.914062 225.789062 207.070312 226.113281 206.214844 C 226.4375 205.363281 226.734375 204.5 227.011719 203.628906 C 227.285156 202.757812 227.535156 201.878906 227.761719 200.992188 C 227.988281 200.109375 228.1875 199.214844 228.363281 198.320312 C 228.539062 197.421875 228.6875 196.523438 228.808594 195.617188 C 228.933594 194.710938 229.03125 193.804688 229.101562 192.890625 C 229.175781 191.980469 229.21875 191.070312 229.238281 190.15625 C 229.261719 189.242188 229.253906 188.328125 229.222656 187.414062 C 229.191406 186.503906 229.132812 185.589844 229.046875 184.679688 C 228.964844 183.773438 228.855469 182.863281 228.71875 181.960938 C 228.582031 181.058594 228.421875 180.160156 228.234375 179.265625 C 228.046875 178.371094 227.835938 177.480469 227.597656 176.597656 C 227.363281 175.714844 227.101562 174.839844 226.8125 173.972656 C 226.527344 173.105469 226.214844 172.25 225.878906 171.398438 C 225.542969 170.546875 225.183594 169.710938 224.800781 168.878906 C 224.414062 168.050781 224.007812 167.234375 223.578125 166.425781 C 223.148438 165.621094 222.695312 164.828125 222.222656 164.046875 C 221.746094 163.265625 221.25 162.5 220.730469 161.75 C 220.210938 160.996094 219.671875 160.257812 219.109375 159.539062 C 218.550781 158.816406 217.96875 158.113281 217.367188 157.421875 C 216.765625 156.734375 216.148438 156.066406 215.507812 155.410156 C 214.867188 154.757812 214.210938 154.125 213.535156 153.507812 C 212.863281 152.894531 212.167969 152.296875 211.460938 151.71875 C 210.75 151.144531 210.027344 150.589844 209.285156 150.054688 C 208.546875 149.519531 207.789062 149.003906 207.019531 148.511719 C 206.25 148.019531 205.46875 147.550781 204.671875 147.101562 C 203.875 146.65625 203.066406 146.230469 202.246094 145.828125 C 201.425781 145.429688 200.59375 145.050781 199.75 144.695312 C 198.90625 144.339844 198.054688 144.011719 197.195312 143.707031 C 196.335938 143.398438 195.464844 143.117188 194.589844 142.863281 C 193.710938 142.605469 192.828125 142.375 191.9375 142.167969 C 191.046875 141.960938 190.152344 141.78125 189.25 141.625 C 188.351562 141.472656 187.449219 141.34375 186.539062 141.238281 C 185.632812 141.136719 184.722656 141.058594 183.808594 141.003906 C 182.898438 140.953125 181.984375 140.925781 181.070312 140.925781 C 180.15625 140.925781 179.242188 140.953125 178.332031 141.003906 C 177.417969 141.058594 176.507812 141.136719 175.601562 141.238281 C 174.695312 141.34375 173.789062 141.472656 172.890625 141.625 C 171.988281 141.78125 171.09375 141.960938 170.203125 142.167969 C 169.3125 142.375 168.429688 142.605469 167.554688 142.863281 C 166.675781 143.117188 165.808594 143.398438 164.945312 143.707031 C 164.085938 144.011719 163.234375 144.339844 162.390625 144.695312 C 161.546875 145.050781 160.71875 145.429688 159.894531 145.828125 C 159.074219 146.230469 158.265625 146.65625 157.46875 147.101562 C 156.675781 147.550781 155.890625 148.019531 155.121094 148.511719 C 154.351562 149.003906 153.597656 149.519531 152.855469 150.054688 C 152.113281 150.589844 151.390625 151.144531 150.679688 151.71875 C 149.972656 152.296875 149.28125 152.894531 148.605469 153.507812 C 147.929688 154.125 147.273438 154.757812 146.632812 155.410156 C 145.996094 156.066406 145.375 156.734375 144.773438 157.421875 C 144.171875 158.113281 143.589844 158.816406 143.03125 159.539062 C 142.46875 160.257812 141.929688 160.996094 141.410156 161.75 C 140.894531 162.5 140.394531 163.265625 139.921875 164.046875 C 139.445312 164.828125 138.992188 165.621094 138.5625 166.425781 C 138.132812 167.234375 137.726562 168.050781 137.339844 168.878906 C 136.957031 169.710938 136.597656 170.546875 136.261719 171.398438 C 135.925781 172.25 135.617188 173.105469 135.328125 173.972656 C 135.042969 174.839844 134.777344 175.714844 134.542969 176.597656 C 134.304688 177.480469 134.09375 178.371094 133.90625 179.265625 C 133.71875 180.160156 133.558594 181.058594 133.421875 181.960938 C 133.289062 182.863281 133.175781 183.773438 133.09375 184.679688 C 133.007812 185.589844 132.953125 186.503906 132.917969 187.414062 C 132.886719 188.328125 132.882812 189.242188 132.902344 190.15625 C 132.921875 191.070312 132.96875 191.980469 133.039062 192.890625 C 133.109375 193.804688 133.207031 194.710938 133.332031 195.617188 C 133.453125 196.523438 133.605469 197.421875 133.777344 198.320312 C 133.953125 199.214844 134.152344 200.109375 134.378906 200.992188 C 134.605469 201.878906 134.855469 202.757812 135.128906 203.628906 C 135.40625 204.5 135.707031 205.363281 136.03125 206.214844 C 136.355469 207.070312 136.703125 207.914062 137.074219 208.75 C 137.449219 209.582031 137.84375 210.40625 138.261719 211.21875 C 138.683594 212.03125 139.125 212.828125 139.589844 213.617188 C 140.054688 214.402344 140.539062 215.175781 141.050781 215.933594 C 141.558594 216.695312 142.085938 217.4375 142.640625 218.167969 C 143.191406 218.894531 143.761719 219.609375 144.351562 220.304688 C 144.945312 221 145.554688 221.679688 146.183594 222.339844 C 146.816406 223.003906 147.464844 223.644531 148.132812 224.269531 C 148.796875 224.894531 149.480469 225.5 150.183594 226.085938 C 150.882812 226.671875 151.601562 227.238281 152.335938 227.78125 C 153.070312 228.328125 153.816406 228.851562 154.578125 229.351562 C 155.34375 229.855469 156.121094 230.335938 156.910156 230.792969 C 157.699219 231.25 158.503906 231.6875 159.320312 232.097656 C 160.132812 232.511719 160.960938 232.902344 161.796875 233.265625 L 168.222656 218.492188 C 166.800781 217.871094 165.429688 217.148438 164.109375 216.332031 C 162.792969 215.511719 161.539062 214.601562 160.355469 213.597656 C 159.167969 212.597656 158.058594 211.515625 157.03125 210.355469 C 156 209.195312 155.0625 207.964844 154.210938 206.664062 C 153.359375 205.367188 152.605469 204.015625 151.949219 202.609375 C 151.296875 201.199219 150.746094 199.753906 150.300781 198.265625 C 149.855469 196.78125 149.519531 195.269531 149.292969 193.734375 C 149.066406 192.195312 148.953125 190.652344 148.949219 189.101562 C 148.949219 188.046875 149 187 149.105469 185.953125 C 149.207031 184.90625 149.363281 183.867188 149.566406 182.835938 C 149.773438 181.800781 150.027344 180.785156 150.332031 179.777344 C 150.636719 178.769531 150.992188 177.78125 151.394531 176.808594 C 151.796875 175.835938 152.246094 174.886719 152.742188 173.960938 C 153.238281 173.03125 153.777344 172.128906 154.363281 171.253906 C 154.949219 170.378906 155.574219 169.535156 156.242188 168.722656 C 156.910156 167.910156 157.613281 167.132812 158.359375 166.386719 C 159.101562 165.644531 159.878906 164.9375 160.695312 164.269531 C 161.507812 163.605469 162.351562 162.976562 163.226562 162.394531 C 164.101562 161.808594 165 161.269531 165.929688 160.773438 C 166.855469 160.277344 167.808594 159.828125 168.777344 159.425781 C 169.75 159.023438 170.738281 158.667969 171.746094 158.363281 C 172.753906 158.058594 173.773438 157.800781 174.804688 157.597656 C 175.835938 157.390625 176.875 157.238281 177.921875 157.136719 C 178.96875 157.03125 180.019531 156.980469 181.070312 156.980469 C 182.121094 156.980469 183.171875 157.03125 184.21875 157.136719 C 185.265625 157.238281 186.304688 157.390625 187.335938 157.597656 C 188.367188 157.800781 189.386719 158.058594 190.394531 158.363281 C 191.402344 158.667969 192.390625 159.023438 193.363281 159.425781 C 194.335938 159.828125 195.285156 160.277344 196.210938 160.773438 C 197.140625 161.269531 198.042969 161.808594 198.914062 162.394531 C 199.789062 162.976562 200.632812 163.605469 201.449219 164.269531 C 202.261719 164.9375 203.039062 165.644531 203.785156 166.386719 C 204.527344 167.132812 205.234375 167.910156 205.898438 168.722656 C 206.566406 169.535156 207.195312 170.378906 207.777344 171.253906 C 208.363281 172.128906 208.902344 173.03125 209.398438 173.960938 C 209.894531 174.886719 210.34375 175.835938 210.746094 176.808594 C 211.148438 177.78125 211.503906 178.769531 211.808594 179.777344 C 212.113281 180.785156 212.367188 181.800781 212.574219 182.835938 C 212.777344 183.867188 212.933594 184.90625 213.035156 185.953125 C 213.140625 187 213.191406 188.046875 213.191406 189.101562 Z M 213.191406 189.101562 " fill-opacity="1" fill-rule="nonzero"/><g clip-path="url(#aa799dc112)"><path fill="#df2e2e" d="M 205.160156 280.484375 L 189.101562 272.453125 L 189.101562 202.753906 C 189.605469 202.460938 190.097656 202.140625 190.566406 201.796875 C 191.039062 201.449219 191.488281 201.078125 191.921875 200.683594 C 192.351562 200.289062 192.761719 199.871094 193.144531 199.433594 C 193.53125 198.992188 193.890625 198.535156 194.226562 198.054688 C 194.5625 197.578125 194.871094 197.082031 195.152344 196.566406 C 195.433594 196.054688 195.683594 195.53125 195.910156 194.988281 C 196.132812 194.449219 196.324219 193.898438 196.488281 193.335938 C 196.652344 192.777344 196.785156 192.207031 196.886719 191.632812 C 196.988281 191.054688 197.058594 190.476562 197.097656 189.894531 C 197.132812 189.308594 197.140625 188.726562 197.117188 188.144531 C 197.089844 187.558594 197.03125 186.976562 196.945312 186.398438 C 196.855469 185.824219 196.734375 185.25 196.582031 184.6875 C 196.433594 184.121094 196.25 183.566406 196.039062 183.023438 C 195.828125 182.476562 195.585938 181.945312 195.316406 181.425781 C 195.046875 180.910156 194.75 180.40625 194.425781 179.921875 C 194.097656 179.433594 193.75 178.96875 193.375 178.519531 C 192.996094 178.070312 192.597656 177.644531 192.175781 177.242188 C 191.753906 176.835938 191.3125 176.457031 190.847656 176.101562 C 190.382812 175.746094 189.902344 175.417969 189.402344 175.113281 C 188.902344 174.808594 188.386719 174.535156 187.859375 174.289062 C 187.328125 174.039062 186.785156 173.824219 186.234375 173.636719 C 185.679688 173.449219 185.117188 173.289062 184.546875 173.164062 C 183.976562 173.039062 183.398438 172.941406 182.820312 172.878906 C 182.238281 172.816406 181.65625 172.78125 181.070312 172.78125 C 180.484375 172.78125 179.902344 172.816406 179.320312 172.878906 C 178.742188 172.941406 178.164062 173.039062 177.59375 173.164062 C 177.023438 173.289062 176.460938 173.449219 175.910156 173.636719 C 175.355469 173.824219 174.8125 174.039062 174.285156 174.289062 C 173.753906 174.535156 173.238281 174.808594 172.738281 175.113281 C 172.238281 175.417969 171.757812 175.746094 171.292969 176.101562 C 170.828125 176.457031 170.386719 176.835938 169.964844 177.242188 C 169.542969 177.644531 169.144531 178.070312 168.769531 178.519531 C 168.390625 178.96875 168.042969 179.433594 167.71875 179.921875 C 167.390625 180.40625 167.09375 180.910156 166.824219 181.425781 C 166.554688 181.945312 166.3125 182.476562 166.101562 183.023438 C 165.890625 183.566406 165.707031 184.121094 165.558594 184.6875 C 165.40625 185.25 165.285156 185.824219 165.195312 186.398438 C 165.109375 186.976562 165.050781 187.558594 165.027344 188.144531 C 165 188.726562 165.007812 189.308594 165.042969 189.894531 C 165.082031 190.476562 165.152344 191.054688 165.253906 191.632812 C 165.355469 192.207031 165.488281 192.777344 165.652344 193.335938 C 165.816406 193.898438 166.007812 194.449219 166.234375 194.988281 C 166.457031 195.53125 166.707031 196.054688 166.988281 196.566406 C 167.269531 197.082031 167.578125 197.578125 167.914062 198.054688 C 168.25 198.535156 168.609375 198.992188 168.996094 199.433594 C 169.382812 199.871094 169.789062 200.289062 170.21875 200.683594 C 170.652344 201.078125 171.101562 201.449219 171.574219 201.796875 C 172.046875 202.140625 172.535156 202.460938 173.039062 202.753906 L 173.039062 272.453125 L 156.980469 280.484375 L 156.980469 322.5625 L 181.070312 310.515625 L 205.160156 322.5625 Z M 173.039062 296.542969 L 173.039062 290.441406 L 181.070312 286.425781 L 189.101562 290.441406 L 189.101562 296.542969 L 181.070312 292.527344 Z M 173.039062 296.542969 " fill-opacity="1" fill-rule="nonzero"/></g><g fill="#000000" fill-opacity="1"><g transform="translate(139.53183, 360.984497)"><g><path d="M 10.875 0.1875 C 8.082031 0.1875 5.738281 -0.738281 3.84375 -2.59375 C 1.945312 -4.457031 1 -6.820312 1 -9.6875 C 1 -12.5625 1.953125 -14.925781 3.859375 -16.78125 C 5.765625 -18.644531 8.101562 -19.578125 10.875 -19.578125 C 13.65625 -19.578125 15.992188 -18.644531 17.890625 -16.78125 C 19.796875 -14.925781 20.75 -12.566406 20.75 -9.703125 C 20.75 -8.003906 20.390625 -6.453125 19.671875 -5.046875 C 18.960938 -3.648438 17.984375 -2.507812 16.734375 -1.625 L 21.015625 3.34375 L 16.203125 3.34375 L 13.359375 -0.109375 C 12.503906 0.0859375 11.675781 0.1875 10.875 0.1875 Z M 10.859375 -16.015625 C 9.109375 -16.015625 7.6875 -15.4375 6.59375 -14.28125 C 5.5 -13.132812 4.953125 -11.601562 4.953125 -9.6875 C 4.953125 -7.78125 5.5 -6.25 6.59375 -5.09375 C 7.6875 -3.945312 9.109375 -3.375 10.859375 -3.375 C 12.617188 -3.375 14.039062 -3.945312 15.125 -5.09375 C 16.21875 -6.25 16.765625 -7.785156 16.765625 -9.703125 C 16.765625 -11.617188 16.21875 -13.148438 15.125 -14.296875 C 14.039062 -15.441406 12.617188 -16.015625 10.859375 -16.015625 Z M 10.859375 -16.015625 "/></g></g></g><g fill="#000000" fill-opacity="1"><g transform="translate(162.8643, 360.984497)"><g><path d="M 2.015625 -7.40625 L 2.015625 -19.296875 L 5.921875 -19.296875 L 5.921875 -7.40625 C 5.921875 -6.082031 6.253906 -5.078125 6.921875 -4.390625 C 7.597656 -3.710938 8.5625 -3.375 9.8125 -3.375 C 11.070312 -3.375 12.039062 -3.710938 12.71875 -4.390625 C 13.40625 -5.078125 13.75 -6.082031 13.75 -7.40625 L 13.75 -19.296875 L 17.609375 -19.296875 L 17.609375 -7.40625 C 17.609375 -4.976562 16.84375 -3.101562 15.3125 -1.78125 C 13.789062 -0.46875 11.929688 0.1875 9.734375 0.1875 C 7.535156 0.1875 5.695312 -0.460938 4.21875 -1.765625 C 2.75 -3.078125 2.015625 -4.957031 2.015625 -7.40625 Z M 2.015625 -7.40625 "/></g></g></g><g fill="#000000" fill-opacity="1"><g transform="translate(183.957574, 360.984497)"><g><path d="M 13.21875 -19.359375 L 13.21875 -16.375 L 5.96875 -16.375 L 5.96875 -11.3125 L 12.390625 -11.3125 L 12.390625 -8.328125 L 5.96875 -8.328125 L 5.96875 -2.984375 L 13.21875 -2.984375 L 13.21875 0 L 2.078125 0 L 2.078125 -19.359375 Z M 13.21875 -19.359375 "/></g></g></g><g fill="#000000" fill-opacity="1"><g transform="translate(200.572443, 360.984497)"><g><path d="M 8.3125 -16.453125 C 7.539062 -16.453125 6.910156 -16.253906 6.421875 -15.859375 C 5.941406 -15.460938 5.703125 -14.914062 5.703125 -14.21875 C 5.703125 -13.519531 5.878906 -12.96875 6.234375 -12.5625 C 6.597656 -12.164062 7.070312 -11.863281 7.65625 -11.65625 C 8.25 -11.445312 8.894531 -11.257812 9.59375 -11.09375 C 10.289062 -10.925781 10.988281 -10.722656 11.6875 -10.484375 C 12.394531 -10.242188 13.039062 -9.945312 13.625 -9.59375 C 14.21875 -9.25 14.691406 -8.738281 15.046875 -8.0625 C 15.410156 -7.382812 15.59375 -6.566406 15.59375 -5.609375 C 15.59375 -4.023438 14.960938 -2.660156 13.703125 -1.515625 C 12.441406 -0.378906 10.765625 0.1875 8.671875 0.1875 C 6.578125 0.1875 4.882812 -0.300781 3.59375 -1.28125 C 2.300781 -2.269531 1.65625 -3.660156 1.65625 -5.453125 L 5.8125 -5.453125 C 5.957031 -3.753906 6.925781 -2.90625 8.71875 -2.90625 C 9.601562 -2.90625 10.300781 -3.132812 10.8125 -3.59375 C 11.332031 -4.050781 11.59375 -4.660156 11.59375 -5.421875 C 11.59375 -6.191406 11.25 -6.796875 10.5625 -7.234375 C 9.882812 -7.679688 9.0625 -8.015625 8.09375 -8.234375 C 7.125 -8.460938 6.148438 -8.734375 5.171875 -9.046875 C 4.191406 -9.359375 3.359375 -9.90625 2.671875 -10.6875 C 1.992188 -11.46875 1.65625 -12.503906 1.65625 -13.796875 C 1.65625 -15.546875 2.289062 -16.945312 3.5625 -18 C 4.832031 -19.050781 6.46875 -19.578125 8.46875 -19.578125 C 10.476562 -19.578125 12.085938 -19.117188 13.296875 -18.203125 C 14.515625 -17.296875 15.179688 -15.910156 15.296875 -14.046875 L 11.03125 -14.046875 C 10.957031 -14.785156 10.679688 -15.367188 10.203125 -15.796875 C 9.722656 -16.234375 9.09375 -16.453125 8.3125 -16.453125 Z M 8.3125 -16.453125 "/></g></g></g><g fill="#000000" fill-opacity="1"><g transform="translate(219.315935, 360.984497)"><g><path d="M 0.9375 -16.3125 L 0.9375 -19.296875 L 15.234375 -19.296875 L 15.234375 -16.3125 L 10.015625 -16.3125 L 10.015625 0 L 6.140625 0 L 6.140625 -16.3125 Z M 0.9375 -16.3125 "/></g></g></g></svg>