<?xml version="1.0" encoding="UTF-8"?>
<svg version="1.1" xmlns="http://www.w3.org/2000/svg" width="512" height="512">
<path d="M0 0 C1.04531387 -0.01283524 2.09062775 -0.02567047 3.1676178 -0.03889465 C4.85666481 -0.04997505 4.85666481 -0.04997505 6.57983398 -0.0612793 C7.74667221 -0.06935104 8.91351044 -0.07742279 10.1157074 -0.08573914 C12.58786539 -0.09956978 15.0600424 -0.11029649 17.53222656 -0.11816406 C21.28740391 -0.13532203 25.04168815 -0.17921288 28.79663086 -0.22338867 C31.20352545 -0.233521 33.61042751 -0.24203541 36.01733398 -0.2487793 C37.12919571 -0.26628738 38.24105743 -0.28379547 39.38661194 -0.30183411 C51.65888004 -0.26819718 63.12334155 4.05583798 72.21264648 12.43481445 C88.16877862 29.26128107 87.18599326 49.23969541 86.95092773 71.05200195 C86.93585337 73.49339995 86.92216984 75.93480694 86.90991211 78.3762207 C86.87712574 84.3100135 86.8271448 90.24346485 86.76342773 96.17700195 C87.84148178 96.16472816 87.84148178 96.16472816 88.9413147 96.15220642 C92.22835111 96.11953095 95.5153532 96.09933767 98.80249023 96.0793457 C100.4983728 96.05970764 100.4983728 96.05970764 102.22851562 96.03967285 C116.94401212 95.9725646 128.55686262 100.27391828 139.51342773 110.42700195 C149.93721188 121.65069279 153.86605773 134.81171404 155.63061523 149.72387695 C155.78680328 150.9567897 155.94299133 152.18970245 156.10391235 153.4599762 C156.53801915 156.88919599 156.95687337 160.3201279 157.37307739 163.75156021 C157.82602531 167.46499729 158.29253517 171.17673238 158.75756836 174.88867188 C159.49201682 180.76201656 160.22102953 186.63600417 160.94543076 192.51059628 C162.58338713 205.78746423 164.26339334 219.05887859 165.9472084 232.32999802 C166.90975286 239.92244267 167.86821741 247.51540308 168.82642174 255.10839653 C169.62175576 261.4106753 170.41829604 267.71279497 171.21795654 274.01452637 C171.98136609 280.03381282 172.73890185 286.05381321 173.49235153 292.07435417 C173.77258394 294.30625833 174.05472622 296.53792369 174.33897781 298.76931953 C180.3977128 346.36979592 180.3977128 346.36979592 166.75952148 364.8996582 C158.4934722 374.70357712 147.32241759 381.42429361 134.76342773 384.17700195 C131.76242606 384.27799938 128.78446458 384.3248167 125.7833252 384.32417297 C124.86549145 384.32784966 123.94765771 384.33152635 123.00201082 384.33531445 C119.91922228 384.34634809 116.83646744 384.35019464 113.75366211 384.35400391 C111.54596856 384.36026891 109.33827606 384.36691574 107.13058472 384.37391663 C99.87278986 384.39495889 92.61499479 384.40532066 85.35717773 384.4152832 C82.85746754 384.419331 80.35775745 384.42344793 77.85804749 384.42763329 C67.45751015 384.44450363 57.05697438 384.45913711 46.65642548 384.46638203 C43.95869444 384.46829178 41.26096342 384.47021213 38.56323242 384.47216797 C37.89276321 384.47265171 37.22229401 384.47313545 36.53150755 384.47363385 C25.68251778 384.48192524 14.83363859 384.50724713 3.98469704 384.53974865 C-7.16644552 384.57288164 -18.31754818 384.5905042 -29.4687438 384.59402627 C-35.72450104 384.59637417 -41.98008355 384.60530085 -48.23579407 384.63048744 C-54.12585679 384.65381816 -60.01563038 384.65798111 -65.90572739 384.64772606 C-68.06152688 384.64723177 -70.21734084 384.65352037 -72.37309647 384.6672821 C-91.26122659 384.78106108 -105.86696649 381.71581776 -120.13500977 368.4309082 C-129.94451215 357.91030807 -134.42861848 344.39258765 -134.37024689 330.14760017 C-134.05942767 323.2403878 -133.04994666 316.37481038 -132.1887207 309.51855469 C-131.96816891 307.73045731 -131.74807308 305.94230364 -131.52839661 304.15409851 C-130.93224949 299.31419543 -130.3290131 294.47520161 -129.72392941 289.63640857 C-129.2177245 285.5841501 -128.71466952 281.53150287 -128.21149564 277.47886711 C-127.02280003 267.90647514 -125.82799559 258.33485874 -124.62963867 248.76367188 C-123.39790329 238.92484501 -122.17753204 229.08465493 -120.96262908 219.24373668 C-119.91575552 210.76774905 -118.8611802 202.29274256 -117.80068421 193.8184486 C-117.16894291 188.76939299 -116.54013753 183.7200172 -115.91899872 178.66964531 C-115.33356125 173.91194718 -114.73843537 169.15555467 -114.13623619 164.39995003 C-113.91840215 162.66714165 -113.70383788 160.93391811 -113.49302864 159.20024109 C-110.95130177 138.33723793 -107.52459867 119.2835422 -90.11547852 105.49731445 C-81.90637393 99.61485448 -72.26791818 96.02978947 -62.15844727 96.0793457 C-60.99829102 96.08256836 -59.83813477 96.08579102 -58.64282227 96.08911133 C-56.83297852 96.10167969 -56.83297852 96.10167969 -54.98657227 96.11450195 C-53.15352539 96.12126953 -53.15352539 96.12126953 -51.28344727 96.12817383 C-48.2677728 96.13995381 -45.25219729 96.15640342 -42.23657227 96.17700195 C-42.24545471 95.46227219 -42.25433716 94.74754242 -42.26348877 94.01115417 C-42.34409072 87.23053166 -42.40476625 80.449982 -42.44382095 73.66900158 C-42.46457557 70.18390933 -42.49266609 66.69921741 -42.53833008 63.21435547 C-42.59065537 59.19535784 -42.60961739 55.1767717 -42.62719727 51.1574707 C-42.64784241 49.92369186 -42.66848755 48.68991302 -42.6897583 47.41874695 C-42.69314816 34.17463514 -38.20504775 23.19466363 -29.49829102 13.17700195 C-21.8407951 5.83105298 -10.67946212 0.11461607 0 0 Z M-5.04907227 36.61450195 C-9.42951895 41.74588236 -10.36718629 45.62937369 -10.35009766 52.24267578 C-10.34997681 53.23690552 -10.34985596 54.23113525 -10.34973145 55.25549316 C-10.34461548 56.28791138 -10.33949951 57.32032959 -10.33422852 58.3840332 C-10.33322144 59.34224976 -10.33221436 60.30046631 -10.33117676 61.28771973 C-10.32595877 64.8549927 -10.31199751 68.42224858 -10.29907227 71.98950195 C-10.27844727 79.97137695 -10.25782227 87.95325195 -10.23657227 96.17700195 C10.88342773 96.17700195 32.00342773 96.17700195 53.76342773 96.17700195 C53.84592773 87.92700195 53.92842773 79.67700195 54.01342773 71.17700195 C54.04984375 68.58727539 54.08625977 65.99754883 54.1237793 63.3293457 C54.13547079 61.25773953 54.14566152 59.18612412 54.15405273 57.11450195 C54.18474854 55.52412109 54.18474854 55.52412109 54.21606445 53.90161133 C54.21904697 47.5190171 53.61257293 42.4349699 49.76342773 37.17700195 C43.87477958 32.29067689 38.48426277 32.02086676 31.08374023 32.0090332 C30.35275116 32.0057048 29.62176208 32.0023764 28.86862183 31.99894714 C27.32721584 31.99390154 25.785799 31.99153808 24.24438477 31.99169922 C21.90289049 31.98951544 19.5618699 31.9713424 17.22045898 31.95239258 C15.71655433 31.94945749 14.21264746 31.94747347 12.70874023 31.9465332 C12.01684601 31.93934769 11.32495178 31.93216217 10.61209106 31.92475891 C4.58685713 31.95267509 -0.42044154 32.60302199 -5.04907227 36.61450195 Z M-74.48657227 136.55200195 C-77.81768081 141.54866477 -78.64258466 146.95966885 -79.35697937 152.82331848 C-79.45331549 153.57346857 -79.54965161 154.32361866 -79.64890701 155.09650058 C-79.9687221 157.59894864 -80.27978147 160.10240416 -80.59082031 162.60595703 C-80.8188393 164.40508722 -81.04736794 166.20415289 -81.27636719 168.00315857 C-81.89573717 172.88268182 -82.5071954 177.76316536 -83.11666083 182.64393449 C-83.62650601 186.72210439 -84.13989365 190.79982537 -84.65317756 194.87756366 C-85.86427324 204.50049898 -87.06863263 214.12426155 -88.26904297 223.74853516 C-89.5063745 233.6677052 -90.75596196 243.58527778 -92.01145715 253.50216371 C-93.0899118 262.02456008 -94.1602558 270.5479492 -95.22424346 279.07216376 C-95.85937282 284.15964964 -96.49764948 289.24669036 -97.14392662 294.33277321 C-97.75161622 299.11769496 -98.34915649 303.90377827 -98.93903351 308.69092751 C-99.15672104 310.44368489 -99.3779518 312.19600656 -99.60305977 313.94782639 C-102.08022987 329.79247486 -102.08022987 329.79247486 -96.82250977 344.3840332 C-92.44576543 349.33212593 -87.67810122 351.32052523 -81.23657227 352.17700195 C-78.39862671 352.26981826 -75.58575241 352.31635824 -72.74832153 352.31071472 C-71.48728082 352.31411306 -71.48728082 352.31411306 -70.20076454 352.31758004 C-67.39123455 352.32389669 -64.58175309 352.32309218 -61.7722168 352.32226562 C-59.75478045 352.32525855 -57.73734469 352.32866139 -55.71990967 352.33244324 C-50.24469276 352.34127335 -44.76949148 352.34362092 -39.29426813 352.34425902 C-35.87261829 352.34497003 -32.45097243 352.3471053 -29.02932358 352.34975624 C-17.08977761 352.35900603 -5.1502428 352.36309154 6.78930664 352.36230469 C17.91487012 352.36170383 29.04038513 352.37225825 40.16593635 352.38804835 C49.72194423 352.40112708 59.27793626 352.40648845 68.83395302 352.40584928 C74.5395256 352.40559441 80.24505509 352.40843953 85.95061874 352.41902733 C91.31698266 352.42871399 96.68326232 352.42878354 102.04962921 352.4215107 C104.01682025 352.4204656 105.98401656 352.42282328 107.95119858 352.42887115 C110.64130099 352.4366046 113.33111342 352.43193732 116.02120972 352.42424011 C117.18241957 352.43195546 117.18241957 352.43195546 118.3670882 352.43982667 C126.48071044 352.38869965 133.74728346 350.9335664 139.76342773 345.17700195 C144.54739371 339.36375845 145.02163069 332.74171115 144.49329567 325.44760132 C144.02060208 320.75757734 143.42290288 316.08339388 142.82910156 311.4074707 C142.60828766 309.60806553 142.38835044 307.8085526 142.16921997 306.00894165 C141.57345319 301.1399921 140.96442894 296.27278867 140.35217881 291.4058876 C139.84135325 287.33584084 139.33692578 283.26501137 138.8324396 279.19417477 C137.64181695 269.58795904 136.44031353 259.98314732 135.23193359 250.37915039 C133.9872562 240.48518545 132.76058812 230.58910596 131.54283315 220.6917944 C130.49490575 212.17984462 129.4359683 203.669314 128.36821002 195.15982914 C127.73137822 190.08380991 127.09863656 185.00736822 126.47641945 179.92953491 C125.89075469 175.15410016 125.29130063 170.38059236 124.68138504 165.60819626 C124.46043634 163.86134882 124.24426195 162.1138895 124.03334236 160.36580276 C122.6754754 145.40770259 122.6754754 145.40770259 114.76342773 133.23950195 C107.98280246 128.57782208 102.06812447 128.01146314 93.88842773 128.11450195 C93.20006836 128.11901367 92.51170898 128.12352539 91.80249023 128.12817383 C90.12276438 128.13983859 88.44308398 128.15776925 86.76342773 128.17700195 C86.72604492 129.38356445 86.68866211 130.59012695 86.65014648 131.83325195 C86.58443554 133.44786373 86.51799002 135.06244574 86.45092773 136.67700195 C86.41708984 137.86422852 86.41708984 137.86422852 86.38256836 139.07543945 C86.08368403 145.70523735 85.21050522 151.8492941 80.20092773 156.61450195 C74.92170448 159.99861942 69.93083318 159.74940167 63.76342773 159.17700195 C58.15469888 156.61863441 57.67347917 154.99710482 54.76342773 149.17700195 C54.43342773 142.24700195 54.10342773 135.31700195 53.76342773 128.17700195 C32.64342773 128.17700195 11.52342773 128.17700195 -10.23657227 128.17700195 C-10.56657227 135.43700195 -10.89657227 142.69700195 -11.23657227 150.17700195 C-15.99272125 157.31122542 -15.99272125 157.31122542 -20.23657227 159.17700195 C-25.7846583 160.00585465 -30.70798109 159.90107146 -35.79907227 157.48950195 C-40.90364207 152.64670496 -41.60738899 148.7574311 -41.85571289 141.91723633 C-41.88955078 140.40613281 -41.88955078 140.40613281 -41.92407227 138.86450195 C-41.95823242 137.83776367 -41.99239258 136.81102539 -42.02758789 135.75317383 C-42.10980636 133.22789232 -42.17904163 130.70294655 -42.23657227 128.17700195 C-59.89413728 127.41921795 -59.89413728 127.41921795 -74.48657227 136.55200195 Z " fill="#000000" transform="translate(234.236572265625,63.822998046875)"/>
</svg>
