<?xml version="1.0" encoding="UTF-8"?>
<svg version="1.1" xmlns="http://www.w3.org/2000/svg" width="66" height="56">
<path d="M0 0 C21.45 0 42.9 0 65 0 C65 21.45 65 42.9 65 65 C43.55 65 22.1 65 0 65 C0 43.55 0 22.1 0 0 Z " fill="#B6275F" transform="translate(0,0)"/>
<path d="M0 0 C3.24992446 -0.05819424 6.49971435 -0.09366116 9.75 -0.125 C10.67039062 -0.14175781 11.59078125 -0.15851562 12.5390625 -0.17578125 C13.87324219 -0.18544922 13.87324219 -0.18544922 15.234375 -0.1953125 C16.05131836 -0.20578613 16.86826172 -0.21625977 17.70996094 -0.22705078 C20.3178027 0.03150922 21.83022662 0.53009741 24 2 C26.30287797 5.24673999 26.23354407 8.17850467 26.1953125 12.078125 C26.18886719 13.23828125 26.18242188 14.3984375 26.17578125 15.59375 C26.15902344 16.8003125 26.14226563 18.006875 26.125 19.25 C26.11597656 20.47203125 26.10695313 21.6940625 26.09765625 22.953125 C26.07409513 25.96894782 26.04119706 28.98437492 26 32 C27.65 32 29.3 32 31 32 C30.67 33.98 30.34 35.96 30 38 C19.44 38 8.88 38 -2 38 C-2 36.02 -2 34.04 -2 32 C5.59 32 13.18 32 21 32 C20.87625 28.7825 20.7525 25.565 20.625 22.25 C20.59100098 21.24227539 20.55700195 20.23455078 20.52197266 19.19628906 C20.4863623 18.39416992 20.45075195 17.59205078 20.4140625 16.765625 C20.36693115 15.54020996 20.36693115 15.54020996 20.31884766 14.29003906 C19.97131546 11.79398083 19.32904468 10.13379275 18 8 C14.70039859 6.3501993 11.00872116 6.61741639 7.375 6.4375 C6.17230469 6.37272461 6.17230469 6.37272461 4.9453125 6.30664062 C2.9637489 6.20048543 0.98189729 6.09973145 -1 6 C-0.67 4.02 -0.34 2.04 0 0 Z " fill="#FCF9FB" transform="translate(13,9)"/>
<path d="M0 0 C7.59 0 15.18 0 23 0 C18 6 18 6 15 7 C14.67 7.99 14.34 8.98 14 10 C11.6875 12.75 11.6875 12.75 9 15 C5.93268023 14.91236229 5.18647619 14.18647619 3 12 C2.62546281 7.78645663 3.20522561 4.81389558 5 1 C3.35 1.66 1.7 2.32 0 3 C0 2.01 0 1.02 0 0 Z " fill="#B52A60" transform="translate(0,0)"/>
<path d="M0 0 C0.33 0 0.66 0 1 0 C1 4.29 1 8.58 1 13 C1.66 13.33 2.32 13.66 3 14 C2.67 14.66 2.34 15.32 2 16 C1.960008 17.99960012 1.95653201 20.00047242 2 22 C2.99 22.33 3.98 22.66 5 23 C4.34 24.98 3.68 26.96 3 29 C2.67 27.68 2.34 26.36 2 25 C0.68 24.67 -0.64 24.34 -2 24 C-2 16.74 -2 9.48 -2 2 C-1.34 2 -0.68 2 0 2 C0 1.34 0 0.68 0 0 Z " fill="#BD3065" transform="translate(48,24)"/>
<path d="M0 0 C2.64 0 5.28 0 8 0 C7.67 3.3 7.34 6.6 7 10 C11 8.5 11 8.5 12 6 C12.99 6.33 13.98 6.66 15 7 C13.74169637 10.77491089 12.03169839 12.46183391 9 15 C5.93268023 14.91236229 5.18647619 14.18647619 3 12 C2.62546281 7.78645663 3.20522561 4.81389558 5 1 C3.35 1.66 1.7 2.32 0 3 C0 2.01 0 1.02 0 0 Z " fill="#C85781" transform="translate(0,0)"/>
<path d="M0 0 C0.598125 0.20625 1.19625 0.4125 1.8125 0.625 C0.1625 2.275 -1.4875 3.925 -3.1875 5.625 C-4.1775 5.295 -5.1675 4.965 -6.1875 4.625 C-5.03076352 1.15479057 -3.91311293 -0.67081936 0 0 Z " fill="#C65480" transform="translate(21.1875,0.375)"/>
<path d="M0 0 C1.9375 0.75 1.9375 0.75 4 2 C4.75 4.125 4.75 4.125 5 6 C3.68 5.67 2.36 5.34 1 5 C0.67 3.35 0.34 1.7 0 0 Z " fill="#C65680" transform="translate(0,13)"/>
</svg>
