<svg width="77.6px" height="122px" xmlns="http://www.w3.org/2000/svg" viewBox="211.2 14 77.6 122" style="background: rgba(0, 0, 0, 0);" preserveAspectRatio="xMidYMid"><defs><filter id="editing-extrude-glow"><feFlood flood-color="#333333" result="flood-1"></feFlood><feMorphology operator="erode" radius="1" in="SourceAlpha" result="erode"></feMorphology><feComposite operator="in" in="flood-1" in2="erode" result="comp1"></feComposite><feConvolveMatrix order="3,3" divisor="1" in="comp1" result="convolve" kernelMatrix="0 0 0 1 1 1 0 0 0"></feConvolveMatrix><feOffset dx="-3" dy="0" in="convolve" result="extrude"></feOffset><feComposite operator="in" in="flood-1" in2="extrude" result="comp-extrude"></feComposite><feFlood flood-color="#000000" result="flood-2"></feFlood><feComposite operator="in" in="flood-2" in2="SourceAlpha" result="comp2"></feComposite><feMorphology operator="dilate" radius="1" in="comp2" result="dilate"></feMorphology><feOffset dx="-4.5" dy="0" in="dilate" result="offset"></feOffset><feGaussianBlur in="offset" stdDeviation="5.8" result="blur"></feGaussianBlur><feComponentTransfer in="blur" result="shadow"><feFuncA type="linear" slope="0.8" intercept="-0.2"></feFuncA></feComponentTransfer><feMerge><feMergeNode in="shadow"></feMergeNode><feMergeNode in="comp-extrude"></feMergeNode><feMergeNode in="SourceGraphic"></feMergeNode></feMerge></filter></defs><g filter="url(#editing-extrude-glow)"><g transform="translate(228.67923307418823, 97.4000015258789)"><path d="M27.01-20.61L39.94-21.76L39.94-21.76Q35.33-11.65 35.33 0.06L35.33 0.06L35.33 0.06Q33.60 1.28 31.07 1.28L31.07 1.28L31.07 1.28Q28.54 1.28 26.94 0.10L26.94 0.10L26.94 0.10Q25.34-1.09 25.02-2.30L25.02-2.30L25.02-2.30Q23.42-0.64 20.83 0.32L20.83 0.32L20.83 0.32Q18.24 1.28 15.49 1.28L15.49 1.28L15.49 1.28Q12.74 1.28 10.34 0.38L10.34 0.38L10.34 0.38Q7.94-0.51 6.08-2.50L6.08-2.50L6.08-2.50Q1.98-6.85 1.98-15.10L1.98-15.10L1.98-15.10Q1.98-27.90 8.83-35.58L8.83-35.58L8.83-35.58Q15.87-43.52 28.35-43.52L28.35-43.52L28.35-43.52Q36.99-43.52 40.06-39.04L40.06-39.04L40.06-39.04Q41.02-37.63 41.02-35.94L41.02-35.94L41.02-35.94Q41.02-34.24 40.29-32.80L40.29-32.80L40.29-32.80Q39.55-31.36 38.40-30.21L38.40-30.21L38.40-30.21Q35.65-27.65 32.26-27.65L32.26-27.65L32.26-27.65Q30.91-27.65 29.63-28.10L29.63-28.10L29.63-28.10Q29.89-30.02 29.89-32.26L29.89-32.26L29.89-32.26Q29.89-34.50 29.73-35.52L29.73-35.52L29.73-35.52Q29.57-36.54 29.18-37.38L29.18-37.38L29.18-37.38Q28.35-39.10 26.53-39.10L26.53-39.10L26.53-39.10Q24.70-39.10 22.69-37.15L22.69-37.15L22.69-37.15Q20.67-35.20 19.07-32L19.07-32L19.07-32Q15.55-24.83 15.55-16.19L15.55-16.19L15.55-16.19Q15.55-12.22 17.09-9.41L17.09-9.41L17.09-9.41Q18.75-6.34 21.70-6.34L21.70-6.34L21.70-6.34Q22.72-6.34 23.65-6.85L23.65-6.85L23.65-6.85Q24.58-7.36 24.96-7.74L24.96-7.74L27.01-20.61Z" fill="#eb6c6c"></path></g></g><style>text {
  font-size: 64px;
  font-family: Arial Black;
  dominant-baseline: central;
  text-anchor: middle;
}</style></svg>