<?xml version="1.0" encoding="UTF-8"?>
<svg version="1.1" xmlns="http://www.w3.org/2000/svg" width="66" height="56">
<path d="M0 0 C21.78 0 43.56 0 66 0 C66 21.12 66 42.24 66 64 C44.22 64 22.44 64 0 64 C0 42.88 0 21.76 0 0 Z " fill="#3BBFC1" transform="translate(0,0)"/>
<path d="M0 0 C1.92050612 0.39859561 3.83635712 0.81965926 5.75 1.25 C6.81734375 1.48203125 7.8846875 1.7140625 8.984375 1.953125 C12.93404445 3.32425377 15.13196517 5.26393034 17 9 C17.23930434 11.42258715 17.42458393 13.82131779 17.5625 16.25 C17.6049585 16.95640625 17.64741699 17.6628125 17.69116211 18.390625 C18.07240284 25.26369732 18.09679329 32.11692184 18 39 C16.35 39 14.7 39 13 39 C12.34 37.02 11.68 35.04 11 33 C10.57589844 33.42152344 10.15179688 33.84304687 9.71484375 34.27734375 C5.48054205 38.23246072 2.80988828 39.7628617 -3 40 C-3.0625 36.75 -3.0625 36.75 -2 33 C0.19701747 31.6416055 2.32391574 30.82938942 4.7734375 30.01953125 C7.59358837 28.72819901 8.56052278 27.75478229 10 25 C10.36252397 21.49345032 10.36252397 21.49345032 10.1875 17.75 C10.16042969 16.48671875 10.13335937 15.2234375 10.10546875 13.921875 C10.05326172 12.47554687 10.05326172 12.47554687 10 11 C4.6400004 8.58749273 4.6400004 8.58749273 -1 7 C-0.67 4.69 -0.34 2.38 0 0 Z " fill="#EFF9F9" transform="translate(13,9)"/>
<path d="M0 0 C0.33 0 0.66 0 1 0 C1.33 2.64 1.66 5.28 2 8 C3.98 7.67 5.96 7.34 8 7 C8 7.66 8 8.32 8 9 C5.36 9 2.72 9 0 9 C-0.33 8.34 -0.66 7.68 -1 7 C-0.67 6.01 -0.34 5.02 0 4 C-0.66 3.67 -1.32 3.34 -2 3 C-1.34 2.01 -0.68 1.02 0 0 Z " fill="#60CCCB" transform="translate(37,44)"/>
<path d="M0 0 C1.65 0.33 3.3 0.66 5 1 C4.01 1.33 3.02 1.66 2 2 C1.67 3.65 1.34 5.3 1 7 C0.34 7 -0.32 7 -1 7 C-0.67 4.69 -0.34 2.38 0 0 Z " fill="#D8F4F2" transform="translate(26,13)"/>
</svg>
