<?xml version="1.0" encoding="UTF-8"?>
<svg version="1.1" xmlns="http://www.w3.org/2000/svg" width="66" height="56">
<path d="M0 0 C20.79 0 41.58 0 63 0 C63 20.46 63 40.92 63 62 C42.21 62 21.42 62 0 62 C0 41.54 0 21.08 0 0 Z " fill="#FEC741" transform="translate(0,0)"/>
<path d="M0 0 C3.37470504 -0.11689626 6.7488843 -0.18747934 10.125 -0.25 C11.07632812 -0.28351562 12.02765625 -0.31703125 13.0078125 -0.3515625 C18.86634689 -0.43293103 22.42498029 -0.06343603 27 4 C29.1751244 7.2626866 29.25605179 8.22844608 29.265625 12.0078125 C29.26949219 13.48894531 29.26949219 13.48894531 29.2734375 15 C29.26570313 16.03125 29.25796875 17.0625 29.25 18.125 C29.25773437 19.13304688 29.26546875 20.14109375 29.2734375 21.1796875 C29.27085938 22.17484375 29.26828125 23.17 29.265625 24.1953125 C29.26336914 25.09266113 29.26111328 25.99000977 29.25878906 26.91455078 C28.9162558 30.9984521 27.88903329 34.9993502 27 39 C17.43 39 7.86 39 -2 39 C-1.67 36.69 -1.34 34.38 -1 32 C6.92 32 14.84 32 23 32 C22.9175 28.431875 22.835 24.86375 22.75 21.1875 C22.73420898 20.06625732 22.71841797 18.94501465 22.70214844 17.78979492 C22.6715332 16.90396729 22.64091797 16.01813965 22.609375 15.10546875 C22.58842773 14.19949951 22.56748047 13.29353027 22.54589844 12.36010742 C22.18950485 9.87889481 22.18950485 9.87889481 20.23242188 8.21289062 C17.8396198 6.9128643 16.37260016 6.58473572 13.671875 6.48828125 C12.87265625 6.45283203 12.0734375 6.41738281 11.25 6.38085938 C10.425 6.35830078 9.6 6.33574219 8.75 6.3125 C7.48929688 6.26125977 7.48929688 6.26125977 6.203125 6.20898438 C4.13587796 6.12676432 2.06796126 6.06169843 0 6 C0 4.02 0 2.04 0 0 Z " fill="#FBF8EB" transform="translate(13,9)"/>
<path d="M0 0 C3.37470504 -0.11689626 6.7488843 -0.18747934 10.125 -0.25 C11.07632812 -0.28351562 12.02765625 -0.31703125 13.0078125 -0.3515625 C18.97182359 -0.43439599 22.50975673 -0.08203934 27 4 C27 4.66 27 5.32 27 6 C26.34 6 25.68 6 25 6 C24.34 7.32 23.68 8.64 23 10 C22.36707031 9.51917969 21.73414062 9.03835937 21.08203125 8.54296875 C16.92820529 6.46342343 13.27294797 6.43916983 8.6875 6.3125 C7.85154297 6.27833984 7.01558594 6.24417969 6.15429688 6.20898438 C4.10332228 6.12694539 2.05168462 6.0617849 0 6 C0 4.02 0 2.04 0 0 Z " fill="#FCFCF8" transform="translate(18,11)"/>
<path d="M0 0 C1.15224028 0.92961422 2.29659176 1.8690125 3.4375 2.8125 C4.07558594 3.33457031 4.71367188 3.85664062 5.37109375 4.39453125 C7 6 7 6 8 9 C9.32407669 9.68486725 10.65909241 10.34870203 12 11 C14.25 13 14.25 13 16 15 C16 15.66 16 16.32 16 17 C11.73300282 15.33255693 8.91765082 12.2490961 5.75 9.0625 C5.19570312 8.52431641 4.64140625 7.98613281 4.0703125 7.43164062 C2.65116761 6.01424346 1.31858496 4.51139692 0 3 C0 2.01 0 1.02 0 0 Z " fill="#FECC4F" transform="translate(0,45)"/>
<path d="M0 0 C0.66 0.33 1.32 0.66 2 1 C2 8.59 2 16.18 2 24 C1.67 24 1.34 24 1 24 C1 18.06 1 12.12 1 6 C0.34 6 -0.32 6 -1 6 C-0.67 4.02 -0.34 2.04 0 0 Z " fill="#FEF2E0" transform="translate(45,17)"/>
</svg>
