<?xml version="1.0" encoding="UTF-8"?>
<svg version="1.1" xmlns="http://www.w3.org/2000/svg" width="66" height="56">
<path d="M0 0 C16.83 0 33.66 0 51 0 C51 22.11 51 44.22 51 67 C34.17 67 17.34 67 0 67 C0 44.89 0 22.78 0 0 Z " fill="#B7275F" transform="translate(0,0)"/>
<path d="M0 0 C1.65 0 3.3 0 5 0 C5.268125 0.639375 5.53625 1.27875 5.8125 1.9375 C6.88667752 4.33131686 6.88667752 4.33131686 10 5 C10 5.66 10 6.32 10 7 C10.66 7 11.32 7 12 7 C12 7.66 12 8.32 12 9 C12.59329102 9.26731934 13.18658203 9.53463867 13.79785156 9.81005859 C16.02933245 11.01584993 17.4664799 12.2358095 19.234375 14.0390625 C19.80800781 14.61914062 20.38164062 15.19921875 20.97265625 15.796875 C21.55917969 16.40015625 22.14570313 17.0034375 22.75 17.625 C23.35199219 18.23601563 23.95398438 18.84703125 24.57421875 19.4765625 C26.05405305 20.97988624 27.52764676 22.48934856 29 24 C28.67 24.99 28.34 25.98 28 27 C18.76 27 9.52 27 0 27 C0 18.09 0 9.18 0 0 Z " fill="#B6255E" transform="translate(0,40)"/>
<path d="M0 0 C3.582906 -0.14533755 7.16505417 -0.23407931 10.75 -0.3125 C11.76578125 -0.35439453 12.7815625 -0.39628906 13.828125 -0.43945312 C14.8078125 -0.45556641 15.7875 -0.47167969 16.796875 -0.48828125 C18.14797363 -0.52755737 18.14797363 -0.52755737 19.52636719 -0.56762695 C22 0 22 0 24.30078125 2.04882812 C26.39641037 5.68847825 26.51160216 8.62841899 26.390625 12.70703125 C26.38496521 13.43242599 26.37930542 14.15782074 26.37347412 14.90519714 C26.35119099 17.20832008 26.30101487 19.50985224 26.25 21.8125 C26.22992434 23.37953472 26.21167543 24.94659399 26.1953125 26.51367188 C26.15135337 30.34305519 26.08238623 34.17125846 26 38 C24.35 38 22.7 38 21 38 C20.97494385 37.19780029 20.9498877 36.39560059 20.92407227 35.5690918 C20.80817957 31.94172926 20.68542249 28.31463083 20.5625 24.6875 C20.52318359 23.42486328 20.48386719 22.16222656 20.44335938 20.86132812 C20.40146484 19.65283203 20.35957031 18.44433594 20.31640625 17.19921875 C20.27974854 16.08377686 20.24309082 14.96833496 20.20532227 13.8190918 C20.11068791 10.92126429 20.11068791 10.92126429 19 8 C16.76352369 6.88176185 15.35108471 6.80603939 12.8671875 6.68359375 C12.06152344 6.64169922 11.25585938 6.59980469 10.42578125 6.55664062 C9.58402344 6.51732422 8.74226563 6.47800781 7.875 6.4375 C7.02550781 6.39431641 6.17601562 6.35113281 5.30078125 6.30664062 C3.20071777 6.20045764 1.10038052 6.09971503 -1 6 C-0.67 4.02 -0.34 2.04 0 0 Z " fill="#FAFBFB" transform="translate(13,9)"/>
<path d="M0 0 C0.66 1.32 1.32 2.64 2 4 C1.34 4 0.68 4 0 4 C0 4.99 0 5.98 0 7 C-1.32 7.33 -2.64 7.66 -4 8 C-4.33 7.01 -4.66 6.02 -5 5 C-5.66 4.67 -6.32 4.34 -7 4 C-7 3.34 -7 2.68 -7 2 C-6.01 2 -5.02 2 -4 2 C-3.34 2.66 -2.68 3.32 -2 4 C-1.34 2.68 -0.68 1.36 0 0 Z " fill="#F8EEF3" transform="translate(34,16)"/>
</svg>
