<?xml version="1.0" encoding="UTF-8"?>
<svg version="1.1" xmlns="http://www.w3.org/2000/svg" width="66" height="56">
<path d="M0 0 C21.78 0 43.56 0 66 0 C66 18.48 66 36.96 66 56 C44.22 56 22.44 56 0 56 C0 37.52 0 19.04 0 0 Z " fill="#B7275F" transform="translate(0,0)"/>
<path d="M0 0 C2.31 0 4.62 0 7 0 C7.99 5.94 8.98 11.88 10 18 C14.86132495 17.50847518 14.86132495 17.50847518 17 15 C17.14497985 12.41935871 17.18677545 9.95056116 17.125 7.375 C17.11597656 6.66859375 17.10695313 5.9621875 17.09765625 5.234375 C17.07407603 3.48943902 17.03820461 1.74467705 17 0 C18.99954746 -0.04254356 21.00041636 -0.04080783 23 0 C24.91401523 1.91401523 24.26189296 5.13850348 24.3125 7.6875 C24.23963042 15.65457417 24.23963042 15.65457417 22.375 18.6875 C18.91876186 22.0527845 15.88800834 24 11 24 C11.33 26.64 11.66 29.28 12 32 C14.42182428 31.43370278 16.83597168 30.84792938 19.25 30.25 C19.93191406 30.09273437 20.61382812 29.93546875 21.31640625 29.7734375 C25.61895613 28.68735695 28.27059787 27.54011564 31 24 C32.2229217 20.3312349 32.14563812 16.9430531 32.125 13.125 C32.12886719 12.41730469 32.13273437 11.70960937 32.13671875 10.98046875 C32.12966857 7.19451956 31.90907953 3.67960763 31 0 C33.31 0 35.62 0 38 0 C41.28653769 7.80552701 40.71989858 15.77182998 38.02734375 23.67578125 C35.46047823 29.48294849 32.08521197 32.81169487 26.25 35.3125 C19.95927568 37.5266069 13.67799997 39 7 39 C6.16183955 34.57125354 5.32573049 30.14212602 4.49145508 25.71264648 C4.20782824 24.20831038 3.92365772 22.70407666 3.63891602 21.19995117 C3.22787045 19.02810445 2.81883276 16.85588735 2.41015625 14.68359375 C2.28407486 14.01976181 2.15799347 13.35592987 2.02809143 12.67198181 C1.23786805 8.45828574 0.57917085 4.2464518 0 0 Z " fill="#F9F2F6" transform="translate(13,9)"/>
<path d="M0 0 C2.31 0 4.62 0 7 0 C9.19599193 5.21548084 9.68430858 10.404771 9 16 C8.34 16.66 7.68 17.32 7 18 C6.67 14.04 6.34 10.08 6 6 C5.34 6 4.68 6 4 6 C3.67 9.63 3.34 13.26 3 17 C2.67 17 2.34 17 2 17 C1.34 11.39 0.68 5.78 0 0 Z " fill="#F1DFE7" transform="translate(44,9)"/>
<path d="M0 0 C7.23214286 5.89285714 7.23214286 5.89285714 9 10 C8.38125 9.505 7.7625 9.01 7.125 8.5 C5.16119096 6.80777227 5.16119096 6.80777227 3 7 C3 8.98 3 10.96 3 13 C2.01 13.33 1.02 13.66 0 14 C0 9.38 0 4.76 0 0 Z " fill="#BC386B" transform="translate(37,10)"/>
<path d="M0 0 C2.64194427 2.64194427 2.85205998 4.3014996 3 8 C1.0625 10.375 1.0625 10.375 -1 12 C-2 11 -2 11 -2.09765625 9.15234375 C-2.06510417 7.1015625 -2.03255208 5.05078125 -2 3 C-1.34 3 -0.68 3 0 3 C0 2.01 0 1.02 0 0 Z " fill="#F9FAFA" transform="translate(21,31)"/>
</svg>
