<?xml version="1.0" encoding="UTF-8"?>
<svg version="1.1" xmlns="http://www.w3.org/2000/svg" width="66" height="56">
<path d="M0 0 C20.79 0 41.58 0 63 0 C63 20.13 63 40.26 63 61 C42.21 61 21.42 61 0 61 C0 40.87 0 20.74 0 0 Z " fill="#F97C29" transform="translate(0,0)"/>
<path d="M0 0 C2.30662234 2.42222871 4.0289096 5.18054602 5.8125 8 C6.31458984 8.763125 6.81667969 9.52625 7.33398438 10.3125 C8.57185736 12.19878264 9.79265038 14.09409202 11 16 C14.12197478 14.6910428 14.12197478 14.6910428 16 12 C16.07065617 9.95944995 16.08421976 7.91665743 16.0625 5.875 C16.05347656 4.77929688 16.04445313 3.68359375 16.03515625 2.5546875 C16.02355469 1.71164062 16.01195313 0.86859375 16 0 C18.31 0 20.62 0 23 0 C23.08160748 1.89510699 23.13946459 3.79124504 23.1875 5.6875 C23.23970703 7.27111328 23.23970703 7.27111328 23.29296875 8.88671875 C22.8763548 13.31393636 21.24478473 15.90609827 17.9375 18.8125 C16 20 16 20 14 20 C14.47050781 20.60328125 14.94101562 21.2065625 15.42578125 21.828125 C16.04839844 22.62734375 16.67101562 23.4265625 17.3125 24.25 C18.23482422 25.43335938 18.23482422 25.43335938 19.17578125 26.640625 C19.77777344 27.41921875 20.37976563 28.1978125 21 29 C21.57105469 29.63421875 22.14210938 30.2684375 22.73046875 30.921875 C24 33 24 33 24 39 C14.1 39 4.2 39 -6 39 C-5.505 36.03 -5.505 36.03 -5 33 C1.93 33 8.86 33 16 33 C16 32.34 16 31.68 16 31 C15.01 30.67 14.02 30.34 13 30 C11.08984375 27.734375 11.08984375 27.734375 8.9375 24.75 C8.1442701 23.66069957 7.34995811 22.57218646 6.5546875 21.484375 C6.14057617 20.91525391 5.72646484 20.34613281 5.29980469 19.75976562 C2.69926781 16.23897866 -0.01599432 12.80404248 -2.72485352 9.36621094 C-4.80863873 6.68771991 -6.63051882 4.11313754 -8 1 C-3.06624888 -0.64458371 -3.06624888 -0.64458371 0 0 Z " fill="#FCF8F2" transform="translate(13,9)"/>
<path d="M0 0 C0.33 0.99 0.66 1.98 1 3 C-0.65 4.65 -2.3 6.3 -4 8 C-4.99 7.34 -5.98 6.68 -7 6 C-6.67 5.01 -6.34 4.02 -6 3 C-4.68 3.66 -3.36 4.32 -2 5 C-1.34 3.35 -0.68 1.7 0 0 Z " fill="#F68435" transform="translate(39,20)"/>
<path d="M0 0 C0 0.99 0 1.98 0 3 C-0.66 3 -1.32 3 -2 3 C-2 3.66 -2 4.32 -2 5 C-3.32 4.34 -4.64 3.68 -6 3 C-3.375 0 -3.375 0 0 0 Z " fill="#FCFCFB" transform="translate(38,28)"/>
</svg>
