<?xml version="1.0" encoding="UTF-8"?>
<svg version="1.1" xmlns="http://www.w3.org/2000/svg" width="512" height="512">
<path d="M0 0 C1.27545181 -0.00852997 2.55090363 -0.01705994 3.86500549 -0.02584839 C5.27133191 -0.0251494 6.67765823 -0.02422636 8.08398438 -0.02310181 C9.57100257 -0.02908904 11.05801766 -0.03589504 12.54502869 -0.04345703 C16.58061739 -0.06111304 20.61612125 -0.06581248 24.65174484 -0.0670886 C27.1777611 -0.06851198 29.70375592 -0.0727853 32.22976685 -0.07808304 C41.05634932 -0.0965881 49.88287143 -0.10475382 58.70947266 -0.10317993 C66.91245433 -0.1019812 75.11517174 -0.12302947 83.31808662 -0.15466726 C90.37736805 -0.18091504 97.43656369 -0.19154355 104.49589348 -0.19026911 C108.70438804 -0.1897616 112.91264816 -0.19532629 117.12109375 -0.21662521 C121.08733515 -0.23614924 125.0531221 -0.23603666 129.01938057 -0.22159195 C130.4652327 -0.21951955 131.91111431 -0.22410975 133.35691643 -0.23631287 C151.79700159 -0.38171458 165.93801992 5.37077338 179.36523438 17.90023804 C181.35046213 19.93241374 183.05101124 21.94506423 184.67773438 24.26742554 C185.27199219 23.55457397 185.86625 22.84172241 186.47851562 22.10726929 C196.00525776 11.09891874 207.97751073 2.69397862 222.67773438 0.26742554 C224.79479641 0.17214688 226.91445628 0.12838936 229.03364563 0.12025452 C230.31632324 0.11309921 231.59900085 0.10594391 232.92054749 0.09857178 C234.33480811 0.09573189 235.74906899 0.09302012 237.16333008 0.09042358 C238.65845903 0.08415446 240.15358643 0.07750726 241.64871216 0.07051086 C246.55030239 0.04952559 251.45189275 0.03911527 256.35351562 0.02914429 C258.0438304 0.02509499 259.73414501 0.02097802 261.42445946 0.0167942 C269.36515162 -0.00224346 277.30583456 -0.01647879 285.24654514 -0.02481776 C294.40191605 -0.03459226 303.55704534 -0.06092323 312.71233112 -0.10131866 C319.79700145 -0.13150201 326.88160258 -0.14628864 333.96633595 -0.14959878 C338.19424789 -0.15194624 342.42190126 -0.16086741 346.64974403 -0.18605995 C350.62826145 -0.20938548 354.60635083 -0.21355612 358.58491898 -0.20329857 C360.04094176 -0.20280422 361.49698595 -0.20909479 362.9529438 -0.22285461 C372.12760714 -0.30467677 378.82728149 -0.05911083 385.91992188 6.26742554 C386.45875 6.92742554 386.99757813 7.58742554 387.55273438 8.26742554 C388.10703125 8.92742554 388.66132813 9.58742554 389.23242188 10.26742554 C394.08580508 16.98345851 393.82565656 24.19857272 393.81817627 32.18484497 C393.82263295 33.67653147 393.82263295 33.67653147 393.82717967 35.19835305 C393.83584653 38.52835191 393.83737322 41.85831474 393.83886719 45.18832397 C393.84349675 47.5768949 393.8485216 49.96546509 393.85391235 52.35403442 C393.86702424 58.84174566 393.87351584 65.32945002 393.87792301 71.81717205 C393.88068993 75.87135384 393.88492807 79.92553326 393.88942719 83.97971344 C393.90161563 95.21415431 393.91191613 106.44859328 393.91530228 117.68304062 C393.91552184 118.40141142 393.91574141 119.11978222 393.91596763 119.85992183 C393.91618591 120.57996594 393.91640418 121.30001006 393.91662908 122.04187369 C393.91707254 123.5008467 393.9175191 124.95981972 393.91796875 126.41879272 C393.91819018 127.14248662 393.91841161 127.86618051 393.91863975 128.61180452 C393.92258675 140.33497514 393.94003968 152.05808357 393.96332827 163.78123018 C393.98706906 175.82966311 393.99950535 187.87806485 394.00067019 199.92652154 C394.00158537 206.68628597 394.00729786 213.44596933 394.02548981 220.20571136 C394.04197622 226.56523983 394.04412309 232.92461457 394.0353508 239.2841568 C394.03458076 241.61494865 394.0389187 243.94574878 394.04880905 246.27651978 C394.06154377 249.46521922 394.05564312 252.65337542 394.04522705 255.84207153 C394.05731166 257.21632691 394.05731166 257.21632691 394.0696404 258.61834502 C394.011071 266.31661541 392.89442746 274.76327962 387.49023438 280.64242554 C386.69552734 281.5512146 386.69552734 281.5512146 385.88476562 282.47836304 C378.35062117 288.58568721 371.71695008 288.84351121 362.32373047 288.78158569 C360.9856689 288.78705473 359.64761361 288.79430093 358.30957031 288.80317688 C355.44052837 288.81845475 352.57184371 288.82134052 349.70277023 288.81441116 C345.15307583 288.80356365 340.60374979 288.82108135 336.05410767 288.84222412 C328.84617779 288.87243658 321.63835792 288.88417323 314.43036997 288.88780057 C301.5522423 288.89444556 288.67419297 288.92377916 275.79615843 288.97289693 C271.2873873 288.98925449 266.77877615 288.99483902 262.26997828 288.99130654 C259.44605812 288.99086462 256.62219662 288.99850591 253.79829407 289.00798225 C251.8950011 289.01187664 249.99169564 289.00595191 248.08840942 288.9995575 C230.67149445 289.07976756 214.76615747 291.30549192 201.80664062 303.88070679 C198.64699626 307.42298698 196.12820168 311.21646851 193.67773438 315.26742554 C191.62840878 317.31675113 187.66456566 316.58854514 184.86523438 316.64242554 C184.14013672 316.67980835 183.41503906 316.71719116 182.66796875 316.75570679 C180.53320313 316.79086304 180.53320313 316.79086304 176.67773438 316.26742554 C174.34179687 313.99008179 174.34179687 313.99008179 172.67773438 311.26742554 C172.19691406 310.5984021 171.71609375 309.92937866 171.22070312 309.24008179 C170.77339844 308.60973022 170.32609375 307.97937866 169.86523438 307.32992554 C162.49676931 297.57862351 151.81096365 291.69377095 139.63478947 289.97986221 C132.42109193 289.19741967 125.26820511 289.12917373 118.01733398 289.14144897 C116.67087241 289.14005092 115.32441128 289.13814949 113.97795105 289.13578796 C111.09812505 289.13132284 108.21831318 289.1294356 105.33848381 289.12932587 C100.77750478 289.12817668 96.21660505 289.11527605 91.65565491 289.09976196 C90.88294579 289.09718911 90.11023667 289.09461626 89.31411213 289.09196544 C87.73523388 289.08670004 86.15635569 289.08141456 84.57747757 289.07610941 C73.97408303 289.04110578 63.3707913 289.01445135 52.76733398 289.01693726 C45.59289339 289.01852873 38.41872776 289.00243185 31.24437529 288.96623063 C27.4563387 288.94783318 23.66876102 288.93837394 19.88068962 288.95070648 C16.31887248 288.96219316 12.75787716 288.95032497 9.1961689 288.92107201 C7.27882204 288.91133609 5.3613988 288.92614262 3.4440918 288.94187927 C-4.92934885 288.84187889 -11.06765346 287.38364264 -17.19714451 281.45353317 C-23.06620839 275.12066507 -23.61645143 269.44323297 -23.58969116 261.0771637 C-23.59422228 260.0413138 -23.59875339 259.0054639 -23.60342181 257.93822461 C-23.61609673 254.46221973 -23.61444342 250.98637091 -23.61279297 247.51034546 C-23.61877628 245.0201548 -23.62558137 242.52996601 -23.63314819 240.03977966 C-23.6489977 233.97443944 -23.65525746 227.90916072 -23.65637295 221.84380551 C-23.65732375 216.91263731 -23.66143564 211.98148192 -23.6677742 207.05031776 C-23.68538517 193.06464509 -23.69461334 179.0790031 -23.69311325 165.09331926 C-23.69303334 164.33955119 -23.69295343 163.58578311 -23.69287109 162.80917358 C-23.69278933 162.05448342 -23.69270757 161.29979326 -23.69262333 160.5222337 C-23.69181055 148.2932351 -23.71094669 136.0643597 -23.73914783 123.83539673 C-23.76788668 111.27397318 -23.78168756 98.71260969 -23.77996027 86.15115243 C-23.7792967 79.10078339 -23.78477453 72.05054349 -23.80631638 65.00020409 C-23.82644796 58.36899956 -23.82584421 51.73802108 -23.81128311 45.10678673 C-23.80919007 42.67356468 -23.81392527 40.24032569 -23.82600403 37.80713272 C-23.8414316 34.48397989 -23.83216374 31.16177071 -23.81674194 27.83863831 C-23.82702907 26.87705077 -23.8373162 25.91546323 -23.84791505 24.92473668 C-23.7745473 17.76450304 -22.1168423 12.45646532 -17.35742188 7.02523804 C-16.70644531 6.48640991 -16.05546875 5.94758179 -15.38476562 5.39242554 C-14.73636719 4.83812866 -14.08796875 4.28383179 -13.41992188 3.71273804 C-9.04283055 0.69686505 -5.26785455 0.01595276 0 0 Z " fill="#E0EAF3" transform="translate(71.322265625,95.73257446289063)"/>
<path d="M0 0 C1.22673935 -0.00860046 2.4534787 -0.01720093 3.71739197 -0.02606201 C5.07392841 -0.03049675 6.4304653 -0.03479516 7.78700256 -0.03897095 C9.21788734 -0.04687585 10.64877015 -0.05514505 12.07965088 -0.06375122 C16.77383026 -0.08991578 21.46801834 -0.10526844 26.1622467 -0.11953735 C27.77926196 -0.12489841 29.39627716 -0.13027592 31.01329231 -0.13566971 C37.73801241 -0.15728593 44.46273014 -0.17602405 51.18747616 -0.1872921 C60.82243948 -0.20354414 70.45700043 -0.23676635 80.09181207 -0.29369295 C86.86898493 -0.33237102 93.64605003 -0.35192195 100.42333037 -0.35721266 C104.4707063 -0.36086769 108.51765252 -0.37290527 112.56490898 -0.4053154 C116.37111421 -0.43536077 120.17662885 -0.44172104 123.98292732 -0.42993164 C125.37894387 -0.42971064 126.77499216 -0.43803814 128.17089844 -0.45558548 C130.07807174 -0.47825347 131.98555791 -0.467005 133.89282227 -0.45410156 C134.95967223 -0.45741171 136.0265222 -0.46072186 137.12570095 -0.46413231 C141.23418965 0.4162427 142.60215802 1.71530135 145.00990295 5.15390015 C145.7205263 8.45108869 145.67205172 11.66707 145.62463379 15.02940369 C145.63031704 16.03132388 145.6360003 17.03324407 145.64185578 18.06552547 C145.65478718 21.42686624 145.63194328 24.78700963 145.60926819 28.14828491 C145.61113171 30.55629733 145.6151672 32.96430891 145.62121582 35.37231445 C145.63016918 41.2359003 145.61594352 47.09916045 145.59107756 52.96267504 C145.5631472 59.79007508 145.56180457 66.61740238 145.56163455 73.44485008 C145.56044725 85.62553158 145.53547585 97.80604807 145.4969635 109.98666382 C145.45961033 121.80829854 145.43836739 133.62981326 145.43544006 145.45150757 C145.43525725 146.17974625 145.43507444 146.90798494 145.43488609 147.65829147 C145.43470712 148.38526699 145.43452815 149.11224251 145.43434376 149.8612476 C145.43397834 151.32494358 145.43360597 152.78863957 145.43322659 154.25233555 C145.43294831 155.33508141 145.43294831 155.33508141 145.43266442 156.43970094 C145.42909461 167.70329958 145.41064426 178.96687967 145.39073334 190.23045947 C145.38371017 194.3137786 145.3789278 198.39709333 145.37577199 202.4804172 C145.37025226 209.56185293 145.35459199 216.64319202 145.32758522 223.72458267 C145.32013089 226.07884456 145.31607237 228.43311993 145.31560516 230.78739357 C145.31435183 233.99350035 145.30084067 237.19932266 145.28405762 240.40538025 C145.2864727 241.34360062 145.28888779 242.28182099 145.29137605 243.24847227 C145.28431046 244.10678489 145.27724487 244.9650975 145.26996517 245.84941959 C145.26801425 246.5894422 145.26606333 247.3294648 145.26405329 248.09191233 C144.9681261 250.49284666 144.25825395 252.09104273 143.00990295 254.15390015 C139.84788285 256.36248556 137.07290026 256.40420448 133.28364563 256.40545654 C131.5304879 256.41353081 131.5304879 256.41353081 129.74191284 256.42176819 C127.82350838 256.4155822 127.82350838 256.4155822 125.86634827 256.40927124 C124.50257152 256.41202218 123.13879638 256.41570271 121.77502441 256.42024231 C118.83779487 256.42835292 115.90064145 256.43052294 112.96340179 256.42829514 C108.30433986 256.42545565 103.64542885 256.43984188 98.98640442 256.45727539 C85.73726203 256.50422855 72.48812874 256.52820725 59.23890686 256.53475952 C51.92128506 256.53853111 44.6038332 256.55673436 37.28628421 256.58985388 C33.42141342 256.60663627 29.55685146 256.61597105 25.69194794 256.60691452 C-1.42676719 256.38375875 -1.42676719 256.38375875 -26.80259705 265.21640015 C-27.46839783 265.55477905 -28.13419861 265.89315796 -28.82017517 266.24179077 C-31.9994538 267.89706474 -34.54299472 269.54419966 -36.99009705 272.15390015 C-37.65009705 272.15390015 -38.31009705 272.15390015 -38.99009705 272.15390015 C-39.10428396 241.65622366 -39.19270921 211.15859631 -39.24542369 180.66075696 C-39.25167685 177.0560947 -39.2581485 173.45143287 -39.26475525 169.84677124 C-39.2660668 169.12918081 -39.26737835 168.41159037 -39.26872965 167.67225477 C-39.29045637 156.06964722 -39.32986269 144.46716418 -39.37586103 132.86463037 C-39.42270202 120.94972944 -39.45040854 109.0348935 -39.46053952 97.11990428 C-39.46677053 90.43143318 -39.48231917 83.74326136 -39.51874733 77.05487823 C-39.55278315 70.75446095 -39.56313442 64.45444069 -39.55563545 58.1539402 C-39.55700658 55.84655154 -39.56689324 53.53914906 -39.58612442 51.23184013 C-39.70290023 36.4935965 -39.68115872 24.15193844 -28.8690033 12.89608765 C-20.5597149 5.19142522 -11.50029006 0.06008879 0 0 Z " fill="#E0EAF3" transform="translate(302.99009704589844,111.84609985351563)"/>
<path d="M0 0 C1.27545181 -0.00852997 2.55090363 -0.01705994 3.86500549 -0.02584839 C5.27133191 -0.0251494 6.67765823 -0.02422636 8.08398438 -0.02310181 C9.57100257 -0.02908904 11.05801766 -0.03589504 12.54502869 -0.04345703 C16.58061739 -0.06111304 20.61612125 -0.06581248 24.65174484 -0.0670886 C27.1777611 -0.06851198 29.70375592 -0.0727853 32.22976685 -0.07808304 C41.05634932 -0.0965881 49.88287143 -0.10475382 58.70947266 -0.10317993 C66.91245433 -0.1019812 75.11517174 -0.12302947 83.31808662 -0.15466726 C90.37736805 -0.18091504 97.43656369 -0.19154355 104.49589348 -0.19026911 C108.70438804 -0.1897616 112.91264816 -0.19532629 117.12109375 -0.21662521 C121.08733515 -0.23614924 125.0531221 -0.23603666 129.01938057 -0.22159195 C130.4652327 -0.21951955 131.91111431 -0.22410975 133.35691643 -0.23631287 C151.79700159 -0.38171458 165.93801992 5.37077338 179.36523438 17.90023804 C181.35046213 19.93241374 183.05101124 21.94506423 184.67773438 24.26742554 C185.27199219 23.55457397 185.86625 22.84172241 186.47851562 22.10726929 C196.00525776 11.09891874 207.97751073 2.69397862 222.67773438 0.26742554 C224.79479641 0.17214688 226.91445628 0.12838936 229.03364563 0.12025452 C230.31632324 0.11309921 231.59900085 0.10594391 232.92054749 0.09857178 C234.33480811 0.09573189 235.74906899 0.09302012 237.16333008 0.09042358 C238.65845903 0.08415446 240.15358643 0.07750726 241.64871216 0.07051086 C246.55030239 0.04952559 251.45189275 0.03911527 256.35351562 0.02914429 C258.0438304 0.02509499 259.73414501 0.02097802 261.42445946 0.0167942 C269.36515162 -0.00224346 277.30583456 -0.01647879 285.24654514 -0.02481776 C294.40191605 -0.03459226 303.55704534 -0.06092323 312.71233112 -0.10131866 C319.79700145 -0.13150201 326.88160258 -0.14628864 333.96633595 -0.14959878 C338.19424789 -0.15194624 342.42190126 -0.16086741 346.64974403 -0.18605995 C350.62826145 -0.20938548 354.60635083 -0.21355612 358.58491898 -0.20329857 C360.04094176 -0.20280422 361.49698595 -0.20909479 362.9529438 -0.22285461 C372.12760714 -0.30467677 378.82728149 -0.05911083 385.91992188 6.26742554 C386.45875 6.92742554 386.99757813 7.58742554 387.55273438 8.26742554 C388.10703125 8.92742554 388.66132813 9.58742554 389.23242188 10.26742554 C394.08580508 16.98345851 393.82565656 24.19857272 393.81817627 32.18484497 C393.82263295 33.67653147 393.82263295 33.67653147 393.82717967 35.19835305 C393.83584653 38.52835191 393.83737322 41.85831474 393.83886719 45.18832397 C393.84349675 47.5768949 393.8485216 49.96546509 393.85391235 52.35403442 C393.86702424 58.84174566 393.87351584 65.32945002 393.87792301 71.81717205 C393.88068993 75.87135384 393.88492807 79.92553326 393.88942719 83.97971344 C393.90161563 95.21415431 393.91191613 106.44859328 393.91530228 117.68304062 C393.91552184 118.40141142 393.91574141 119.11978222 393.91596763 119.85992183 C393.91618591 120.57996594 393.91640418 121.30001006 393.91662908 122.04187369 C393.91707254 123.5008467 393.9175191 124.95981972 393.91796875 126.41879272 C393.91819018 127.14248662 393.91841161 127.86618051 393.91863975 128.61180452 C393.92258675 140.33497514 393.94003968 152.05808357 393.96332827 163.78123018 C393.98706906 175.82966311 393.99950535 187.87806485 394.00067019 199.92652154 C394.00158537 206.68628597 394.00729786 213.44596933 394.02548981 220.20571136 C394.04197622 226.56523983 394.04412309 232.92461457 394.0353508 239.2841568 C394.03458076 241.61494865 394.0389187 243.94574878 394.04880905 246.27651978 C394.06154377 249.46521922 394.05564312 252.65337542 394.04522705 255.84207153 C394.05731166 257.21632691 394.05731166 257.21632691 394.0696404 258.61834502 C394.011071 266.31661541 392.89442746 274.76327962 387.49023438 280.64242554 C386.69552734 281.5512146 386.69552734 281.5512146 385.88476562 282.47836304 C378.35062117 288.58568721 371.71695008 288.84351121 362.32373047 288.78158569 C360.9856689 288.78705473 359.64761361 288.79430093 358.30957031 288.80317688 C355.44052837 288.81845475 352.57184371 288.82134052 349.70277023 288.81441116 C345.15307583 288.80356365 340.60374979 288.82108135 336.05410767 288.84222412 C328.84617779 288.87243658 321.63835792 288.88417323 314.43036997 288.88780057 C301.5522423 288.89444556 288.67419297 288.92377916 275.79615843 288.97289693 C271.2873873 288.98925449 266.77877615 288.99483902 262.26997828 288.99130654 C259.44605812 288.99086462 256.62219662 288.99850591 253.79829407 289.00798225 C251.8950011 289.01187664 249.99169564 289.00595191 248.08840942 288.9995575 C230.67149445 289.07976756 214.76615747 291.30549192 201.80664062 303.88070679 C198.64699626 307.42298698 196.12820168 311.21646851 193.67773438 315.26742554 C191.62840878 317.31675113 187.66456566 316.58854514 184.86523438 316.64242554 C184.14013672 316.67980835 183.41503906 316.71719116 182.66796875 316.75570679 C180.53320313 316.79086304 180.53320313 316.79086304 176.67773438 316.26742554 C174.34179687 313.99008179 174.34179687 313.99008179 172.67773438 311.26742554 C172.19691406 310.5984021 171.71609375 309.92937866 171.22070312 309.24008179 C170.77339844 308.60973022 170.32609375 307.97937866 169.86523438 307.32992554 C162.49676931 297.57862351 151.81096365 291.69377095 139.63478947 289.97986221 C132.42109193 289.19741967 125.26820511 289.12917373 118.01733398 289.14144897 C116.67087241 289.14005092 115.32441128 289.13814949 113.97795105 289.13578796 C111.09812505 289.13132284 108.21831318 289.1294356 105.33848381 289.12932587 C100.77750478 289.12817668 96.21660505 289.11527605 91.65565491 289.09976196 C90.88294579 289.09718911 90.11023667 289.09461626 89.31411213 289.09196544 C87.73523388 289.08670004 86.15635569 289.08141456 84.57747757 289.07610941 C73.97408303 289.04110578 63.3707913 289.01445135 52.76733398 289.01693726 C45.59289339 289.01852873 38.41872776 289.00243185 31.24437529 288.96623063 C27.4563387 288.94783318 23.66876102 288.93837394 19.88068962 288.95070648 C16.31887248 288.96219316 12.75787716 288.95032497 9.1961689 288.92107201 C7.27882204 288.91133609 5.3613988 288.92614262 3.4440918 288.94187927 C-4.92934885 288.84187889 -11.06765346 287.38364264 -17.19714451 281.45353317 C-23.06620839 275.12066507 -23.61645143 269.44323297 -23.58969116 261.0771637 C-23.59422228 260.0413138 -23.59875339 259.0054639 -23.60342181 257.93822461 C-23.61609673 254.46221973 -23.61444342 250.98637091 -23.61279297 247.51034546 C-23.61877628 245.0201548 -23.62558137 242.52996601 -23.63314819 240.03977966 C-23.6489977 233.97443944 -23.65525746 227.90916072 -23.65637295 221.84380551 C-23.65732375 216.91263731 -23.66143564 211.98148192 -23.6677742 207.05031776 C-23.68538517 193.06464509 -23.69461334 179.0790031 -23.69311325 165.09331926 C-23.69303334 164.33955119 -23.69295343 163.58578311 -23.69287109 162.80917358 C-23.69278933 162.05448342 -23.69270757 161.29979326 -23.69262333 160.5222337 C-23.69181055 148.2932351 -23.71094669 136.0643597 -23.73914783 123.83539673 C-23.76788668 111.27397318 -23.78168756 98.71260969 -23.77996027 86.15115243 C-23.7792967 79.10078339 -23.78477453 72.05054349 -23.80631638 65.00020409 C-23.82644796 58.36899956 -23.82584421 51.73802108 -23.81128311 45.10678673 C-23.80919007 42.67356468 -23.81392527 40.24032569 -23.82600403 37.80713272 C-23.8414316 34.48397989 -23.83216374 31.16177071 -23.81674194 27.83863831 C-23.82702907 26.87705077 -23.8373162 25.91546323 -23.84791505 24.92473668 C-23.7745473 17.76450304 -22.1168423 12.45646532 -17.35742188 7.02523804 C-16.70644531 6.48640991 -16.05546875 5.94758179 -15.38476562 5.39242554 C-14.73636719 4.83812866 -14.08796875 4.28383179 -13.41992188 3.71273804 C-9.04283055 0.69686505 -5.26785455 0.01595276 0 0 Z M-7.32226562 21.26742554 C-8.03664517 24.56165491 -7.99297755 27.77587202 -7.95045471 31.13619995 C-7.9575491 32.13741457 -7.96464349 33.1386292 -7.97195286 34.17018366 C-7.98957193 37.52915857 -7.97140724 40.88698236 -7.95336914 44.24594116 C-7.95850643 46.65233386 -7.96578626 49.0587228 -7.97505188 51.46510315 C-7.99167131 57.32499301 -7.98491518 63.18457851 -7.96696366 69.04443872 C-7.95293735 73.8068867 -7.9490449 78.56924416 -7.95240593 83.33171082 C-7.95288337 84.00955326 -7.95336081 84.68739569 -7.95385272 85.38577881 C-7.95487906 86.76280751 -7.95593441 88.13983618 -7.95701849 89.51686484 C-7.96558591 101.69306247 -7.9489093 113.86909911 -7.91918945 126.04525757 C-7.89035189 137.860105 -7.8832684 149.67472053 -7.89868164 161.48959351 C-7.91544306 174.35551833 -7.91947866 187.22133303 -7.90197128 200.08726072 C-7.90012689 201.45922056 -7.89829217 202.8311804 -7.89646721 204.20314026 C-7.89555512 204.87816878 -7.89464303 205.55319729 -7.8937033 206.24868122 C-7.88809751 211.00533985 -7.89140546 215.76194474 -7.89801216 220.51860046 C-7.90655144 226.92083734 -7.89358728 233.32281499 -7.86616325 239.72500038 C-7.85926588 242.07722797 -7.85919584 244.42948675 -7.86637878 246.78171349 C-7.87504211 249.9877353 -7.85916922 253.1927165 -7.83692932 256.39865112 C-7.84517009 257.33395865 -7.85341086 258.26926618 -7.86190134 259.23291636 C-7.80782882 263.44364248 -7.69000117 265.6785026 -5.41509914 269.32172394 C-2.13329633 272.37280704 -0.25339344 272.39436653 4.13897705 272.40545654 C5.29947571 272.41090988 6.45997437 272.41636322 7.65563965 272.42198181 C8.93555786 272.42302414 10.21547607 272.42406647 11.53417969 272.42514038 C12.89105392 272.42980817 14.24792659 272.43495167 15.60479736 272.4405365 C18.53276676 272.45182969 21.4607259 272.46025845 24.38871002 272.46665573 C29.03023554 272.47734374 33.67168833 272.49759561 38.31317139 272.51977539 C51.51441067 272.58165686 64.71564751 272.63555041 77.91699219 272.66879272 C85.20380518 272.68722226 92.49049794 272.71627022 99.77722239 272.75679743 C103.62858352 272.77774575 107.47979384 272.79330707 111.3312149 272.79560471 C114.96581659 272.79777519 118.60010549 272.81388449 122.23461151 272.83999443 C124.18087512 272.85045058 126.12720021 272.84647179 128.07348633 272.84181213 C145.02890181 272.99929388 159.54532123 277.48473345 173.59570312 286.91195679 C175.40334556 288.35835823 175.40334556 288.35835823 176.67773438 288.26742554 C176.76906654 257.75271361 176.83981522 227.23803307 176.88199569 196.72321702 C176.88699827 193.11726612 176.89217558 189.51131549 176.89746094 185.90536499 C176.8990348 184.82858587 176.8990348 184.82858587 176.90064046 183.73005364 C176.91802598 172.12032785 176.9495534 160.51068162 176.98634556 148.90100297 C177.02380666 136.980454 177.04598113 125.05994659 177.05408835 113.13934118 C177.05907509 106.44703613 177.07152696 99.75492241 177.1006546 93.06267357 C177.12786433 86.75983475 177.13616798 80.45724989 177.1301651 74.15435791 C177.13126283 71.84494457 177.13918326 69.53552248 177.15455627 67.22616005 C177.25120992 51.95370925 177.27685497 40.02963206 166.10742188 28.49398804 C157.74977297 20.83504933 148.16194755 16.17369614 136.7256012 16.11352539 C135.507276 16.10492493 134.28895081 16.09632446 133.03370667 16.08746338 C131.68661542 16.08302864 130.33952372 16.07873024 128.99243164 16.07455444 C127.57139894 16.06664947 126.15036823 16.05838027 124.7293396 16.04977417 C120.06762597 16.02361044 115.40590358 16.00825705 110.74414062 15.99398804 C109.13826937 15.98862695 107.53239817 15.98324944 105.92652702 15.97785568 C99.24813012 15.9562396 92.5697356 15.93750149 85.8913126 15.92623329 C76.32291112 15.90998132 66.75491481 15.87675915 57.18666607 15.81983244 C50.45620196 15.78115372 43.72584635 15.76160337 36.99527401 15.75631273 C32.97584247 15.75265779 28.95684365 15.74062119 24.93753242 15.70820999 C21.15759064 15.67816347 17.37834425 15.67180475 13.59830856 15.68359375 C12.21196718 15.68381474 10.82559382 15.67548803 9.43936348 15.65793991 C7.54532832 15.63527004 5.65097808 15.64652097 3.7568512 15.65942383 C2.16763776 15.65445861 2.16763776 15.65445861 0.54631901 15.64939308 C-3.5506703 16.53208357 -4.91827148 17.8397616 -7.32226562 21.26742554 Z M200.24804688 31.20101929 C196.0186444 36.76657627 192.55102496 44.35180727 192.55468655 51.40035534 C192.5526955 52.24582682 192.55070445 53.0912983 192.54865307 53.96239012 C192.55156591 54.89137014 192.55447875 55.82035015 192.55747986 56.77748108 C192.55662543 57.76418047 192.55577101 58.75087987 192.55489069 59.76747924 C192.55323765 63.08868723 192.55875444 66.40984521 192.56420898 69.73104858 C192.56449092 72.10584512 192.564333 74.48064175 192.56376648 76.85543823 C192.56350866 82.64430311 192.56785336 88.43315149 192.57420414 94.2220126 C192.58134629 100.95698181 192.58284875 107.69194865 192.58399231 114.42692111 C192.58618172 126.43796839 192.59283883 138.44900889 192.60229492 150.46005249 C192.61147189 162.12867194 192.61855133 173.79728954 192.62280273 185.46591187 C192.62306546 186.18498963 192.62332818 186.90406739 192.62359887 187.64493539 C192.62490389 191.25228465 192.6261676 194.85963392 192.62741077 198.4669832 C192.63777994 228.40046873 192.65546953 258.33394634 192.67773438 288.26742554 C195.66770308 286.8040523 198.49969768 285.17362128 201.34765625 283.4493103 C212.01376192 277.07174519 223.17750476 273.16967009 235.72525024 273.12266541 C236.91411331 273.11576691 238.10297638 273.10886841 239.3278656 273.10176086 C240.6184639 273.09914749 241.90906219 273.09653412 243.23876953 273.09384155 C244.62231146 273.08752998 246.00585137 273.08076352 247.38938904 273.07357788 C250.36041466 273.05895388 253.33143268 273.04721097 256.30247879 273.03763008 C261.0003855 273.02213591 265.69822573 272.9981893 270.39608765 272.97273254 C283.75197145 272.90163257 297.10789214 272.84167005 310.46386719 272.7906189 C317.8465427 272.76232538 325.22915085 272.72695646 332.61175573 272.68396515 C337.28216176 272.65719409 341.95249171 272.63928889 346.62295938 272.6279279 C349.52617541 272.61880662 352.42929868 272.60144812 355.3324604 272.58174896 C357.32116785 272.57070569 359.30992238 272.56952377 361.29866028 272.56861877 C362.4818837 272.55890045 363.66510712 272.54918213 364.88418579 272.53916931 C366.42663939 272.5328214 366.42663939 272.5328214 368.00025368 272.52634525 C370.79705273 272.25588713 372.3812784 271.87362092 374.67773438 270.26742554 C376.40526465 267.41217931 376.92905285 265.27961608 376.93779659 261.96294498 C376.94486218 261.10463237 376.95192778 260.24631975 376.95920748 259.36199766 C376.95679239 258.4237773 376.95437731 257.48555693 376.95188904 256.51890564 C376.95712572 255.51854544 376.9623624 254.51818524 376.96775776 253.4875111 C376.98279428 250.12577905 376.98346372 246.76419871 376.98413086 243.4024353 C376.99174978 240.99619285 377.00017681 238.58995284 377.00935364 236.18371582 C377.03132944 229.64043457 377.04012306 223.09718935 377.04518008 216.55387998 C377.04843728 212.46858757 377.05495981 208.38330458 377.06218147 204.2980175 C377.08174456 192.98730173 377.09815109 181.67659472 377.10105801 170.36586094 C377.10124558 169.64219448 377.10143315 168.91852801 377.1016264 168.17293226 C377.10199265 166.7058938 377.10235635 165.23885533 377.10271751 163.77181686 C377.10290032 163.04357817 377.10308313 162.31533948 377.10327148 161.56503296 C377.10345203 160.8359059 377.10363258 160.10677884 377.1038186 159.35555702 C377.10736199 147.53506381 377.13439585 135.71475259 377.17176937 123.89432252 C377.20983181 111.7589588 377.22921532 99.62368544 377.22951752 87.48826069 C377.23010247 80.67435473 377.23861904 73.86066598 377.26751518 67.04681587 C377.29455829 60.64049944 377.29595155 54.23450031 377.27985954 47.82814407 C377.27803793 45.47428514 377.28479953 43.12040192 377.30067825 40.76659584 C377.3210061 37.55819078 377.31066433 34.35131296 377.29246521 31.14292908 C377.31226516 29.73894461 377.31226516 29.73894461 377.33246511 28.30659682 C377.27560973 23.93180593 377.08887435 21.85355041 374.51868725 18.18946838 C371.22245063 15.95940393 369.55721541 15.64142561 365.60775757 15.63923645 C364.38831451 15.62658249 363.16887146 15.61392853 361.91247559 15.60089111 C360.56908754 15.61220674 359.22570372 15.62403419 357.88232422 15.63632202 C356.46101997 15.63118116 355.0397221 15.62389861 353.61843872 15.61463928 C349.76250711 15.59612767 345.90726724 15.6090658 342.05136442 15.62872958 C338.00726766 15.64513885 333.96321396 15.63629913 329.9190979 15.63121033 C323.12157178 15.62668879 316.32432073 15.64255508 309.52685547 15.67050171 C301.68960593 15.70247672 293.85285459 15.70256819 286.01557004 15.68528694 C278.45873856 15.66936327 270.90208812 15.67619778 263.34526443 15.69322395 C260.13897451 15.70006236 256.93283112 15.69909499 253.72654343 15.691679 C249.9391652 15.6839581 246.15234596 15.69632892 242.36506271 15.72352791 C240.3287858 15.73358667 238.29244134 15.72428669 236.25616455 15.71420288 C221.96582475 15.86127697 210.20834087 20.84694623 200.24804688 31.20101929 Z " fill="#2D4356" transform="translate(71.322265625,95.73257446289063)"/>
<path d="M0 0 C1.03930664 0.01353516 1.03930664 0.01353516 2.09960938 0.02734375 C3.79572395 0.05073843 5.49165871 0.08660359 7.1875 0.125 C7.19081015 1.32506557 7.19412029 2.52513115 7.19753075 3.76156235 C7.27663927 32.28276319 7.36589346 60.80392042 7.46755161 89.32504956 C7.48006968 92.83958356 7.49250258 96.35411786 7.50488281 99.86865234 C7.50734881 100.56829909 7.5098148 101.26794584 7.51235552 101.988794 C7.5520216 113.30032888 7.58479608 124.61187368 7.61499982 135.92343733 C7.6461724 147.54005284 7.68495214 159.15662469 7.73029006 170.7731936 C7.75550025 177.29385951 7.77729773 183.814496 7.79084396 190.33519745 C7.80371401 196.47797354 7.82582161 202.62064844 7.85488319 208.76336861 C7.86392038 211.01267207 7.86964014 213.26199182 7.87171364 215.51131248 C7.37389266 235.12157556 7.37389266 235.12157556 13.0625 253.5625 C13.55492187 254.50996094 14.04734375 255.45742188 14.5546875 256.43359375 C19.74142307 264.98302152 27.25028897 270.63867719 36.7890625 273.6171875 C44.76105549 275.30506875 52.64074967 275.26448588 60.75683594 275.25097656 C62.11783913 275.25237372 63.47884189 275.25427458 64.83984375 275.25663757 C67.75789489 275.26111287 70.67593204 275.26299017 73.59398651 275.26309967 C78.2186382 275.26424699 82.84321132 275.27713615 87.46783447 275.29266357 C88.25087314 275.29523643 89.03391181 275.29780928 89.84067893 275.3004601 C91.44121049 275.30572604 93.04174199 275.31101152 94.64227343 275.31631613 C105.3972705 275.35132079 116.15216765 275.37798007 126.90722656 275.37548828 C134.17799922 275.37389438 141.44850107 275.39005507 148.71918702 275.42619491 C152.55820794 275.4445622 156.3967772 275.45407899 160.23583221 275.44171906 C163.85097666 275.43019129 167.46531482 275.44219498 171.08035278 275.47135353 C173.01980428 275.48104178 174.95933115 275.46632391 176.89874268 275.45054626 C186.31220895 275.56070129 194.68339617 277.44584567 202.109375 283.51171875 C202.71265625 284.27097656 203.3159375 285.03023438 203.9375 285.8125 C204.57171875 286.57949219 205.2059375 287.34648437 205.859375 288.13671875 C207.1875 290.125 207.1875 290.125 207.1875 292.125 C179.29318061 292.21844344 151.39888469 292.28897936 123.50444031 292.33224869 C110.55254891 292.35287343 97.60075476 292.38099255 84.64892578 292.42675781 C73.36004763 292.46662803 62.07123992 292.49243345 50.78229332 292.50135398 C44.80492814 292.50656836 38.82776446 292.51882261 32.85046387 292.54792023 C27.22312486 292.575092 21.59607017 292.5834413 15.9686718 292.57743073 C13.90471794 292.57853016 11.84075446 292.58647337 9.77685738 292.6018219 C6.95481336 292.62177716 4.13383725 292.61691883 1.31176758 292.60601807 C0.49851643 292.61766943 -0.31473473 292.6293208 -1.15262985 292.64132524 C-7.83503696 292.57174375 -13.00929892 290.58146366 -18.0546875 286.16015625 C-18.59351563 285.50917969 -19.13234375 284.85820312 -19.6875 284.1875 C-20.24179687 283.53910156 -20.79609375 282.89070313 -21.3671875 282.22265625 C-25.24334229 276.59699376 -25.10074684 271.39688182 -25.07992554 264.78288269 C-25.08445665 263.73069858 -25.08898776 262.67851448 -25.09365618 261.594446 C-25.10633243 258.0631637 -25.10467771 254.53203499 -25.10302734 251.00073242 C-25.10901057 248.47113343 -25.11581564 245.94153627 -25.12338257 243.41194153 C-25.13923277 237.2503503 -25.14549187 231.08881547 -25.14660732 224.92720576 C-25.14755809 219.91785304 -25.15166978 214.90851293 -25.15800858 209.8991642 C-25.17561976 195.69214152 -25.18484768 181.48514903 -25.18334763 167.27811535 C-25.18326772 166.5123993 -25.1831878 165.74668324 -25.18310547 164.95776367 C-25.18302371 164.19111105 -25.18294195 163.42445843 -25.18285771 162.63457391 C-25.18204491 150.21158035 -25.20118125 137.78870805 -25.2293822 125.36574956 C-25.25812003 112.60544396 -25.27192199 99.84519749 -25.27019465 87.08485872 C-25.26953104 79.92270779 -25.27501039 72.76068399 -25.29655075 65.59856224 C-25.31668078 58.86226905 -25.31607969 52.12628877 -25.30151749 45.38996696 C-25.29942425 42.9180436 -25.30416075 40.44610357 -25.3162384 37.97420883 C-25.33166327 34.59851216 -25.32239985 31.22374476 -25.30697632 27.84806824 C-25.31726344 26.87091691 -25.32755057 25.89376558 -25.33814943 24.8870036 C-25.26540588 17.67748853 -23.64148534 12.35330534 -18.84765625 6.8828125 C-18.19667969 6.34398437 -17.54570312 5.80515625 -16.875 5.25 C-16.22660156 4.69570312 -15.57820312 4.14140625 -14.91015625 3.5703125 C-10.08507712 0.24577008 -5.74122489 -0.14284387 0 0 Z " fill="#2D4356" transform="translate(24.8125,123.875)"/>
<path d="M0 0 C2.40642163 -0.04063376 4.81215018 -0.07031996 7.21875 -0.09375 C7.89647461 -0.10631836 8.57419922 -0.11888672 9.27246094 -0.13183594 C16.11349144 -0.18177047 20.0686964 1.20299915 24.9609375 5.87109375 C31.36261382 12.78229125 32.29641273 18.13417827 32.26742554 27.34211731 C32.27195665 28.39430142 32.27648776 29.44648552 32.28115618 30.530554 C32.29383243 34.0618363 32.29217771 37.59296501 32.29052734 41.12426758 C32.29651057 43.65386657 32.30331564 46.18346373 32.31088257 48.71305847 C32.32673277 54.8746497 32.33299187 61.03618453 32.33410732 67.19779424 C32.33505809 72.20714696 32.33916978 77.21648707 32.34550858 82.2258358 C32.36311976 96.43285848 32.37234768 110.63985097 32.37084763 124.84688465 C32.37076772 125.6126007 32.3706878 126.37831676 32.37060547 127.16723633 C32.37052371 127.93388895 32.37044195 128.70054157 32.37035771 129.49042609 C32.36954491 141.91341965 32.38868125 154.33629195 32.4168822 166.75925044 C32.44562003 179.51955604 32.45942199 192.27980251 32.45769465 205.04014128 C32.45703104 212.20229221 32.46251039 219.36431601 32.48405075 226.52643776 C32.50418078 233.26273095 32.50357969 239.99871123 32.48901749 246.73503304 C32.48692425 249.2069564 32.49166075 251.67889643 32.5037384 254.15079117 C32.51916327 257.52648784 32.50989985 260.90125524 32.49447632 264.27693176 C32.50476344 265.25408309 32.51505057 266.23123442 32.52564943 267.2379964 C32.45290588 274.44751147 30.82898534 279.77169466 26.03515625 285.2421875 C25.38417969 285.78101563 24.73320312 286.31984375 24.0625 286.875 C23.41410156 287.42929687 22.76570312 287.98359375 22.09765625 288.5546875 C17.00497349 292.06361231 12.27756996 292.2833239 6.23649597 292.24050903 C4.91314215 292.24307231 4.91314215 292.24307231 3.56305391 292.24568737 C0.60730158 292.24898121 -2.34822367 292.23798023 -5.30395508 292.22705078 C-7.4228922 292.22648664 -9.54182971 292.22680327 -11.6607666 292.22793579 C-17.41445343 292.22851021 -23.16805708 292.21674142 -28.92172456 292.20278788 C-34.93419617 292.19029541 -40.94666963 292.18911119 -46.95915222 292.18673706 C-58.34523761 292.18051793 -69.73128465 292.16410124 -81.11735314 292.14403808 C-94.07973224 292.12169256 -107.04211315 292.11068904 -120.00450671 292.10064721 C-146.66969241 292.07973541 -173.33484406 292.044551 -200 292 C-196.08990532 283.88306238 -191.24249632 280.36401069 -183 277 C-179.72776502 275.99347549 -176.73941566 275.86833536 -173.32275391 275.85523987 C-172.16502975 275.84834137 -171.0073056 275.84144287 -169.8144989 275.83433533 C-168.54797989 275.83172195 -167.28146088 275.82910858 -165.9765625 275.82641602 C-164.62599984 275.82010769 -163.27543924 275.81334158 -161.92488098 275.80615234 C-159.01713494 275.79149542 -156.10939685 275.77976495 -153.20162964 275.77020454 C-148.59409866 275.75471704 -143.98663566 275.73076438 -139.37915039 275.70530701 C-126.27706207 275.63420897 -113.17493414 275.57449767 -100.07275391 275.52319336 C-92.83577723 275.49478044 -85.59886757 275.4593362 -78.36196136 275.41653961 C-73.79246345 275.38993538 -69.22304128 275.37192684 -64.65348148 275.36050236 C-61.79357913 275.35129686 -58.93376769 275.33389797 -56.0739193 275.31432343 C-54.13921511 275.30343236 -52.20446424 275.30210487 -50.26972961 275.30119324 C-36.22036415 275.18551225 -23.30497501 273.6002246 -12.59375 263.72265625 C-2.79429954 253.13060318 -0.85693845 241.13461098 -0.84178162 227.16078186 C-0.83684364 226.18699898 -0.83190566 225.21321609 -0.82681805 224.20992464 C-0.8114955 220.95643905 -0.80309665 217.70297311 -0.79467773 214.44946289 C-0.78509509 212.11348295 -0.77508478 209.77750474 -0.76467896 207.44152832 C-0.73766572 201.10537907 -0.71663675 194.7692224 -0.69667697 188.43304753 C-0.67701275 182.48053594 -0.65287265 176.52804391 -0.62875474 170.57554894 C-0.58114258 158.7885785 -0.53786121 147.00159632 -0.49731445 135.21459961 C-0.45792702 123.7673247 -0.41649306 112.3200602 -0.37231445 100.87280273 C-0.36822804 99.8136844 -0.36822804 99.8136844 -0.36405908 98.73316974 C-0.35037907 95.19083917 -0.3366589 91.64850875 -0.32291877 88.1061784 C-0.20905421 58.73747432 -0.10229514 29.36874665 0 0 Z " fill="#2D4356" transform="translate(480,124)"/>
<path d="M0 0 C1.46373047 0.06767578 1.46373047 0.06767578 2.95703125 0.13671875 C3.69308594 0.19472656 4.42914063 0.25273437 5.1875 0.3125 C5.19081015 1.43010586 5.19412029 2.54771172 5.19753075 3.69918442 C5.27859404 30.91713986 5.3709307 58.13503936 5.47502708 85.35291672 C5.52510782 98.51537672 5.57155127 111.67783063 5.609375 124.84033203 C5.64235881 136.31532857 5.68222529 147.79027724 5.73029006 159.26522088 C5.75549151 165.33875579 5.77729151 171.41225921 5.79084396 177.48583221 C5.80372202 183.20837481 5.82583803 188.93080904 5.85488319 194.6532917 C5.86391418 196.74778887 5.86963867 198.84230347 5.87171364 200.93681908 C5.46699588 219.91590285 5.46699588 219.91590285 11.0625 237.75 C11.55492188 238.69746094 12.04734375 239.64492188 12.5546875 240.62109375 C17.74766428 249.18080907 25.3658265 255.02384977 35.00390625 257.82421875 C38.39179132 258.58179591 41.7303372 258.99821247 45.1875 259.3125 C45.1875 259.6425 45.1875 259.9725 45.1875 260.3125 C38.01606131 260.43932581 30.84491202 260.52686241 23.67260742 260.5871582 C21.23304436 260.61229496 18.79355655 260.64640946 16.35424805 260.68969727 C12.84665354 260.75038229 9.3400551 260.778719 5.83203125 260.80078125 C4.74227493 260.82658768 3.65251862 260.8523941 2.52973938 260.87898254 C1.50905869 260.8793602 0.48837799 260.87973785 -0.56323242 260.88012695 C-1.45813889 260.89123001 -2.35304535 260.90233307 -3.27507019 260.91377258 C-7.10450775 260.00634421 -8.41598399 258.42360436 -10.8125 255.3125 C-11.55163983 251.96218762 -11.48736814 248.67366808 -11.44741821 245.25390625 C-11.45521817 244.23227386 -11.46301812 243.21064148 -11.47105443 242.15805054 C-11.49102002 238.7300017 -11.47519113 235.30305735 -11.45947266 231.875 C-11.4662467 229.41934561 -11.47514862 226.9636963 -11.48602295 224.50805664 C-11.50647669 218.52781032 -11.50345393 212.54799849 -11.48895974 206.56776905 C-11.47766786 201.70758807 -11.47613635 196.84749502 -11.48157883 191.98730469 C-11.48234499 191.29558544 -11.48311116 190.6038662 -11.48390054 189.89118576 C-11.48549917 188.48597206 -11.48712023 187.08075839 -11.4887635 185.67554474 C-11.50302132 172.49874996 -11.48662783 159.32212911 -11.45976166 146.14536285 C-11.43742278 134.83900897 -11.4413029 123.53291175 -11.46435547 112.2265625 C-11.49111298 99.09694187 -11.50164802 85.96747368 -11.48629415 72.83782959 C-11.4847014 71.43778485 -11.48312955 70.0377401 -11.48157883 68.63769531 C-11.48080745 67.94884624 -11.48003607 67.25999718 -11.47924132 66.5502739 C-11.47492415 61.69591361 -11.48221119 56.84165 -11.49397659 51.98730469 C-11.50946389 45.45370353 -11.49843802 38.92051252 -11.46950531 32.38693237 C-11.46288312 29.98632616 -11.46481135 27.58567922 -11.47581863 25.18508911 C-11.48944001 21.91320202 -11.47239763 18.6428805 -11.44741821 15.37109375 C-11.45857182 14.41633148 -11.46972543 13.46156921 -11.48121703 12.47787476 C-11.41538162 8.04607322 -11.23514007 5.91626889 -8.63609886 2.20336914 C-5.39669229 0.03404757 -3.84712033 -0.23175424 0 0 Z " fill="#9387A2" transform="translate(26.8125,139.6875)"/>
<path d="M0 0 C1.72694675 -0.13609913 3.45704722 -0.23249228 5.1875 -0.3125 C6.15042969 -0.37050781 7.11335938 -0.42851562 8.10546875 -0.48828125 C11 0 11 0 13.82359886 1.89086914 C16.90536974 6.29337968 16.69634664 9.80024712 16.63491821 15.05859375 C16.64271817 16.08022614 16.65051812 17.10185852 16.65855443 18.15444946 C16.67852002 21.5824983 16.66269113 25.00944265 16.64697266 28.4375 C16.6537467 30.89315439 16.66264862 33.3488037 16.67352295 35.80444336 C16.69397669 41.78468968 16.69095393 47.76450151 16.67645974 53.74473095 C16.66516786 58.60491193 16.66363635 63.46500498 16.66907883 68.32519531 C16.67022807 69.36277418 16.67022807 69.36277418 16.67140054 70.42131424 C16.67299917 71.82652794 16.67462023 73.23174161 16.6762635 74.63695526 C16.69052132 87.81375004 16.67412783 100.99037089 16.64726166 114.16713715 C16.62492278 125.47349103 16.6288029 136.77958825 16.65185547 148.0859375 C16.67861298 161.21555813 16.68914802 174.34502632 16.67379415 187.47467041 C16.6722014 188.87471515 16.67062955 190.2747599 16.66907883 191.67480469 C16.66792176 192.70807829 16.66792176 192.70807829 16.66674132 193.7622261 C16.66242415 198.61658639 16.66971119 203.47085 16.68147659 208.32519531 C16.69696389 214.85879647 16.68593802 221.39198748 16.65700531 227.92556763 C16.65038312 230.32617384 16.65231135 232.72682078 16.66331863 235.12741089 C16.67694001 238.39929798 16.65989763 241.6696195 16.63491821 244.94140625 C16.64607182 245.89616852 16.65722543 246.85093079 16.66871703 247.83462524 C16.60085024 252.40317246 16.48524677 254.37006332 13.61890697 258.09108257 C10.67333201 260.23810781 9.35056231 260.61228985 5.75073242 260.56762695 C4.73005173 260.5672493 3.70937103 260.56687164 2.65776062 260.56648254 C1.02312614 260.5277729 1.02312614 260.5277729 -0.64453125 260.48828125 C-1.7694548 260.48120651 -2.89437836 260.47413177 -4.0533905 260.46684265 C-7.64044149 260.43889144 -11.22592212 260.37614717 -14.8125 260.3125 C-17.24672222 260.28741827 -19.68096895 260.26460489 -22.11523438 260.24414062 C-28.0773572 260.18906226 -34.0385664 260.10542705 -40 260 C-40 259.67 -40 259.34 -40 259 C-39.24976563 258.91363281 -38.49953125 258.82726562 -37.7265625 258.73828125 C-26.30065188 257.16973685 -16.67552623 253.08102211 -9.34375 243.93359375 C-2.30032085 234.00719238 -0.85569779 223.71246417 -0.84178162 211.76820374 C-0.83684364 210.85975769 -0.83190566 209.95131164 -0.82681805 209.01533693 C-0.81150683 205.98296402 -0.80309976 202.95061217 -0.79467773 199.91821289 C-0.7850942 197.73986629 -0.77508384 195.56152154 -0.76467896 193.38317871 C-0.7376754 187.4767686 -0.71664121 181.57035054 -0.69667697 175.66391301 C-0.67478934 169.4886094 -0.64741424 163.31333018 -0.62062073 157.13804626 C-0.57073139 145.44748193 -0.52577861 133.75690404 -0.48259836 122.06631321 C-0.43319386 108.75562597 -0.37828765 95.4449641 -0.32291877 82.13430035 C-0.20915643 54.75622308 -0.10230488 27.37812232 0 0 Z " fill="#9287A2" transform="translate(480,140)"/>
<path d="M0 0 C7.44463336 5.35665606 12.97905251 12.37708367 14.58984375 21.55859375 C15.51999293 30.00260431 13.91010812 37.8314377 8.9765625 44.85546875 C6.37342146 47.92613623 3.63830382 50.58852947 0.46484375 53.05859375 C-3.81526261 56.78042537 -6.61795049 61.18197648 -8.41015625 66.55859375 C-8.52561668 68.56431651 -8.58853509 70.57325182 -8.62109375 72.58203125 C-8.66363281 74.3609375 -8.66363281 74.3609375 -8.70703125 76.17578125 C-8.7589491 78.67302981 -8.80326918 81.17044835 -8.83984375 83.66796875 C-8.88625 85.45074219 -8.88625 85.45074219 -8.93359375 87.26953125 C-8.95341309 88.35540527 -8.97323242 89.4412793 -8.99365234 90.56005859 C-9.46070548 93.92251265 -10.41004381 95.8385143 -12.41015625 98.55859375 C-15.29877334 100.0029023 -17.20663326 99.93547881 -20.41015625 99.55859375 C-23.02588833 97.90937851 -23.98828876 97.20887737 -25.41015625 94.55859375 C-26.15092927 90.05167306 -26.06065415 85.61545797 -25.97265625 81.05859375 C-25.98361328 79.85460937 -25.99457031 78.650625 -26.00585938 77.41015625 C-25.90458165 64.85171888 -23.3613643 53.71918678 -14.41015625 44.55859375 C-12.84122701 43.16718063 -11.25765165 41.79211423 -9.66015625 40.43359375 C-4.56098436 36.04674229 -2.80540084 32.77701402 -1.97265625 25.99609375 C-2.6624946 20.57593528 -5.05772762 17.78221966 -9.03515625 14.18359375 C-13.61285864 11.97951482 -17.41568036 11.76142985 -22.41015625 12.55859375 C-27.29889289 14.91242991 -29.8160735 17.83365731 -32.41015625 22.55859375 C-32.74015625 23.77546875 -33.07015625 24.99234375 -33.41015625 26.24609375 C-34.41015625 29.55859375 -34.41015625 29.55859375 -36.16015625 31.49609375 C-39.2260027 32.94385457 -41.05413041 33.10651634 -44.41015625 32.55859375 C-48.10951652 29.98512574 -49.24072417 28.43656001 -50.09765625 23.99609375 C-49.51965329 15.94968407 -44.88217711 8.50620153 -39.16015625 3.05859375 C-27.77449408 -6.06514221 -12.73040786 -7.61348541 0 0 Z " fill="#2F4558" transform="translate(373.41015625,180.44140625)"/>
<path d="M0 0 C1.70079964 -0.00832352 1.70079964 -0.00832352 3.43595886 -0.01681519 C7.18364735 -0.02862501 10.93013045 -0.00432053 14.67773438 0.02148438 C17.28177841 0.02319516 19.88582417 0.02313013 22.48986816 0.0213623 C27.94733302 0.02141584 33.40445119 0.04114814 38.86181641 0.07324219 C45.16545045 0.11013354 51.46863051 0.11891739 57.77235842 0.11194468 C63.84380714 0.10563272 69.91507565 0.11662028 75.98649597 0.13591003 C78.56690207 0.14294482 81.14732188 0.14606399 83.72773743 0.1452179 C87.33306708 0.14701417 90.93775069 0.16838292 94.54296875 0.1953125 C95.61117355 0.1923819 96.67937836 0.18945129 97.779953 0.18643188 C106.90331966 0.29165284 106.90331966 0.29165284 110.77148438 3.61523438 C112.17606174 6.42438911 112.02043595 8.50333972 111.77148438 11.61523438 C109.99164033 14.75115008 109.24840231 15.45626173 105.77148438 16.61523438 C104.18415184 16.7148891 102.59301778 16.75875149 101.00259399 16.76913452 C100.02123978 16.77773499 99.03988556 16.78633545 98.02879333 16.79519653 C96.4157003 16.80158646 96.4157003 16.80158646 94.77001953 16.80810547 C93.06965797 16.8203717 93.06965797 16.8203717 91.33494568 16.83288574 C87.57681815 16.8577367 83.81872832 16.87425294 80.06054688 16.88867188 C78.77872906 16.89399555 77.49691124 16.89931923 76.17625046 16.90480423 C70.79065111 16.92603021 65.40506406 16.94516107 60.01943398 16.95642662 C52.30516086 16.97267077 44.59139096 17.0058691 36.87730753 17.06282747 C30.7963042 17.10619564 24.71549835 17.12217123 18.63434982 17.12855911 C16.04831734 17.13528837 13.46229267 17.15055346 10.87636185 17.17444992 C7.26109492 17.20595872 3.64710564 17.20615919 0.03173828 17.19873047 C-1.03960861 17.2151358 -2.11095551 17.23154114 -3.21476746 17.2484436 C-10.45765215 17.18739986 -10.45765215 17.18739986 -14.39321899 14.26626587 C-16.22851562 11.61523438 -16.22851562 11.61523438 -16.85351562 8.61523438 C-14.95432095 -0.50090008 -7.66739512 -0.09520135 0 0 Z " fill="#2D4356" transform="translate(108.228515625,311.384765625)"/>
<path d="M0 0 C1.70079964 -0.00832352 1.70079964 -0.00832352 3.43595886 -0.01681519 C7.18364735 -0.02862501 10.93013045 -0.00432053 14.67773438 0.02148438 C17.28177841 0.02319516 19.88582417 0.02313013 22.48986816 0.0213623 C27.94733302 0.02141584 33.40445119 0.04114814 38.86181641 0.07324219 C45.16545045 0.11013354 51.46863051 0.11891739 57.77235842 0.11194468 C63.84380714 0.10563272 69.91507565 0.11662028 75.98649597 0.13591003 C78.56690207 0.14294482 81.14732188 0.14606399 83.72773743 0.1452179 C87.33306708 0.14701417 90.93775069 0.16838292 94.54296875 0.1953125 C95.61117355 0.1923819 96.67937836 0.18945129 97.779953 0.18643188 C106.90331966 0.29165284 106.90331966 0.29165284 110.77148438 3.61523438 C112.17606174 6.42438911 112.02043595 8.50333972 111.77148438 11.61523438 C109.99164033 14.75115008 109.24840231 15.45626173 105.77148438 16.61523438 C104.18415184 16.7148891 102.59301778 16.75875149 101.00259399 16.76913452 C100.02123978 16.77773499 99.03988556 16.78633545 98.02879333 16.79519653 C96.4157003 16.80158646 96.4157003 16.80158646 94.77001953 16.80810547 C93.06965797 16.8203717 93.06965797 16.8203717 91.33494568 16.83288574 C87.57681815 16.8577367 83.81872832 16.87425294 80.06054688 16.88867188 C78.77872906 16.89399555 77.49691124 16.89931923 76.17625046 16.90480423 C70.79065111 16.92603021 65.40506406 16.94516107 60.01943398 16.95642662 C52.30516086 16.97267077 44.59139096 17.0058691 36.87730753 17.06282747 C30.7963042 17.10619564 24.71549835 17.12217123 18.63434982 17.12855911 C16.04831734 17.13528837 13.46229267 17.15055346 10.87636185 17.17444992 C7.26109492 17.20595872 3.64710564 17.20615919 0.03173828 17.19873047 C-1.03960861 17.2151358 -2.11095551 17.23154114 -3.21476746 17.2484436 C-10.45765215 17.18739986 -10.45765215 17.18739986 -14.39321899 14.26626587 C-16.22851562 11.61523438 -16.22851562 11.61523438 -16.85351562 8.61523438 C-14.95432095 -0.50090008 -7.66739512 -0.09520135 0 0 Z " fill="#2D4356" transform="translate(108.228515625,279.384765625)"/>
<path d="M0 0 C1.70079964 -0.00832352 1.70079964 -0.00832352 3.43595886 -0.01681519 C7.18364735 -0.02862501 10.93013045 -0.00432053 14.67773438 0.02148438 C17.28177841 0.02319516 19.88582417 0.02313013 22.48986816 0.0213623 C27.94733302 0.02141584 33.40445119 0.04114814 38.86181641 0.07324219 C45.16545045 0.11013354 51.46863051 0.11891739 57.77235842 0.11194468 C63.84380714 0.10563272 69.91507565 0.11662028 75.98649597 0.13591003 C78.56690207 0.14294482 81.14732188 0.14606399 83.72773743 0.1452179 C87.33306708 0.14701417 90.93775069 0.16838292 94.54296875 0.1953125 C95.61117355 0.1923819 96.67937836 0.18945129 97.779953 0.18643188 C106.90331966 0.29165284 106.90331966 0.29165284 110.77148438 3.61523438 C112.17606174 6.42438911 112.02043595 8.50333972 111.77148438 11.61523438 C109.99164033 14.75115008 109.24840231 15.45626173 105.77148438 16.61523438 C104.18415184 16.7148891 102.59301778 16.75875149 101.00259399 16.76913452 C100.02123978 16.77773499 99.03988556 16.78633545 98.02879333 16.79519653 C96.4157003 16.80158646 96.4157003 16.80158646 94.77001953 16.80810547 C93.06965797 16.8203717 93.06965797 16.8203717 91.33494568 16.83288574 C87.57681815 16.8577367 83.81872832 16.87425294 80.06054688 16.88867188 C78.77872906 16.89399555 77.49691124 16.89931923 76.17625046 16.90480423 C70.79065111 16.92603021 65.40506406 16.94516107 60.01943398 16.95642662 C52.30516086 16.97267077 44.59139096 17.0058691 36.87730753 17.06282747 C30.7963042 17.10619564 24.71549835 17.12217123 18.63434982 17.12855911 C16.04831734 17.13528837 13.46229267 17.15055346 10.87636185 17.17444992 C7.26109492 17.20595872 3.64710564 17.20615919 0.03173828 17.19873047 C-1.03960861 17.2151358 -2.11095551 17.23154114 -3.21476746 17.2484436 C-10.45765215 17.18739986 -10.45765215 17.18739986 -14.39321899 14.26626587 C-16.22851562 11.61523438 -16.22851562 11.61523438 -16.85351562 8.61523438 C-14.95432095 -0.50090008 -7.66739512 -0.09520135 0 0 Z " fill="#2D4356" transform="translate(108.228515625,247.384765625)"/>
<path d="M0 0 C1.70079964 -0.00832352 1.70079964 -0.00832352 3.43595886 -0.01681519 C7.18364735 -0.02862501 10.93013045 -0.00432053 14.67773438 0.02148438 C17.28177841 0.02319516 19.88582417 0.02313013 22.48986816 0.0213623 C27.94733302 0.02141584 33.40445119 0.04114814 38.86181641 0.07324219 C45.16545045 0.11013354 51.46863051 0.11891739 57.77235842 0.11194468 C63.84380714 0.10563272 69.91507565 0.11662028 75.98649597 0.13591003 C78.56690207 0.14294482 81.14732188 0.14606399 83.72773743 0.1452179 C87.33306708 0.14701417 90.93775069 0.16838292 94.54296875 0.1953125 C95.61117355 0.1923819 96.67937836 0.18945129 97.779953 0.18643188 C106.90331966 0.29165284 106.90331966 0.29165284 110.77148438 3.61523438 C112.17606174 6.42438911 112.02043595 8.50333972 111.77148438 11.61523438 C109.99164033 14.75115008 109.24840231 15.45626173 105.77148438 16.61523438 C104.18415184 16.7148891 102.59301778 16.75875149 101.00259399 16.76913452 C100.02123978 16.77773499 99.03988556 16.78633545 98.02879333 16.79519653 C96.4157003 16.80158646 96.4157003 16.80158646 94.77001953 16.80810547 C93.06965797 16.8203717 93.06965797 16.8203717 91.33494568 16.83288574 C87.57681815 16.8577367 83.81872832 16.87425294 80.06054688 16.88867188 C78.77872906 16.89399555 77.49691124 16.89931923 76.17625046 16.90480423 C70.79065111 16.92603021 65.40506406 16.94516107 60.01943398 16.95642662 C52.30516086 16.97267077 44.59139096 17.0058691 36.87730753 17.06282747 C30.7963042 17.10619564 24.71549835 17.12217123 18.63434982 17.12855911 C16.04831734 17.13528837 13.46229267 17.15055346 10.87636185 17.17444992 C7.26109492 17.20595872 3.64710564 17.20615919 0.03173828 17.19873047 C-1.03960861 17.2151358 -2.11095551 17.23154114 -3.21476746 17.2484436 C-10.45765215 17.18739986 -10.45765215 17.18739986 -14.39321899 14.26626587 C-16.22851562 11.61523438 -16.22851562 11.61523438 -16.85351562 8.61523438 C-14.95432095 -0.50090008 -7.66739512 -0.09520135 0 0 Z " fill="#2D4356" transform="translate(108.228515625,215.384765625)"/>
<path d="M0 0 C1.70079964 -0.00832352 1.70079964 -0.00832352 3.43595886 -0.01681519 C7.18364735 -0.02862501 10.93013045 -0.00432053 14.67773438 0.02148438 C17.28177841 0.02319516 19.88582417 0.02313013 22.48986816 0.0213623 C27.94733302 0.02141584 33.40445119 0.04114814 38.86181641 0.07324219 C45.16545045 0.11013354 51.46863051 0.11891739 57.77235842 0.11194468 C63.84380714 0.10563272 69.91507565 0.11662028 75.98649597 0.13591003 C78.56690207 0.14294482 81.14732188 0.14606399 83.72773743 0.1452179 C87.33306708 0.14701417 90.93775069 0.16838292 94.54296875 0.1953125 C95.61117355 0.1923819 96.67937836 0.18945129 97.779953 0.18643188 C106.90331966 0.29165284 106.90331966 0.29165284 110.77148438 3.61523438 C112.17606174 6.42438911 112.02043595 8.50333972 111.77148438 11.61523438 C109.99164033 14.75115008 109.24840231 15.45626173 105.77148438 16.61523438 C104.18415184 16.7148891 102.59301778 16.75875149 101.00259399 16.76913452 C100.02123978 16.77773499 99.03988556 16.78633545 98.02879333 16.79519653 C96.4157003 16.80158646 96.4157003 16.80158646 94.77001953 16.80810547 C93.06965797 16.8203717 93.06965797 16.8203717 91.33494568 16.83288574 C87.57681815 16.8577367 83.81872832 16.87425294 80.06054688 16.88867188 C78.77872906 16.89399555 77.49691124 16.89931923 76.17625046 16.90480423 C70.79065111 16.92603021 65.40506406 16.94516107 60.01943398 16.95642662 C52.30516086 16.97267077 44.59139096 17.0058691 36.87730753 17.06282747 C30.7963042 17.10619564 24.71549835 17.12217123 18.63434982 17.12855911 C16.04831734 17.13528837 13.46229267 17.15055346 10.87636185 17.17444992 C7.26109492 17.20595872 3.64710564 17.20615919 0.03173828 17.19873047 C-1.03960861 17.2151358 -2.11095551 17.23154114 -3.21476746 17.2484436 C-10.45765215 17.18739986 -10.45765215 17.18739986 -14.39321899 14.26626587 C-16.22851562 11.61523438 -16.22851562 11.61523438 -16.85351562 8.61523438 C-14.95432095 -0.50090008 -7.66739512 -0.09520135 0 0 Z " fill="#2D4356" transform="translate(108.228515625,183.384765625)"/>
<path d="M0 0 C1.70079964 -0.00832352 1.70079964 -0.00832352 3.43595886 -0.01681519 C7.18364735 -0.02862501 10.93013045 -0.00432053 14.67773438 0.02148438 C17.28177841 0.02319516 19.88582417 0.02313013 22.48986816 0.0213623 C27.94733302 0.02141584 33.40445119 0.04114814 38.86181641 0.07324219 C45.16545045 0.11013354 51.46863051 0.11891739 57.77235842 0.11194468 C63.84380714 0.10563272 69.91507565 0.11662028 75.98649597 0.13591003 C78.56690207 0.14294482 81.14732188 0.14606399 83.72773743 0.1452179 C87.33306708 0.14701417 90.93775069 0.16838292 94.54296875 0.1953125 C95.61117355 0.1923819 96.67937836 0.18945129 97.779953 0.18643188 C106.90331966 0.29165284 106.90331966 0.29165284 110.77148438 3.61523438 C112.17606174 6.42438911 112.02043595 8.50333972 111.77148438 11.61523438 C109.99164033 14.75115008 109.24840231 15.45626173 105.77148438 16.61523438 C104.18415184 16.7148891 102.59301778 16.75875149 101.00259399 16.76913452 C100.02123978 16.77773499 99.03988556 16.78633545 98.02879333 16.79519653 C96.4157003 16.80158646 96.4157003 16.80158646 94.77001953 16.80810547 C93.06965797 16.8203717 93.06965797 16.8203717 91.33494568 16.83288574 C87.57681815 16.8577367 83.81872832 16.87425294 80.06054688 16.88867188 C78.77872906 16.89399555 77.49691124 16.89931923 76.17625046 16.90480423 C70.79065111 16.92603021 65.40506406 16.94516107 60.01943398 16.95642662 C52.30516086 16.97267077 44.59139096 17.0058691 36.87730753 17.06282747 C30.7963042 17.10619564 24.71549835 17.12217123 18.63434982 17.12855911 C16.04831734 17.13528837 13.46229267 17.15055346 10.87636185 17.17444992 C7.26109492 17.20595872 3.64710564 17.20615919 0.03173828 17.19873047 C-1.03960861 17.2151358 -2.11095551 17.23154114 -3.21476746 17.2484436 C-10.45765215 17.18739986 -10.45765215 17.18739986 -14.39321899 14.26626587 C-16.22851562 11.61523438 -16.22851562 11.61523438 -16.85351562 8.61523438 C-14.95432095 -0.50090008 -7.66739512 -0.09520135 0 0 Z " fill="#2D4356" transform="translate(108.228515625,151.384765625)"/>
<path d="M0 0 C0.33 0 0.66 0 1 0 C1 76.56 1 153.12 1 232 C5.29 229.36 9.58 226.72 14 224 C30.71673997 215.03595103 50.15436549 216.53794738 68.55872059 216.52682066 C72.39920884 216.52109538 76.23959086 216.49778495 80.08001709 216.47622681 C87.33143608 216.43794822 94.58282398 216.41357146 101.83431792 216.39510214 C114.8492103 216.36149084 127.86400986 216.30388368 140.87879062 216.24111044 C145.44047807 216.2196644 150.00213317 216.20437062 154.56385946 216.19427085 C157.3927404 216.18725382 160.22159788 216.17637576 163.05046272 216.16462898 C164.98661053 216.15790052 166.92277366 216.15615765 168.8589325 216.15455627 C170.01087601 216.14910294 171.16281952 216.1436496 172.34967041 216.13803101 C173.35023594 216.13547491 174.35080147 216.13291882 175.38168716 216.13028526 C177.77248356 216.01132105 179.7500124 215.80906518 182 215 C183.28436734 213.0162233 183.28436734 213.0162233 184 211 C184.30031949 220.00958466 184.30031949 220.00958466 182 223 C178.72004289 225.07036341 176.1121298 225.2502881 172.27374268 225.2515564 C170.52058495 225.25963066 170.52058495 225.25963066 168.73200989 225.26786804 C166.81360542 225.26168205 166.81360542 225.26168205 164.85644531 225.25537109 C163.49266857 225.25812203 162.12889343 225.26180256 160.76512146 225.26634216 C157.82789191 225.27445277 154.89073849 225.2766228 151.95349884 225.27439499 C147.29443691 225.27155551 142.6355259 225.28594173 137.97650146 225.30337524 C124.72735908 225.3503284 111.47822579 225.3743071 98.22900391 225.38085938 C90.91138211 225.38463096 83.59393025 225.40283422 76.27638125 225.43595374 C72.41151047 225.45273612 68.54694851 225.4620709 64.68204498 225.45301437 C37.56332986 225.2298586 37.56332986 225.2298586 12.1875 234.0625 C11.52169922 234.40087891 10.85589844 234.73925781 10.16992188 235.08789062 C6.99064325 236.74316459 4.44710232 238.39029951 2 241 C1.34 241 0.68 241 0 241 C0 161.47 0 81.94 0 0 Z " fill="#C0C9D0" transform="translate(264,143)"/>
<path d="M0 0 C0.82266106 1.21955383 0.82266106 1.21955383 1.66194153 2.46374512 C5.33380384 6.08504657 9.59554292 5.59664846 14.49711609 5.63002014 C15.78801651 5.61353928 17.07891693 5.59705841 18.40893555 5.58007812 C19.78931901 5.58034493 21.16970362 5.58288061 22.55007935 5.58750916 C25.52077409 5.59290988 28.49087457 5.58287561 31.46149254 5.5610199 C36.17586743 5.52704958 40.88974347 5.5312643 45.60420227 5.5411377 C56.47954032 5.55811757 67.35462447 5.5255309 78.22990417 5.49221039 C88.16603253 5.46223097 98.1018775 5.44317424 108.03804618 5.46387625 C111.94781624 5.47083496 115.85698337 5.46746533 119.76666832 5.4389801 C142.31771531 5.27799083 166.44442676 5.36340081 184 22 C184.64516342 24.82839644 184.24477546 27.06269443 184 30 C183.13375 29.484375 182.2675 28.96875 181.375 28.4375 C168.27420351 21.01194733 155.38184645 14.88765451 139.99717712 14.86869812 C138.22867149 14.86268585 138.22867149 14.86268585 136.42443848 14.85655212 C134.50492371 14.8573452 134.50492371 14.8573452 132.54663086 14.8581543 C131.1745645 14.85511962 129.80249915 14.85159731 128.43043518 14.84762573 C125.48396126 14.83976222 122.5374993 14.83460157 119.59101677 14.83133507 C114.93064067 14.8254068 110.27034018 14.80885104 105.61000061 14.78999329 C104.0124617 14.7836568 102.41492276 14.77733117 100.81738377 14.77101612 C100.01762438 14.76785031 99.21786499 14.7646845 98.39387047 14.76142275 C87.54994692 14.71938403 76.70606025 14.6863505 65.86206055 14.67407227 C58.53829055 14.66569487 51.2147096 14.64322181 43.89103419 14.6047166 C40.01817578 14.58495565 36.14559997 14.57255167 32.27268791 14.57755089 C28.63223705 14.58219351 24.99232287 14.568414 21.35198021 14.54053879 C19.38135504 14.53032665 17.41065845 14.53988385 15.44003296 14.55003357 C14.26384903 14.53756592 13.0876651 14.52509827 11.87583923 14.51225281 C10.85583297 14.50986445 9.8358267 14.5074761 8.78491116 14.50501537 C5.25688417 13.86524349 3.56919224 12.44949512 1 10 C-0.60725635 6.78548731 -0.05748185 3.56387464 0 0 Z " fill="#BFC7CE" transform="translate(64,354)"/>
<path d="M0 0 C1.22673935 -0.00860046 2.4534787 -0.01720093 3.71739197 -0.02606201 C5.07392841 -0.03049675 6.4304653 -0.03479516 7.78700256 -0.03897095 C9.21788734 -0.04687585 10.64877015 -0.05514505 12.07965088 -0.06375122 C16.77383026 -0.08991578 21.46801834 -0.10526844 26.1622467 -0.11953735 C27.77926196 -0.12489841 29.39627716 -0.13027592 31.01329231 -0.13566971 C37.73801241 -0.15728593 44.46273014 -0.17602405 51.18747616 -0.1872921 C60.82243948 -0.20354414 70.45700043 -0.23676635 80.09181207 -0.29369295 C86.86898493 -0.33237102 93.64605003 -0.35192195 100.42333037 -0.35721266 C104.4707063 -0.36086769 108.51765252 -0.37290527 112.56490898 -0.4053154 C116.37111421 -0.43536077 120.17662885 -0.44172104 123.98292732 -0.42993164 C125.37894387 -0.42971064 126.77499216 -0.43803814 128.17089844 -0.45558548 C140.04004283 -0.59665798 140.04004283 -0.59665798 143.34854126 2.55047607 C145.84780045 6.46692097 145.39479135 8.61221712 145.00990295 13.15390015 C144.30825264 12.5043763 143.60660233 11.85485245 142.88368988 11.18564606 C139.56395633 8.83861921 138.04045768 8.65177983 134.02931213 8.64596558 C132.22972549 8.62904663 132.22972549 8.62904663 130.39378357 8.61178589 C129.08567719 8.61988281 127.7775708 8.62797974 126.42982483 8.63632202 C125.03147147 8.63089868 123.63312384 8.62377482 122.23478699 8.61508179 C118.44080011 8.59685685 114.64724875 8.60391584 110.85325432 8.61659813 C106.87148261 8.62674625 102.88974747 8.61732594 98.90797424 8.61105347 C92.21304159 8.60377554 85.51828537 8.6133614 78.82337952 8.63241577 C71.11114744 8.6541138 63.39933957 8.64718556 55.68711805 8.62511015 C49.0481912 8.60687493 42.4093911 8.60443937 35.77044725 8.61486483 C31.81348779 8.62106458 27.85672658 8.62203489 23.89978027 8.60871887 C20.16986979 8.59704474 16.440497 8.60539329 12.71064377 8.6282959 C10.71052004 8.63599342 8.71035012 8.6243213 6.71025085 8.61178589 C-6.47091535 8.73342244 -18.20768001 11.83564317 -27.9549408 21.0015564 C-32.23720052 25.55541822 -34.81545234 30.31882863 -36.99009705 36.15390015 C-37.32009705 36.15390015 -37.65009705 36.15390015 -37.99009705 36.15390015 C-38.99201472 27.47061366 -35.37400577 20.76760904 -30.30259705 13.8531189 C-22.7660781 5.48823257 -11.20614596 0.05855189 0 0 Z " fill="#EEF4F9" transform="translate(302.99009704589844,111.84609985351563)"/>
<path d="M0 0 C1.41307237 -0.00350285 2.82614079 -0.00916328 4.23919678 -0.01681519 C8.07235676 -0.03105629 11.90479867 -0.0140049 15.73789001 0.00946999 C19.75708582 0.02960603 23.77625258 0.02369766 27.79548645 0.0213623 C34.55013834 0.02141588 41.30451056 0.04116602 48.05908203 0.07324219 C55.84971524 0.1100605 63.63998114 0.11892795 71.43068999 0.11194468 C78.94052567 0.10561889 86.45023635 0.11643703 93.96004677 0.13591003 C97.14759425 0.14404944 100.33507752 0.14679995 103.52263451 0.1452179 C107.2861341 0.14433303 111.04928965 0.15871518 114.81269836 0.18444443 C116.83842822 0.19492133 118.86421698 0.19095662 120.88996887 0.18643188 C134.59202087 0.31322044 145.4405699 3.93660098 155.59301758 13.36523438 C160.58824882 18.67456738 164.5534022 24.76613379 164.59301758 32.24023438 C164.43833008 33.91085938 164.43833008 33.91085938 164.28051758 35.61523438 C162.81227158 33.76060785 161.44774361 31.91165071 160.28442383 29.84960938 C154.49493451 19.6729292 146.30346787 14.20231178 135.28051758 10.61523438 C131.54109364 9.72218017 128.07358063 9.48763213 124.2326355 9.48152161 C122.41137146 9.47512413 122.41137146 9.47512413 120.55331421 9.46859741 C119.21612546 9.46894688 117.87893673 9.46940839 116.54174805 9.4699707 C115.12717602 9.46697712 113.71260481 9.46357414 112.29803467 9.45979309 C108.46353649 9.45097251 104.62906063 9.44861589 100.79455328 9.4479773 C98.39927914 9.44726609 96.00401067 9.4451305 93.60873795 9.44248009 C85.25404754 9.43323553 76.89937308 9.42914439 68.54467773 9.42993164 C60.75283755 9.43053331 52.9610664 9.41996174 45.16924369 9.40418798 C38.47955145 9.3911271 31.78988183 9.38574708 25.10017693 9.38638705 C21.10445801 9.38664232 17.10880056 9.3837748 13.11309433 9.373209 C9.35875128 9.36355158 5.6045288 9.36343252 1.85018158 9.37072563 C0.47108663 9.37177418 -0.90801575 9.36939263 -2.28709793 9.36336517 C-4.16657276 9.35568125 -6.04608841 9.36147307 -7.92556763 9.36799622 C-8.97821367 9.36745145 -10.03085972 9.36690668 -11.11540413 9.36634541 C-13.95491527 9.430564 -13.95491527 9.430564 -16.71948242 11.61523438 C-17.37948242 12.60523437 -18.03948242 13.59523438 -18.71948242 14.61523438 C-18.85605458 13.22219833 -18.95219391 11.82517317 -19.03198242 10.42773438 C-19.08999023 9.65042969 -19.14799805 8.873125 -19.20776367 8.07226562 C-18.65302775 5.28083447 -17.72591454 3.64365541 -15.65581322 1.68307495 C-11.01588334 -0.87573649 -5.16367282 -0.0536168 0 0 Z " fill="#EEF4F9" transform="translate(82.719482421875,111.384765625)"/>
<path d="M0 0 C0.69134033 0.81404297 1.38268066 1.62808594 2.0949707 2.46679688 C5.57007378 5.49710778 6.95193826 5.59610543 11.48046875 5.53125 C12.72763672 5.53769531 13.97480469 5.54414063 15.25976562 5.55078125 C17.85872723 5.51717956 20.45768564 5.48332921 23.05664062 5.44921875 C30.4042457 5.48699564 35.48806416 6.1159064 41.87524414 9.81982422 C44.71810787 11.39886631 47.41864573 11.90238492 50.625 12.3125 C51.64851563 12.45300781 52.67203125 12.59351563 53.7265625 12.73828125 C54.85191406 12.86783203 54.85191406 12.86783203 56 13 C56 13.33 56 13.66 56 14 C48.82856131 14.12682581 41.65741202 14.21436241 34.48510742 14.2746582 C32.04554436 14.29979496 29.60605655 14.33390946 27.16674805 14.37719727 C23.65915354 14.43788229 20.1525551 14.466219 16.64453125 14.48828125 C15.55477493 14.51408768 14.46501862 14.5398941 13.34223938 14.56648254 C5.76575264 14.56928587 5.76575264 14.56928587 1.80273438 11.62304688 C-0.14708339 8.78598809 -0.56489922 7.56964949 -0.3125 4.1875 C-0.26738281 3.39730469 -0.22226563 2.60710937 -0.17578125 1.79296875 C-0.11777344 1.20128906 -0.05976563 0.60960937 0 0 Z " fill="#797085" transform="translate(16,386)"/>
<path d="M0 0 C0.33 0 0.66 0 1 0 C1.13657216 1.39303605 1.23271149 2.79006121 1.3125 4.1875 C1.37050781 4.96480469 1.42851562 5.74210937 1.48828125 6.54296875 C0.71413765 10.43845936 -0.8173412 11.63390607 -4 14 C-7.88445775 14.70060502 -11.70860403 14.58148761 -15.64453125 14.48828125 C-17.33191658 14.47766914 -17.33191658 14.47766914 -19.0533905 14.46684265 C-22.64044149 14.43889144 -26.22592212 14.37614717 -29.8125 14.3125 C-32.24672222 14.28741827 -34.68096895 14.26460489 -37.11523438 14.24414062 C-43.0773572 14.18906226 -49.0385664 14.10542705 -55 14 C-55 13.67 -55 13.34 -55 13 C-54.24976563 12.91363281 -53.49953125 12.82726562 -52.7265625 12.73828125 C-51.70304687 12.59777344 -50.67953125 12.45726562 -49.625 12.3125 C-48.62726563 12.18488281 -47.62953125 12.05726563 -46.6015625 11.92578125 C-43.33051226 11.08495814 -41.38947412 10.1213896 -38.51953125 8.4609375 C-31.92069665 5.02150344 -25.36365749 5.29420136 -18.0625 5.3125 C-15.46998684 5.29595475 -12.87750807 5.27160197 -10.28515625 5.23828125 C-9.14957275 5.23868408 -8.01398926 5.23908691 -6.84399414 5.23950195 C-3.7969814 5.21343067 -3.7969814 5.21343067 -1 3 C-0.67 2.01 -0.34 1.02 0 0 Z " fill="#797085" transform="translate(495,386)"/>
<path d="M0 0 C4.0743356 0.84881992 5.54405875 2.30225596 8 5.625 C8.625 8.625 8.625 8.625 8 11.625 C5.54405875 14.94774404 4.0743356 16.40118008 0 17.25 C-4.0743356 16.40118008 -5.54405875 14.94774404 -8 11.625 C-8.625 8.625 -8.625 8.625 -8 5.625 C-5.54405875 2.30225596 -4.0743356 0.84881992 0 0 Z " fill="#354A5D" transform="translate(356,295.375)"/>
<path d="M0 0 C9.77254826 -0.7701658 9.77254826 -0.7701658 14.1875 2 C16.61956668 6.02548968 16.39315009 8.36082895 16 13 C15.401875 12.360625 14.80375 11.72125 14.1875 11.0625 C9.65329837 8.12860483 5.30164592 8.18569688 0 8 C0 5.36 0 2.72 0 0 Z " fill="#9F93B0" transform="translate(480,140)"/>
<path d="M0 0 C0 2.64 0 5.28 0 8 C-0.73605469 8.02578125 -1.47210938 8.0515625 -2.23046875 8.078125 C-9.91941156 8.49060043 -9.91941156 8.49060043 -16 13 C-16.59456689 5.98411071 -16.59456689 5.98411071 -14.1875 2 C-9.54501743 -0.91293024 -5.33972223 -0.42081874 0 0 Z " fill="#9F93B0" transform="translate(32,140)"/>
</svg>
