<?xml version="1.0" encoding="UTF-8"?>
<svg version="1.1" xmlns="http://www.w3.org/2000/svg" width="512" height="512">
<path d="M0 0 C4.10348614 3.15366257 7.79660032 6.58357955 11.39453125 10.296875 C19.80568701 18.876591 29.77448534 25.17396771 42.01953125 25.796875 C48.80728938 25.61782143 55.27221506 24.09007457 61.89453125 22.671875 C75.65398191 19.7511845 86.69468751 18.9302299 99.39453125 26.234375 C111.83126951 35.35349174 115.56340785 45.88482671 119.91210938 60.23632812 C123.21209438 70.68530719 127.8389224 80.21680645 137.39453125 86.234375 C143.9083328 89.15732674 150.63991747 91.38177153 157.44921875 93.5078125 C170.20973305 97.51154689 180.24728397 102.99998347 186.96875 115.05859375 C192.17421746 126.4688591 191.80488001 136.61578347 188.95703125 148.609375 C185.91048329 162.67850992 183.84451235 175.26151375 191.609375 188.26953125 C194.63686848 192.54312349 198.27143915 196.28202452 201.83203125 200.109375 C213.20020285 212.3434553 218.27499823 222.12790409 217.7421875 238.9140625 C217.41934446 244.28089408 216.09607843 248.58264844 213.39453125 253.234375 C212.98203125 253.97558594 212.56953125 254.71679688 212.14453125 255.48046875 C209.41342611 259.95730871 206.21169927 263.51976241 202.45703125 267.171875 C193.4146093 275.98313729 186.49183538 285.88901494 185.83203125 298.859375 C186.01108482 305.64713313 187.53883168 312.11205881 188.95703125 318.734375 C191.87772175 332.49382566 192.69867635 343.53453126 185.39453125 356.234375 C176.27541451 368.67111326 165.74407954 372.4032516 151.39257812 376.75195312 C140.94359906 380.05193813 131.4120998 384.67876615 125.39453125 394.234375 C122.47157951 400.74817655 120.24713472 407.47976122 118.12109375 414.2890625 C114.11735936 427.0495768 108.62892278 437.08712772 96.5703125 443.80859375 C85.16004715 449.01406121 75.01312278 448.64472376 63.01953125 445.796875 C48.95039633 442.75032704 36.3673925 440.6843561 23.359375 448.44921875 C19.08578276 451.47671223 15.34688173 455.1112829 11.51953125 458.671875 C-0.71454905 470.0400466 -10.49899784 475.11484198 -27.28515625 474.58203125 C-32.65198783 474.25918821 -36.95374219 472.93592218 -41.60546875 470.234375 C-42.34667969 469.821875 -43.08789062 469.409375 -43.8515625 468.984375 C-48.32840246 466.25326986 -51.89085616 463.05154302 -55.54296875 459.296875 C-64.35423104 450.25445305 -74.26010869 443.33167913 -87.23046875 442.671875 C-94.01822688 442.85092857 -100.48315256 444.37867543 -107.10546875 445.796875 C-120.86491941 448.7175655 -131.90562501 449.5385201 -144.60546875 442.234375 C-157.04220701 433.11525826 -160.77434535 422.58392329 -165.12304688 408.23242188 C-168.42303188 397.78344281 -173.0498599 388.25194355 -182.60546875 382.234375 C-189.1192703 379.31142326 -195.85085497 377.08697847 -202.66015625 374.9609375 C-215.42067055 370.95720311 -225.45822147 365.46876653 -232.1796875 353.41015625 C-237.38515496 341.9998909 -237.01581751 331.85296653 -234.16796875 319.859375 C-231.12142079 305.79024008 -229.05544985 293.20723625 -236.8203125 280.19921875 C-239.84780598 275.92562651 -243.48237665 272.18672548 -247.04296875 268.359375 C-258.41114035 256.1252947 -263.48593573 246.34084591 -262.953125 229.5546875 C-262.63028196 224.18785592 -261.30701593 219.88610156 -258.60546875 215.234375 C-258.19296875 214.49316406 -257.78046875 213.75195312 -257.35546875 212.98828125 C-254.62436361 208.51144129 -251.42263677 204.94898759 -247.66796875 201.296875 C-238.6255468 192.48561271 -231.70277288 182.57973506 -231.04296875 169.609375 C-231.22202232 162.82161687 -232.74976918 156.35669119 -234.16796875 149.734375 C-237.08865925 135.97492434 -237.90961385 124.93421874 -230.60546875 112.234375 C-221.48635201 99.79763674 -210.95501704 96.0654984 -196.60351562 91.71679688 C-186.15453656 88.41681187 -176.6230373 83.78998385 -170.60546875 74.234375 C-167.68251701 67.72057345 -165.45807222 60.98898878 -163.33203125 54.1796875 C-159.32829686 41.4191732 -153.83986028 31.38162228 -141.78125 24.66015625 C-130.37098465 19.45468879 -120.22406028 19.82402624 -108.23046875 22.671875 C-94.16133383 25.71842296 -81.57833 27.7843939 -68.5703125 20.01953125 C-64.29672026 16.99203777 -60.55781923 13.3574671 -56.73046875 9.796875 C-41.04148011 -4.78167204 -19.73209311 -13.37167329 0 0 Z M-140.13427734 108.79833984 C-141.68644319 110.31341444 -143.26388411 111.79902314 -144.84375 113.28515625 C-175.42024491 142.45423309 -193.61459919 185.60475391 -194.80859375 227.6875 C-195.42449157 273.33847436 -180.66390878 318.04428904 -148.53515625 351.24609375 C-147.80184082 351.99318604 -147.80184082 351.99318604 -147.05371094 352.75537109 C-145.64113812 354.19794799 -144.25184265 355.66320255 -142.86328125 357.12890625 C-113.73460256 387.31297185 -70.94245359 405.25180828 -29.15234375 406.4375 C16.49863061 407.05339782 61.20444529 392.29281503 94.40625 360.1640625 C95.15334229 359.43074707 95.15334229 359.43074707 95.91552734 358.68261719 C97.35810424 357.27004437 98.8233588 355.8807489 100.2890625 354.4921875 C130.85055959 324.99927422 148.35061559 282.11583189 149.59765625 239.90234375 C150.24165604 194.63367092 135.12954395 150.09023164 103.32421875 117.22265625 C102.59090332 116.47556396 102.59090332 116.47556396 101.84277344 115.71337891 C100.43020062 114.27080201 99.04090515 112.80554745 97.65234375 111.33984375 C68.52366506 81.15577815 25.73151609 63.21694172 -16.05859375 62.03125 C-61.86654579 61.41323432 -107.00365923 76.30419329 -140.13427734 108.79833984 Z " fill="#193A6F" transform="translate(278.60546875,21.765625)"/>
<path d="M0 0 C4.10193897 3.55865223 8.08296582 7.23857402 12 11 C12.83422485 11.79809082 12.83422485 11.79809082 13.68530273 12.61230469 C43.00764206 41.20330277 58.40884268 82.49022944 59.3515625 122.96826172 C59.70544443 168.74436365 42.45168349 209.24717697 11 242 C10.46793945 242.5561499 9.93587891 243.1122998 9.38769531 243.68530273 C-14.25002694 267.92766429 -48.44586226 284.0853506 -82 288 C-82.78890625 288.10957031 -83.5778125 288.21914063 -84.390625 288.33203125 C-126.85532629 293.33966112 -170.6127916 281.40678042 -204.25 255 C-209.3075818 250.82127668 -214.19332246 246.4639128 -219 242 C-219.64324219 241.4225 -220.28648437 240.845 -220.94921875 240.25 C-250.09160861 212.87936969 -265.743608 171.39519586 -267.28125 132.05078125 C-268.33582145 86.77011954 -252.39006381 45.87548604 -221.73828125 12.8515625 C-220.38283203 11.44003906 -220.38283203 11.44003906 -219 10 C-218.46793945 9.4438501 -217.93587891 8.8877002 -217.38769531 8.31469727 C-160.58270154 -49.9433355 -61.29007794 -51.73194836 0 0 Z M-99.72265625 -0.515625 C-105.77496659 5.96793104 -107.24472269 13.43915788 -108.25 22 C-109.5743454 31.5278258 -112.52325694 39.52539912 -117 48 C-117.52464844 49.00675781 -118.04929687 50.01351562 -118.58984375 51.05078125 C-123.40806648 59.3795917 -130.22095877 65.26937668 -137.60546875 71.31420898 C-140.26687168 73.49421591 -142.73804009 75.60987423 -144.875 78.3125 C-145.57625 79.199375 -146.2775 80.08625 -147 81 C-147.54060059 80.64558838 -148.08120117 80.29117676 -148.63818359 79.92602539 C-155.8165126 75.74025872 -162.42396667 75.25302637 -170.55957031 75.40307617 C-172.62962849 75.43757714 -174.69544254 75.42363751 -176.765625 75.40429688 C-185.20051579 75.412215 -191.62900952 75.9074703 -198.0234375 81.89453125 C-198.46945313 82.52746094 -198.91546875 83.16039062 -199.375 83.8125 C-199.83648437 84.43769531 -200.29796875 85.06289062 -200.7734375 85.70703125 C-204.17411191 92.06434296 -204.29318957 98.24036024 -204.2746582 105.29052734 C-204.27976913 106.3012178 -204.28488007 107.31190826 -204.29014587 108.35322571 C-204.30399989 111.68085722 -204.30308818 115.00828064 -204.30078125 118.3359375 C-204.30467057 120.65849891 -204.30900572 122.9810596 -204.31376648 125.30361938 C-204.32121976 130.16728015 -204.32094391 135.03086831 -204.31567383 139.89453125 C-204.30988147 146.11400418 -204.32680918 152.33317909 -204.3500185 158.55260277 C-204.36478111 163.34827398 -204.36562406 168.14387384 -204.36250877 172.93956375 C-204.36302074 175.23198664 -204.36823508 177.52441366 -204.37832069 179.81681442 C-204.3907161 183.02829869 -204.38387438 186.23920789 -204.37231445 189.45068359 C-204.37995819 190.38915634 -204.38760193 191.32762909 -204.39547729 192.29454041 C-204.33892186 199.43615584 -202.98239868 205.51097833 -199.4375 211.75 C-191.54868918 219.03197921 -183.23606036 219.74172145 -172.875 219.5 C-171.65167969 219.50257813 -170.42835938 219.50515625 -169.16796875 219.5078125 C-161.62339215 219.42624951 -155.09771037 219.14208762 -148.90625 214.39453125 C-148.4421875 213.87246094 -147.978125 213.35039062 -147.5 212.8125 C-146.675 211.884375 -145.85 210.95625 -145 210 C-141.64587515 211.27776185 -138.57234962 212.76018498 -135.4375 214.5 C-123.36920442 220.45594346 -109.49437383 219.32639377 -96.36328125 219.3359375 C-94.2720684 219.34237603 -92.18085642 219.34910515 -90.08964539 219.35610962 C-85.72665314 219.36802592 -81.36373977 219.37179586 -77.00073242 219.37060547 C-71.42588693 219.37040163 -65.85154744 219.39779655 -60.27682209 219.43214989 C-55.96583247 219.45443303 -51.65496488 219.45844271 -47.34392357 219.45738602 C-45.28873118 219.45973625 -43.23353514 219.46852699 -41.17840004 219.48405075 C-38.30257527 219.50375663 -35.42784624 219.49785653 -32.55200195 219.48583984 C-31.71489182 219.49707886 -30.87778168 219.50831787 -30.01530457 219.51989746 C-23.33380665 219.44933764 -17.12235867 217.89051903 -12.10957813 213.24994469 C-6.94656607 207.61849202 -5.56157523 202.42440568 -5.6640625 194.87109375 C-6.17965271 190.46459603 -7.86963781 186.85177093 -10 183 C-9.278125 182.79375 -8.55625 182.5875 -7.8125 182.375 C-2.95089151 179.99821363 -0.27635134 176.08076165 1.875 171.25 C3.71087773 165.76334828 3.37031525 160.09978571 1.03125 154.80859375 C0.09837056 153.15939617 -0.94110663 151.57126113 -2 150 C-1.13375 149.814375 -0.2675 149.62875 0.625 149.4375 C5.98260857 147.15555561 8.89156195 143.31764319 11.375 138.125 C13.14387439 129.28062806 11.54662239 123.77797187 7 116 C8.15628906 115.58621094 8.15628906 115.58621094 9.3359375 115.1640625 C14.17989849 113.04749303 16.78565871 108.94152089 18.875 104.25 C20.73606099 98.64542552 20.30503364 93.20937458 18.08984375 87.76171875 C14.67241885 81.61035392 9.59790434 78.19930145 3 76 C0.83786607 75.91047669 -1.32698411 75.8824146 -3.4909668 75.88647461 C-4.1448941 75.88632858 -4.79882141 75.88618256 -5.4725647 75.8860321 C-7.63148326 75.88672812 -9.79031528 75.89450592 -11.94921875 75.90234375 C-13.44708713 75.90420904 -14.94495611 75.90563242 -16.44282532 75.90663147 C-20.38345019 75.91044793 -24.32403814 75.9202708 -28.26464844 75.93133545 C-32.28645325 75.94156828 -36.30826404 75.9461331 -40.33007812 75.95117188 C-48.22006901 75.96189384 -56.11002991 75.97895983 -64 76 C-64.4803318 74.41701974 -64.95921612 72.83360022 -65.4375 71.25 C-65.70433594 70.36828125 -65.97117187 69.4865625 -66.24609375 68.578125 C-68.88286777 59.56117757 -68.16883641 52.12851725 -66 43.0625 C-63.0419389 30.45426489 -62.56043721 18.85540198 -69.6484375 7.31640625 C-74.65129333 0.66413726 -79.05502622 -3.49645674 -87.44140625 -4.8671875 C-92.40009493 -5.12458508 -95.97793185 -3.74237165 -99.72265625 -0.515625 Z " fill="#193A6F" transform="translate(360,130)"/>
<path d="M0 0 C5.85126662 3.28241786 8.70684424 9.78707747 10.62109375 16.0234375 C12.07453909 23.60532762 10.76472226 30.67672587 9 38.0625 C6.2448769 49.74062829 6.92362494 58.31709946 10 70 C7.42097273 68.78988317 5.63908074 67.69189819 3.4375 65.8125 C2.633125 65.214375 1.82875 64.61625 1 64 C-2.04927159 64.64102129 -2.04927159 64.64102129 -2.9375 66.6875 C-3.04009688 70.48358455 -1.4253929 72.16051563 1 75 C8.11258199 79.99723612 15.5680219 79.54497369 23.92253494 79.4858551 C26.45396895 79.46847603 28.98427287 79.47616212 31.51571655 79.4901123 C36.88555638 79.51535432 42.25512505 79.50996044 47.625 79.5 C53.8582845 79.48845456 60.09101526 79.48966264 66.32423019 79.52406311 C68.81165663 79.53113652 71.2981966 79.51451107 73.78555298 79.49694824 C75.31618725 79.50265723 76.84681793 79.50947506 78.37744141 79.51757812 C79.06330826 79.50626358 79.74917511 79.49494904 80.45582581 79.48329163 C85.40263488 79.54570206 88.16831092 80.94794851 92 84 C94.11108549 86.38348362 94.95416392 87.95149973 95.09375 91.14453125 C94.75708266 96.21979147 93.76063472 99.35332391 90 103 C87.21056983 104.39471508 84.66849436 104.30609177 81.5625 104.5 C78.10551422 104.71630302 75.28953289 104.90348904 72 106 C71.16666667 107.91666667 71.16666667 107.91666667 71 110 C71.33 110.66 71.66 111.32 72 112 C73.58588044 112.4997401 75.19516428 112.92651798 76.8125 113.3125 C81.3386865 114.57983222 83.53853234 115.82620701 86 120 C87.5992715 123.198543 87.36127908 126.52101629 87 130 C85.63289349 133.41776628 84.54105846 134.66754239 81.40625 136.59375 C77.3525488 138.26729637 73.96121903 138.55027788 69.625 138.6875 C68.88894531 138.72166016 68.15289062 138.75582031 67.39453125 138.79101562 C65.59686147 138.87272789 63.79845954 138.93805781 62 139 C62 141.31 62 143.62 62 146 C62.66386719 146.07476562 63.32773437 146.14953125 64.01171875 146.2265625 C72.12303703 147.43437924 72.12303703 147.43437924 75.0625 151 C77.95688216 155.48162399 78.20689336 157.52728682 77.5859375 162.73828125 C76.69945281 166.16011216 74.69883369 167.84093305 72 170 C71.67 170.33 71.34 170.66 71 171 C68.14122091 171.23701239 65.30116703 171.42219182 62.4375 171.5625 C61.63119141 171.60568359 60.82488281 171.64886719 59.99414062 171.69335938 C57.99631195 171.79975262 55.9981793 171.90040888 54 172 C54 173.98 54 175.96 54 178 C54.66386719 178.21914063 55.32773437 178.43828125 56.01171875 178.6640625 C61.96706825 180.80277196 65.82790434 182.39596434 69 188 C69.94931856 192.76369764 69.45127089 196.08074448 67.3125 200.4375 C64.49931104 203.5548175 62.30999538 204.78349967 58.07749557 205.18018341 C55.7086314 205.26060482 53.34824195 205.27016229 50.97802734 205.25878906 C50.0781308 205.2622937 49.17823425 205.26579834 48.25106812 205.26940918 C45.27927912 205.27820258 42.30772888 205.27238275 39.3359375 205.265625 C37.26193191 205.26697304 35.18792663 205.26891474 33.11392212 205.27142334 C28.76455683 205.27437196 24.4152737 205.27008795 20.06591797 205.26074219 C14.514751 205.24939052 8.96377836 205.25588156 3.41261864 205.26788712 C-0.87358028 205.27514926 -5.15973394 205.27279714 -9.4459343 205.26763153 C-11.49108275 205.26630483 -13.53623542 205.26790811 -15.58137894 205.27259064 C-45.3183731 205.32570203 -45.3183731 205.32570203 -55.56933594 195.54971313 C-59.0447393 191.29781521 -58.74598072 186.88725066 -58.7421875 181.59521484 C-58.76058685 180.56022858 -58.77898621 179.52524231 -58.79794312 178.45889282 C-58.85046359 175.04262701 -58.86516653 171.62757645 -58.875 168.2109375 C-58.8936165 165.82686911 -58.91283123 163.44280531 -58.93261719 161.05874634 C-58.9670585 156.06038106 -58.98032739 151.06244263 -58.98144531 146.06396484 C-58.98651649 139.68097152 -59.06505039 133.30121854 -59.1625061 126.91905785 C-59.22584718 121.99275513 -59.23892456 117.06722431 -59.23834229 112.14055252 C-59.24605417 109.78908196 -59.27161116 107.43759568 -59.31585693 105.08652878 C-59.66442172 84.79498498 -59.66442172 84.79498498 -54.16377258 78.21680641 C-51.92602999 75.93427614 -49.53132369 73.94772386 -47 72 C-45.71846554 70.83436121 -44.44265793 69.66229016 -43.1796875 68.4765625 C-42.07866525 67.52541593 -40.97711324 66.5748822 -39.875 65.625 C-24.40529324 51.6743372 -17.61744707 33.13044625 -14.51953125 12.85546875 C-13.08812261 3.7164751 -13.08812261 3.7164751 -9 0 C-5.39965901 -1.20011366 -3.65462165 -0.95020163 0 0 Z " fill="#F88124" transform="translate(276,135)"/>
<path d="M0 0 C1.31033203 -0.02835938 2.62066406 -0.05671875 3.97070312 -0.0859375 C14.69692541 -0.10777205 14.69692541 -0.10777205 18.41015625 2.90625 C21.16945186 6.23142656 21.68746762 7.71128362 21.70967102 11.92085266 C21.71682632 12.85034729 21.72398163 13.77984192 21.73135376 14.73750305 C21.73404266 15.76038925 21.73673157 16.78327545 21.73950195 17.8371582 C21.74935875 19.44951859 21.74935875 19.44951859 21.75941467 21.0944519 C21.77917846 24.663229 21.79081662 28.23196397 21.80078125 31.80078125 C21.80485678 33.01732077 21.8089323 34.23386028 21.81313133 35.48726463 C21.83400435 41.92502041 21.84830124 48.36275479 21.85766602 54.80053711 C21.86773046 61.45890624 21.90314426 68.11689563 21.94283772 74.77515888 C21.96894855 79.88720839 21.97735291 84.99917774 21.98094749 90.11128807 C21.98582708 92.56612592 21.99747977 95.02095986 22.01598549 97.4757328 C22.0402604 100.90897892 22.0394329 104.34135305 22.0324707 107.7746582 C22.04528076 108.79147171 22.05809082 109.80828522 22.07128906 110.85591125 C22.0386513 115.26454171 22.01056806 117.77624505 19.64984131 121.58947754 C13.88396959 126.86692181 7.59061866 125.83203328 0.125 125.8125 C-1.10283203 125.82861328 -2.33066406 125.84472656 -3.59570312 125.86132812 C-4.77970703 125.86197266 -5.96371094 125.86261719 -7.18359375 125.86328125 C-8.26310303 125.86626221 -9.3426123 125.86924316 -10.45483398 125.87231445 C-14.6982359 125.3426273 -17.34402264 123.71063565 -20.1875 120.5625 C-22.23877566 117.17789516 -22.56252892 114.02542557 -22.57794189 110.11784363 C-22.58365204 109.24738907 -22.58936218 108.37693451 -22.59524536 107.48010254 C-22.59636322 106.53300415 -22.59748108 105.58590576 -22.59863281 104.61010742 C-22.60359772 103.60639603 -22.60856262 102.60268463 -22.61367798 101.56855774 C-22.62828493 98.2475211 -22.6350991 94.92653223 -22.640625 91.60546875 C-22.64637755 89.29624938 -22.65213527 86.98703002 -22.65789795 84.67781067 C-22.66840368 79.83492816 -22.67424919 74.99206223 -22.67773438 70.14916992 C-22.68321892 63.94849031 -22.7072481 57.7480303 -22.73570633 51.54741955 C-22.75434411 46.77671165 -22.75953892 42.00605655 -22.76107025 37.23531532 C-22.76409459 34.94960644 -22.77211572 32.66389844 -22.78525543 30.37822533 C-22.80233975 27.17800632 -22.80042965 23.97832247 -22.79394531 20.77807617 C-22.8031601 19.83705048 -22.81237488 18.89602478 -22.8218689 17.92648315 C-22.78654672 12.35199861 -22.11678006 8.42392197 -19.4375 3.5 C-13.90324576 -1.14466135 -6.84695505 -0.01343199 0 0 Z " fill="#F78124" transform="translate(187.4375,214.5)"/>
</svg>
