<svg xmlns="http://www.w3.org/2000/svg" xmlns:xlink="http://www.w3.org/1999/xlink" width="500" zoomAndPan="magnify" viewBox="0 0 375 374.999991" height="500" preserveAspectRatio="xMidYMid meet" version="1.0"><defs><g/><linearGradient x1="0" gradientTransform="matrix(0.75, 0, 0, 0.75, 0.0000045, 0)" y1="250" x2="499.999979" gradientUnits="userSpaceOnUse" y2="250" id="825c5374fe"><stop stop-opacity="1" stop-color="rgb(100%, 19.198608%, 19.198608%)" offset="0"/><stop stop-opacity="1" stop-color="rgb(100%, 19.345093%, 19.241333%)" offset="0.0078125"/><stop stop-opacity="1" stop-color="rgb(100%, 19.639587%, 19.328308%)" offset="0.015625"/><stop stop-opacity="1" stop-color="rgb(100%, 19.934082%, 19.413757%)" offset="0.0234375"/><stop stop-opacity="1" stop-color="rgb(100%, 20.230103%, 19.499207%)" offset="0.03125"/><stop stop-opacity="1" stop-color="rgb(100%, 20.524597%, 19.586182%)" offset="0.0390625"/><stop stop-opacity="1" stop-color="rgb(100%, 20.819092%, 19.671631%)" offset="0.046875"/><stop stop-opacity="1" stop-color="rgb(100%, 21.113586%, 19.75708%)" offset="0.0546875"/><stop stop-opacity="1" stop-color="rgb(100%, 21.408081%, 19.844055%)" offset="0.0625"/><stop stop-opacity="1" stop-color="rgb(100%, 21.702576%, 19.929504%)" offset="0.0703125"/><stop stop-opacity="1" stop-color="rgb(100%, 21.99707%, 20.014954%)" offset="0.078125"/><stop stop-opacity="1" stop-color="rgb(100%, 22.291565%, 20.101929%)" offset="0.0859375"/><stop stop-opacity="1" stop-color="rgb(100%, 22.58606%, 20.187378%)" offset="0.09375"/><stop stop-opacity="1" stop-color="rgb(100%, 22.880554%, 20.272827%)" offset="0.101562"/><stop stop-opacity="1" stop-color="rgb(100%, 23.175049%, 20.359802%)" offset="0.109375"/><stop stop-opacity="1" stop-color="rgb(100%, 23.469543%, 20.445251%)" offset="0.117188"/><stop stop-opacity="1" stop-color="rgb(100%, 23.764038%, 20.530701%)" offset="0.125"/><stop stop-opacity="1" stop-color="rgb(100%, 24.058533%, 20.617676%)" offset="0.132812"/><stop stop-opacity="1" stop-color="rgb(100%, 24.353027%, 20.703125%)" offset="0.140625"/><stop stop-opacity="1" stop-color="rgb(100%, 24.647522%, 20.788574%)" offset="0.148437"/><stop stop-opacity="1" stop-color="rgb(100%, 24.942017%, 20.874023%)" offset="0.15625"/><stop stop-opacity="1" stop-color="rgb(100%, 25.236511%, 20.960999%)" offset="0.164062"/><stop stop-opacity="1" stop-color="rgb(100%, 25.531006%, 21.046448%)" offset="0.171875"/><stop stop-opacity="1" stop-color="rgb(100%, 25.8255%, 21.131897%)" offset="0.179687"/><stop stop-opacity="1" stop-color="rgb(100%, 26.119995%, 21.218872%)" offset="0.1875"/><stop stop-opacity="1" stop-color="rgb(100%, 26.41449%, 21.304321%)" offset="0.195312"/><stop stop-opacity="1" stop-color="rgb(100%, 26.708984%, 21.389771%)" offset="0.203125"/><stop stop-opacity="1" stop-color="rgb(100%, 27.003479%, 21.476746%)" offset="0.210938"/><stop stop-opacity="1" stop-color="rgb(100%, 27.297974%, 21.562195%)" offset="0.21875"/><stop stop-opacity="1" stop-color="rgb(100%, 27.592468%, 21.647644%)" offset="0.226562"/><stop stop-opacity="1" stop-color="rgb(100%, 27.886963%, 21.734619%)" offset="0.234375"/><stop stop-opacity="1" stop-color="rgb(100%, 28.181458%, 21.820068%)" offset="0.242188"/><stop stop-opacity="1" stop-color="rgb(100%, 28.475952%, 21.905518%)" offset="0.25"/><stop stop-opacity="1" stop-color="rgb(100%, 28.770447%, 21.992493%)" offset="0.257812"/><stop stop-opacity="1" stop-color="rgb(100%, 29.064941%, 22.077942%)" offset="0.265625"/><stop stop-opacity="1" stop-color="rgb(100%, 29.359436%, 22.163391%)" offset="0.273437"/><stop stop-opacity="1" stop-color="rgb(100%, 29.653931%, 22.250366%)" offset="0.28125"/><stop stop-opacity="1" stop-color="rgb(100%, 29.948425%, 22.335815%)" offset="0.289062"/><stop stop-opacity="1" stop-color="rgb(100%, 30.24292%, 22.421265%)" offset="0.296875"/><stop stop-opacity="1" stop-color="rgb(100%, 30.537415%, 22.50824%)" offset="0.304687"/><stop stop-opacity="1" stop-color="rgb(100%, 30.831909%, 22.593689%)" offset="0.3125"/><stop stop-opacity="1" stop-color="rgb(100%, 31.126404%, 22.679138%)" offset="0.320312"/><stop stop-opacity="1" stop-color="rgb(100%, 31.420898%, 22.766113%)" offset="0.328125"/><stop stop-opacity="1" stop-color="rgb(100%, 31.715393%, 22.851562%)" offset="0.335937"/><stop stop-opacity="1" stop-color="rgb(100%, 32.009888%, 22.937012%)" offset="0.34375"/><stop stop-opacity="1" stop-color="rgb(100%, 32.304382%, 23.022461%)" offset="0.351562"/><stop stop-opacity="1" stop-color="rgb(100%, 32.600403%, 23.109436%)" offset="0.359375"/><stop stop-opacity="1" stop-color="rgb(100%, 32.894897%, 23.194885%)" offset="0.367187"/><stop stop-opacity="1" stop-color="rgb(100%, 33.189392%, 23.280334%)" offset="0.375"/><stop stop-opacity="1" stop-color="rgb(100%, 33.483887%, 23.36731%)" offset="0.382812"/><stop stop-opacity="1" stop-color="rgb(100%, 33.778381%, 23.452759%)" offset="0.390625"/><stop stop-opacity="1" stop-color="rgb(100%, 34.072876%, 23.538208%)" offset="0.398438"/><stop stop-opacity="1" stop-color="rgb(100%, 34.367371%, 23.625183%)" offset="0.40625"/><stop stop-opacity="1" stop-color="rgb(100%, 34.661865%, 23.710632%)" offset="0.414062"/><stop stop-opacity="1" stop-color="rgb(100%, 34.95636%, 23.796082%)" offset="0.421875"/><stop stop-opacity="1" stop-color="rgb(100%, 35.250854%, 23.883057%)" offset="0.429688"/><stop stop-opacity="1" stop-color="rgb(100%, 35.545349%, 23.968506%)" offset="0.4375"/><stop stop-opacity="1" stop-color="rgb(100%, 35.839844%, 24.053955%)" offset="0.445312"/><stop stop-opacity="1" stop-color="rgb(100%, 36.134338%, 24.14093%)" offset="0.453125"/><stop stop-opacity="1" stop-color="rgb(100%, 36.428833%, 24.226379%)" offset="0.460938"/><stop stop-opacity="1" stop-color="rgb(100%, 36.723328%, 24.311829%)" offset="0.46875"/><stop stop-opacity="1" stop-color="rgb(100%, 37.017822%, 24.398804%)" offset="0.476562"/><stop stop-opacity="1" stop-color="rgb(100%, 37.312317%, 24.484253%)" offset="0.484375"/><stop stop-opacity="1" stop-color="rgb(100%, 37.606812%, 24.569702%)" offset="0.492188"/><stop stop-opacity="1" stop-color="rgb(100%, 37.901306%, 24.656677%)" offset="0.5"/><stop stop-opacity="1" stop-color="rgb(100%, 38.195801%, 24.742126%)" offset="0.507812"/><stop stop-opacity="1" stop-color="rgb(100%, 38.490295%, 24.827576%)" offset="0.515625"/><stop stop-opacity="1" stop-color="rgb(100%, 38.78479%, 24.914551%)" offset="0.523437"/><stop stop-opacity="1" stop-color="rgb(100%, 39.079285%, 25%)" offset="0.53125"/><stop stop-opacity="1" stop-color="rgb(100%, 39.373779%, 25.085449%)" offset="0.539062"/><stop stop-opacity="1" stop-color="rgb(100%, 39.668274%, 25.170898%)" offset="0.546875"/><stop stop-opacity="1" stop-color="rgb(100%, 39.962769%, 25.257874%)" offset="0.554687"/><stop stop-opacity="1" stop-color="rgb(100%, 40.257263%, 25.343323%)" offset="0.5625"/><stop stop-opacity="1" stop-color="rgb(100%, 40.551758%, 25.428772%)" offset="0.570312"/><stop stop-opacity="1" stop-color="rgb(100%, 40.846252%, 25.515747%)" offset="0.578125"/><stop stop-opacity="1" stop-color="rgb(100%, 41.140747%, 25.601196%)" offset="0.585937"/><stop stop-opacity="1" stop-color="rgb(100%, 41.435242%, 25.686646%)" offset="0.59375"/><stop stop-opacity="1" stop-color="rgb(100%, 41.729736%, 25.773621%)" offset="0.601562"/><stop stop-opacity="1" stop-color="rgb(100%, 42.024231%, 25.85907%)" offset="0.609375"/><stop stop-opacity="1" stop-color="rgb(100%, 42.318726%, 25.944519%)" offset="0.617187"/><stop stop-opacity="1" stop-color="rgb(100%, 42.61322%, 26.031494%)" offset="0.625"/><stop stop-opacity="1" stop-color="rgb(100%, 42.907715%, 26.116943%)" offset="0.632812"/><stop stop-opacity="1" stop-color="rgb(100%, 43.202209%, 26.202393%)" offset="0.640625"/><stop stop-opacity="1" stop-color="rgb(100%, 43.496704%, 26.289368%)" offset="0.648437"/><stop stop-opacity="1" stop-color="rgb(100%, 43.791199%, 26.374817%)" offset="0.65625"/><stop stop-opacity="1" stop-color="rgb(100%, 44.085693%, 26.460266%)" offset="0.664062"/><stop stop-opacity="1" stop-color="rgb(100%, 44.380188%, 26.547241%)" offset="0.671875"/><stop stop-opacity="1" stop-color="rgb(100%, 44.674683%, 26.63269%)" offset="0.679687"/><stop stop-opacity="1" stop-color="rgb(100%, 44.970703%, 26.71814%)" offset="0.6875"/><stop stop-opacity="1" stop-color="rgb(100%, 45.265198%, 26.805115%)" offset="0.695312"/><stop stop-opacity="1" stop-color="rgb(100%, 45.559692%, 26.890564%)" offset="0.703125"/><stop stop-opacity="1" stop-color="rgb(100%, 45.854187%, 26.976013%)" offset="0.710937"/><stop stop-opacity="1" stop-color="rgb(100%, 46.148682%, 27.062988%)" offset="0.71875"/><stop stop-opacity="1" stop-color="rgb(100%, 46.443176%, 27.148438%)" offset="0.726562"/><stop stop-opacity="1" stop-color="rgb(100%, 46.737671%, 27.233887%)" offset="0.734375"/><stop stop-opacity="1" stop-color="rgb(100%, 47.032166%, 27.319336%)" offset="0.742187"/><stop stop-opacity="1" stop-color="rgb(100%, 47.32666%, 27.406311%)" offset="0.75"/><stop stop-opacity="1" stop-color="rgb(100%, 47.621155%, 27.49176%)" offset="0.757812"/><stop stop-opacity="1" stop-color="rgb(100%, 47.915649%, 27.577209%)" offset="0.765625"/><stop stop-opacity="1" stop-color="rgb(100%, 48.210144%, 27.664185%)" offset="0.773438"/><stop stop-opacity="1" stop-color="rgb(100%, 48.504639%, 27.749634%)" offset="0.78125"/><stop stop-opacity="1" stop-color="rgb(100%, 48.799133%, 27.835083%)" offset="0.789062"/><stop stop-opacity="1" stop-color="rgb(100%, 49.093628%, 27.922058%)" offset="0.796875"/><stop stop-opacity="1" stop-color="rgb(100%, 49.388123%, 28.007507%)" offset="0.804688"/><stop stop-opacity="1" stop-color="rgb(100%, 49.682617%, 28.092957%)" offset="0.8125"/><stop stop-opacity="1" stop-color="rgb(100%, 49.977112%, 28.179932%)" offset="0.820312"/><stop stop-opacity="1" stop-color="rgb(100%, 50.271606%, 28.265381%)" offset="0.828125"/><stop stop-opacity="1" stop-color="rgb(100%, 50.566101%, 28.35083%)" offset="0.835938"/><stop stop-opacity="1" stop-color="rgb(100%, 50.860596%, 28.437805%)" offset="0.84375"/><stop stop-opacity="1" stop-color="rgb(100%, 51.15509%, 28.523254%)" offset="0.851562"/><stop stop-opacity="1" stop-color="rgb(100%, 51.449585%, 28.608704%)" offset="0.859375"/><stop stop-opacity="1" stop-color="rgb(100%, 51.74408%, 28.695679%)" offset="0.867188"/><stop stop-opacity="1" stop-color="rgb(100%, 52.038574%, 28.781128%)" offset="0.875"/><stop stop-opacity="1" stop-color="rgb(100%, 52.333069%, 28.866577%)" offset="0.882812"/><stop stop-opacity="1" stop-color="rgb(100%, 52.627563%, 28.953552%)" offset="0.890625"/><stop stop-opacity="1" stop-color="rgb(100%, 52.922058%, 29.039001%)" offset="0.898438"/><stop stop-opacity="1" stop-color="rgb(100%, 53.216553%, 29.124451%)" offset="0.90625"/><stop stop-opacity="1" stop-color="rgb(100%, 53.511047%, 29.211426%)" offset="0.914062"/><stop stop-opacity="1" stop-color="rgb(100%, 53.805542%, 29.296875%)" offset="0.921875"/><stop stop-opacity="1" stop-color="rgb(100%, 54.100037%, 29.382324%)" offset="0.929688"/><stop stop-opacity="1" stop-color="rgb(100%, 54.394531%, 29.467773%)" offset="0.9375"/><stop stop-opacity="1" stop-color="rgb(100%, 54.689026%, 29.554749%)" offset="0.945312"/><stop stop-opacity="1" stop-color="rgb(100%, 54.983521%, 29.640198%)" offset="0.953125"/><stop stop-opacity="1" stop-color="rgb(100%, 55.278015%, 29.725647%)" offset="0.960938"/><stop stop-opacity="1" stop-color="rgb(100%, 55.57251%, 29.812622%)" offset="0.96875"/><stop stop-opacity="1" stop-color="rgb(100%, 55.867004%, 29.898071%)" offset="0.976562"/><stop stop-opacity="1" stop-color="rgb(100%, 56.161499%, 29.983521%)" offset="0.984375"/><stop stop-opacity="1" stop-color="rgb(100%, 56.455994%, 30.070496%)" offset="0.992188"/><stop stop-opacity="1" stop-color="rgb(100%, 56.750488%, 30.155945%)" offset="1"/></linearGradient><clipPath id="3341bda37e"><path d="M 22.734375 21 L 351.984375 21 L 351.984375 362 L 22.734375 362 Z M 22.734375 21 " clip-rule="nonzero"/></clipPath></defs><rect x="-37.5" width="450" fill="#ffffff" y="-37.499999" height="449.999989" fill-opacity="1"/><rect x="-37.5" fill="url(#825c5374fe)" width="450" y="-37.499999" height="449.999989"/><g clip-path="url(#3341bda37e)"><path fill="#ffffff" d="M 146.074219 26.53125 C 148.742188 25.859375 151.425781 25.257812 154.125 24.71875 C 156.824219 24.179688 159.535156 23.703125 162.257812 23.296875 C 164.976562 22.890625 167.707031 22.546875 170.445312 22.273438 C 173.183594 22 175.925781 21.789062 178.675781 21.648438 C 181.425781 21.507812 184.175781 21.433594 186.925781 21.425781 C 189.679688 21.417969 192.429688 21.476562 195.179688 21.601562 C 197.929688 21.726562 200.671875 21.921875 203.410156 22.179688 C 206.152344 22.4375 208.882812 22.765625 211.609375 23.15625 C 214.332031 23.546875 217.042969 24.003906 219.746094 24.527344 C 222.449219 25.054688 225.136719 25.640625 227.808594 26.296875 C 230.480469 26.949219 233.136719 27.667969 235.777344 28.453125 C 238.414062 29.234375 241.03125 30.082031 243.628906 30.992188 C 246.226562 31.902344 248.800781 32.875 251.347656 33.914062 C 253.898438 34.949219 256.421875 36.042969 258.917969 37.203125 C 261.414062 38.359375 263.882812 39.578125 266.320312 40.855469 C 268.757812 42.136719 271.160156 43.472656 273.535156 44.867188 C 275.90625 46.261719 278.242188 47.714844 280.546875 49.222656 C 282.847656 50.730469 285.109375 52.292969 287.335938 53.910156 C 289.5625 55.53125 291.746094 57.203125 293.890625 58.925781 C 296.039062 60.652344 298.140625 62.425781 300.195312 64.253906 C 302.253906 66.078125 304.269531 67.957031 306.234375 69.878906 C 308.203125 71.804688 310.121094 73.777344 311.992188 75.792969 C 313.863281 77.8125 315.6875 79.875 317.457031 81.980469 C 319.230469 84.085938 320.949219 86.234375 322.613281 88.425781 C 324.28125 90.613281 325.894531 92.84375 327.453125 95.109375 C 329.011719 97.378906 330.515625 99.683594 331.960938 102.023438 C 333.40625 104.367188 334.796875 106.742188 336.128906 109.148438 C 337.457031 111.558594 338.730469 113.996094 339.941406 116.46875 C 341.15625 118.9375 342.308594 121.4375 343.398438 123.964844 C 344.492188 126.492188 345.519531 129.042969 346.488281 131.617188 C 347.453125 134.195312 348.359375 136.792969 349.199219 139.414062 C 350.039062 142.035156 350.816406 144.671875 351.53125 147.332031 C 351.792969 148.3125 352.050781 149.3125 352.300781 150.332031 L 349.707031 151.238281 C 349.441406 150.171875 349.167969 149.105469 348.882812 148.039062 C 348.175781 145.402344 347.40625 142.785156 346.574219 140.191406 C 345.738281 137.59375 344.839844 135.019531 343.882812 132.464844 C 342.921875 129.910156 341.898438 127.382812 340.816406 124.878906 C 339.730469 122.378906 338.589844 119.902344 337.382812 117.453125 C 336.179688 115.007812 334.914062 112.59375 333.589844 110.207031 C 332.265625 107.820312 330.886719 105.46875 329.449219 103.152344 C 328.011719 100.835938 326.515625 98.554688 324.964844 96.308594 C 323.414062 94.066406 321.8125 91.859375 320.152344 89.695312 C 318.496094 87.527344 316.785156 85.40625 315.023438 83.324219 C 313.261719 81.238281 311.449219 79.203125 309.585938 77.210938 C 307.726562 75.214844 305.816406 73.269531 303.859375 71.367188 C 301.902344 69.46875 299.898438 67.617188 297.851562 65.816406 C 295.804688 64.015625 293.714844 62.265625 291.578125 60.5625 C 289.445312 58.863281 287.273438 57.21875 285.058594 55.625 C 282.84375 54.03125 280.59375 52.496094 278.304688 51.011719 C 276.011719 49.527344 273.6875 48.101562 271.332031 46.734375 C 268.972656 45.367188 266.578125 44.054688 264.15625 42.804688 C 261.734375 41.550781 259.28125 40.359375 256.796875 39.226562 C 254.316406 38.09375 251.808594 37.023438 249.273438 36.015625 C 246.742188 35.007812 244.183594 34.0625 241.601562 33.175781 C 239.023438 32.292969 236.421875 31.472656 233.800781 30.714844 C 231.179688 29.960938 228.542969 29.269531 225.886719 28.640625 C 223.234375 28.015625 220.566406 27.453125 217.882812 26.957031 C 215.203125 26.457031 212.507812 26.027344 209.804688 25.664062 C 207.101562 25.296875 204.390625 25 201.675781 24.765625 C 198.957031 24.535156 196.234375 24.371094 193.507812 24.269531 C 190.78125 24.171875 188.054688 24.140625 185.328125 24.175781 C 182.601562 24.210938 179.875 24.3125 177.152344 24.480469 C 174.429688 24.648438 171.714844 24.882812 169.003906 25.183594 C 166.292969 25.484375 163.589844 25.851562 160.898438 26.285156 C 158.203125 26.71875 155.523438 27.21875 152.855469 27.78125 C 150.1875 28.347656 147.535156 28.976562 144.894531 29.671875 C 145.308594 28.632812 145.707031 27.597656 146.074219 26.539062 Z M 25.332031 231.9375 C 25.550781 232.8125 25.773438 233.679688 26.007812 234.554688 C 26.714844 237.195312 27.488281 239.816406 28.324219 242.421875 C 29.160156 245.023438 30.058594 247.605469 31.023438 250.164062 C 31.988281 252.722656 33.011719 255.257812 34.101562 257.765625 C 35.1875 260.277344 36.335938 262.757812 37.546875 265.210938 C 38.753906 267.664062 40.023438 270.082031 41.351562 272.472656 C 42.679688 274.863281 44.066406 277.21875 45.507812 279.542969 C 46.953125 281.863281 48.453125 284.152344 50.007812 286.398438 C 51.566406 288.648438 53.175781 290.855469 54.839844 293.027344 C 56.503906 295.195312 58.222656 297.324219 59.988281 299.410156 C 61.757812 301.496094 63.578125 303.535156 65.445312 305.53125 C 67.316406 307.527344 69.234375 309.476562 71.195312 311.378906 C 73.160156 313.28125 75.171875 315.132812 77.226562 316.9375 C 79.28125 318.738281 81.382812 320.492188 83.523438 322.191406 C 85.664062 323.890625 87.847656 325.539062 90.070312 327.132812 C 92.292969 328.726562 94.550781 330.261719 96.851562 331.746094 C 99.148438 333.226562 101.480469 334.652344 103.847656 336.019531 C 106.214844 337.386719 108.617188 338.699219 111.046875 339.949219 C 113.480469 341.199219 115.941406 342.386719 118.433594 343.515625 C 120.921875 344.644531 123.4375 345.710938 125.980469 346.71875 C 128.523438 347.722656 131.089844 348.667969 133.679688 349.546875 C 136.269531 350.425781 138.878906 351.242188 141.507812 351.992188 C 144.136719 352.746094 146.78125 353.433594 149.445312 354.054688 C 152.109375 354.675781 154.785156 355.230469 157.476562 355.722656 C 160.164062 356.214844 162.867188 356.636719 165.578125 356.996094 C 168.289062 357.351562 171.003906 357.644531 173.730469 357.867188 C 176.457031 358.09375 179.183594 358.25 181.917969 358.339844 C 184.652344 358.433594 187.386719 358.457031 190.121094 358.410156 C 192.851562 358.367188 195.585938 358.257812 198.3125 358.078125 C 201.042969 357.902344 203.765625 357.65625 206.480469 357.347656 C 209.199219 357.035156 211.90625 356.65625 214.605469 356.214844 C 217.300781 355.769531 219.988281 355.257812 222.660156 354.683594 C 225.335938 354.105469 227.992188 353.464844 230.632812 352.757812 C 230.207031 353.796875 229.792969 354.839844 229.414062 355.898438 C 226.738281 356.582031 224.050781 357.195312 221.347656 357.746094 C 218.644531 358.296875 215.929688 358.78125 213.203125 359.195312 C 210.476562 359.613281 207.742188 359.964844 205 360.25 C 202.253906 360.535156 199.507812 360.753906 196.75 360.902344 C 193.996094 361.054688 191.242188 361.136719 188.484375 361.152344 C 185.722656 361.171875 182.96875 361.121094 180.210938 361 C 177.457031 360.882812 174.703125 360.699219 171.957031 360.445312 C 169.210938 360.195312 166.472656 359.875 163.738281 359.492188 C 161.007812 359.105469 158.289062 358.652344 155.578125 358.136719 C 152.871094 357.617188 150.175781 357.035156 147.492188 356.386719 C 144.8125 355.738281 142.148438 355.023438 139.503906 354.246094 C 136.855469 353.464844 134.230469 352.625 131.625 351.714844 C 129.019531 350.808594 126.4375 349.839844 123.882812 348.808594 C 121.324219 347.777344 118.792969 346.683594 116.289062 345.527344 C 113.78125 344.371094 111.308594 343.15625 108.863281 341.878906 C 106.417969 340.601562 104.003906 339.265625 101.625 337.875 C 99.242188 336.480469 96.898438 335.027344 94.589844 333.519531 C 92.277344 332.011719 90.007812 330.449219 87.773438 328.832031 C 85.539062 327.214844 83.347656 325.542969 81.195312 323.816406 C 79.042969 322.089844 76.933594 320.3125 74.867188 318.484375 C 72.800781 316.65625 70.78125 314.78125 68.808594 312.855469 C 66.835938 310.929688 64.90625 308.953125 63.03125 306.933594 C 61.152344 304.914062 59.324219 302.847656 57.546875 300.742188 C 55.769531 298.632812 54.042969 296.480469 52.371094 294.285156 C 50.699219 292.09375 49.078125 289.859375 47.515625 287.589844 C 45.949219 285.316406 44.441406 283.007812 42.992188 280.664062 C 41.539062 278.316406 40.144531 275.9375 38.808594 273.523438 C 37.476562 271.109375 36.199219 268.667969 34.980469 266.191406 C 33.765625 263.714844 32.609375 261.210938 31.515625 258.679688 C 30.417969 256.148438 29.386719 253.589844 28.417969 251.007812 C 27.445312 248.425781 26.539062 245.824219 25.695312 243.195312 C 24.851562 240.570312 24.074219 237.925781 23.359375 235.261719 C 23.144531 234.457031 22.941406 233.648438 22.734375 232.847656 Z M 25.332031 231.9375 " fill-opacity="1" fill-rule="evenodd"/></g><g fill="#ffffff" fill-opacity="1"><g transform="translate(1.913638, 199.124987)"><g><path d="M 24.03125 -27.484375 C 20.882812 -29.222656 18.144531 -30.09375 15.8125 -30.09375 C 14.226562 -30.09375 13 -29.78125 12.125 -29.15625 C 11.257812 -28.53125 10.828125 -27.59375 10.828125 -26.34375 C 10.828125 -25.195312 11.457031 -24.1875 12.71875 -23.3125 C 13.988281 -22.445312 15.675781 -21.617188 17.78125 -20.828125 C 19.488281 -20.203125 20.945312 -19.488281 22.15625 -18.6875 C 23.375 -17.882812 24.382812 -16.773438 25.1875 -15.359375 C 25.988281 -13.953125 26.390625 -12.164062 26.390625 -10 C 26.390625 -8.125 25.90625 -6.390625 24.9375 -4.796875 C 23.976562 -3.203125 22.5625 -1.9375 20.6875 -1 C 18.8125 -0.0703125 16.578125 0.390625 13.984375 0.390625 C 11.816406 0.390625 9.664062 0.0703125 7.53125 -0.5625 C 5.394531 -1.207031 3.410156 -2.1875 1.578125 -3.5 L 4.734375 -9.0625 C 5.972656 -8.144531 7.394531 -7.390625 9 -6.796875 C 10.613281 -6.203125 12.0625 -5.90625 13.34375 -5.90625 C 14.851562 -5.90625 16.164062 -6.222656 17.28125 -6.859375 C 18.40625 -7.503906 18.96875 -8.550781 18.96875 -10 C 18.96875 -11.875 17.207031 -13.5 13.6875 -14.875 C 11.625 -15.695312 9.898438 -16.484375 8.515625 -17.234375 C 7.140625 -17.992188 5.953125 -19.078125 4.953125 -20.484375 C 3.953125 -21.898438 3.453125 -23.675781 3.453125 -25.8125 C 3.453125 -28.925781 4.476562 -31.4375 6.53125 -33.34375 C 8.582031 -35.25 11.3125 -36.28125 14.71875 -36.4375 C 17.414062 -36.4375 19.664062 -36.132812 21.46875 -35.53125 C 23.28125 -34.925781 25.039062 -34.066406 26.75 -32.953125 Z M 24.03125 -27.484375 "/></g></g></g><g fill="#ffffff" fill-opacity="1"><g transform="translate(70.019358, 199.124987)"><g><path d="M 22.609375 -7.09375 L 10.59375 -7.09375 L 7.640625 0 L 0.59375 0 L 16.9375 -37.671875 L 17.34375 -37.671875 L 33.6875 0 L 25.40625 0 Z M 20.234375 -13.09375 L 16.75 -21.921875 L 13.09375 -13.09375 Z M 20.234375 -13.09375 "/></g></g></g><g fill="#ffffff" fill-opacity="1"><g transform="translate(143.689435, 199.124987)"><g><path d="M 11.8125 -36.25 L 11.8125 -6.890625 L 28.859375 -6.890625 L 28.859375 0 L 4.671875 0 L 4.671875 -36.25 Z M 11.8125 -36.25 "/></g></g></g><g fill="#ffffff" fill-opacity="1"><g transform="translate(214.651188, 199.124987)"><g><path d="M 11.8125 -36.25 L 11.8125 0 L 4.671875 0 L 4.671875 -36.25 Z M 11.8125 -36.25 "/></g></g></g><g fill="#ffffff" fill-opacity="1"><g transform="translate(270.544861, 199.124987)"><g><path d="M 26.640625 -36.25 L 26.640625 -29.359375 L 17.828125 -29.359375 L 17.828125 0 L 10.6875 0 L 10.6875 -29.359375 L 2.21875 -29.359375 L 2.21875 -36.25 Z M 26.640625 -36.25 "/></g></g></g><g fill="#ffffff" fill-opacity="1"><g transform="translate(338.79829, 199.124987)"><g><path d="M 22.609375 -7.09375 L 10.59375 -7.09375 L 7.640625 0 L 0.59375 0 L 16.9375 -37.671875 L 17.34375 -37.671875 L 33.6875 0 L 25.40625 0 Z M 20.234375 -13.09375 L 16.75 -21.921875 L 13.09375 -13.09375 Z M 20.234375 -13.09375 "/></g></g></g></svg>