<svg xmlns="http://www.w3.org/2000/svg" xmlns:xlink="http://www.w3.org/1999/xlink" width="500" zoomAndPan="magnify" viewBox="0 0 375 374.999991" height="500" preserveAspectRatio="xMidYMid meet" version="1.0"><defs><g/></defs><g fill="#000000" fill-opacity="1"><g transform="translate(5.074223, 221.249985)"><g><path d="M 33.078125 0.9375 C 29.785156 0.9375 26.5625 0.65625 23.40625 0.09375 C 20.257812 -0.457031 17.335938 -1.257812 14.640625 -2.3125 C 11.953125 -3.363281 9.519531 -4.691406 7.34375 -6.296875 C 6.507812 -6.929688 5.929688 -7.648438 5.609375 -8.453125 C 5.296875 -9.253906 5.226562 -10.054688 5.40625 -10.859375 C 5.582031 -11.671875 5.929688 -12.351562 6.453125 -12.90625 C 6.984375 -13.46875 7.632812 -13.785156 8.40625 -13.859375 C 9.175781 -13.929688 10.015625 -13.6875 10.921875 -13.125 C 14.066406 -10.882812 17.425781 -9.253906 21 -8.234375 C 24.570312 -7.222656 28.597656 -6.71875 33.078125 -6.71875 C 39.378906 -6.71875 44.050781 -7.890625 47.09375 -10.234375 C 50.132812 -12.578125 51.65625 -15.675781 51.65625 -19.53125 C 51.65625 -22.675781 50.550781 -25.140625 48.34375 -26.921875 C 46.144531 -28.710938 42.457031 -30.132812 37.28125 -31.1875 L 26.359375 -33.390625 C 19.773438 -34.785156 14.851562 -37.078125 11.59375 -40.265625 C 8.34375 -43.453125 6.71875 -47.707031 6.71875 -53.03125 C 6.71875 -56.3125 7.378906 -59.300781 8.703125 -62 C 10.035156 -64.695312 11.890625 -67.003906 14.265625 -68.921875 C 16.648438 -70.847656 19.488281 -72.335938 22.78125 -73.390625 C 26.070312 -74.441406 29.710938 -74.96875 33.703125 -74.96875 C 38.109375 -74.96875 42.21875 -74.351562 46.03125 -73.125 C 49.851562 -71.90625 53.304688 -70.070312 56.390625 -67.625 C 57.160156 -66.988281 57.679688 -66.269531 57.953125 -65.46875 C 58.234375 -64.664062 58.269531 -63.894531 58.0625 -63.15625 C 57.851562 -62.425781 57.484375 -61.8125 56.953125 -61.3125 C 56.429688 -60.820312 55.769531 -60.539062 54.96875 -60.46875 C 54.164062 -60.40625 53.273438 -60.6875 52.296875 -61.3125 C 49.492188 -63.414062 46.585938 -64.941406 43.578125 -65.890625 C 40.566406 -66.835938 37.238281 -67.3125 33.59375 -67.3125 C 29.882812 -67.3125 26.679688 -66.75 23.984375 -65.625 C 21.296875 -64.5 19.195312 -62.867188 17.6875 -60.734375 C 16.1875 -58.609375 15.4375 -56.144531 15.4375 -53.34375 C 15.4375 -49.976562 16.46875 -47.316406 18.53125 -45.359375 C 20.59375 -43.398438 23.972656 -41.96875 28.671875 -41.0625 L 39.578125 -38.75 C 46.648438 -37.28125 51.882812 -35.054688 55.28125 -32.078125 C 58.675781 -29.097656 60.375 -25.054688 60.375 -19.953125 C 60.375 -16.867188 59.742188 -14.03125 58.484375 -11.4375 C 57.222656 -8.851562 55.398438 -6.632812 53.015625 -4.78125 C 50.640625 -2.925781 47.769531 -1.507812 44.40625 -0.53125 C 41.050781 0.445312 37.273438 0.9375 33.078125 0.9375 Z M 33.078125 0.9375 "/></g></g></g><g fill="#000000" fill-opacity="1"><g transform="translate(69.642013, 221.249985)"><g><path d="M 7.5625 0.734375 C 6.4375 0.734375 5.539062 0.472656 4.875 -0.046875 C 4.21875 -0.578125 3.832031 -1.28125 3.71875 -2.15625 C 3.613281 -3.03125 3.8125 -4.023438 4.3125 -5.140625 L 33.1875 -70.875 C 33.8125 -72.269531 34.5625 -73.265625 35.4375 -73.859375 C 36.3125 -74.460938 37.273438 -74.765625 38.328125 -74.765625 C 39.378906 -74.765625 40.34375 -74.460938 41.21875 -73.859375 C 42.09375 -73.265625 42.804688 -72.269531 43.359375 -70.875 L 72.34375 -5.140625 C 72.90625 -4.023438 73.132812 -3.007812 73.03125 -2.09375 C 72.925781 -1.1875 72.554688 -0.488281 71.921875 0 C 71.296875 0.488281 70.421875 0.734375 69.296875 0.734375 C 68.035156 0.734375 67.019531 0.398438 66.25 -0.265625 C 65.476562 -0.929688 64.847656 -1.894531 64.359375 -3.15625 L 56.59375 -21.109375 L 60.796875 -18.90625 L 15.640625 -18.90625 L 19.953125 -21.109375 L 12.28125 -3.15625 C 11.65625 -1.820312 10.988281 -0.835938 10.28125 -0.203125 C 9.582031 0.421875 8.675781 0.734375 7.5625 0.734375 Z M 38.21875 -63.9375 L 21.3125 -24.15625 L 18.796875 -26.140625 L 57.640625 -26.140625 L 55.328125 -24.15625 L 38.4375 -63.9375 Z M 38.21875 -63.9375 "/></g></g></g><g fill="#000000" fill-opacity="1"><g transform="translate(146.178458, 221.249985)"><g><path d="M 13.546875 0 C 12.140625 0 11.050781 -0.398438 10.28125 -1.203125 C 9.519531 -2.015625 9.140625 -3.117188 9.140625 -4.515625 L 9.140625 -70.03125 C 9.140625 -71.5 9.503906 -72.617188 10.234375 -73.390625 C 10.972656 -74.160156 12.039062 -74.546875 13.4375 -74.546875 C 14.84375 -74.546875 15.910156 -74.160156 16.640625 -73.390625 C 17.378906 -72.617188 17.75 -71.5 17.75 -70.03125 L 17.75 -7.5625 L 52.1875 -7.5625 C 53.445312 -7.5625 54.425781 -7.226562 55.125 -6.5625 C 55.820312 -5.894531 56.171875 -4.96875 56.171875 -3.78125 C 56.171875 -2.59375 55.820312 -1.664062 55.125 -1 C 54.425781 -0.332031 53.445312 0 52.1875 0 Z M 13.546875 0 "/></g></g></g><g fill="#000000" fill-opacity="1"><g transform="translate(203.187094, 221.249985)"><g><path d="M 13.4375 0.734375 C 12.039062 0.734375 10.972656 0.332031 10.234375 -0.46875 C 9.503906 -1.28125 9.140625 -2.382812 9.140625 -3.78125 L 9.140625 -70.25 C 9.140625 -71.71875 9.503906 -72.835938 10.234375 -73.609375 C 10.972656 -74.378906 12.039062 -74.765625 13.4375 -74.765625 C 14.84375 -74.765625 15.910156 -74.378906 16.640625 -73.609375 C 17.378906 -72.835938 17.75 -71.71875 17.75 -70.25 L 17.75 -3.78125 C 17.75 -2.382812 17.394531 -1.28125 16.6875 -0.46875 C 15.988281 0.332031 14.90625 0.734375 13.4375 0.734375 Z M 13.4375 0.734375 "/></g></g></g><g fill="#000000" fill-opacity="1"><g transform="translate(230.169079, 221.249985)"><g><path d="M 31.609375 0.734375 C 30.273438 0.734375 29.222656 0.332031 28.453125 -0.46875 C 27.679688 -1.28125 27.296875 -2.382812 27.296875 -3.78125 L 27.296875 -66.5625 L 3.671875 -66.5625 C 2.410156 -66.5625 1.429688 -66.910156 0.734375 -67.609375 C 0.0351562 -68.316406 -0.3125 -69.226562 -0.3125 -70.34375 C -0.3125 -71.539062 0.0351562 -72.453125 0.734375 -73.078125 C 1.429688 -73.710938 2.410156 -74.03125 3.671875 -74.03125 L 59.640625 -74.03125 C 60.898438 -74.03125 61.878906 -73.710938 62.578125 -73.078125 C 63.273438 -72.453125 63.625 -71.539062 63.625 -70.34375 C 63.625 -69.15625 63.273438 -68.226562 62.578125 -67.5625 C 61.878906 -66.894531 60.898438 -66.5625 59.640625 -66.5625 L 36.015625 -66.5625 L 36.015625 -3.78125 C 36.015625 -2.382812 35.644531 -1.28125 34.90625 -0.46875 C 34.175781 0.332031 33.078125 0.734375 31.609375 0.734375 Z M 31.609375 0.734375 "/></g></g></g><g fill="#000000" fill-opacity="1"><g transform="translate(293.372024, 221.249985)"><g><path d="M 7.5625 0.734375 C 6.4375 0.734375 5.539062 0.472656 4.875 -0.046875 C 4.21875 -0.578125 3.832031 -1.28125 3.71875 -2.15625 C 3.613281 -3.03125 3.8125 -4.023438 4.3125 -5.140625 L 33.1875 -70.875 C 33.8125 -72.269531 34.5625 -73.265625 35.4375 -73.859375 C 36.3125 -74.460938 37.273438 -74.765625 38.328125 -74.765625 C 39.378906 -74.765625 40.34375 -74.460938 41.21875 -73.859375 C 42.09375 -73.265625 42.804688 -72.269531 43.359375 -70.875 L 72.34375 -5.140625 C 72.90625 -4.023438 73.132812 -3.007812 73.03125 -2.09375 C 72.925781 -1.1875 72.554688 -0.488281 71.921875 0 C 71.296875 0.488281 70.421875 0.734375 69.296875 0.734375 C 68.035156 0.734375 67.019531 0.398438 66.25 -0.265625 C 65.476562 -0.929688 64.847656 -1.894531 64.359375 -3.15625 L 56.59375 -21.109375 L 60.796875 -18.90625 L 15.640625 -18.90625 L 19.953125 -21.109375 L 12.28125 -3.15625 C 11.65625 -1.820312 10.988281 -0.835938 10.28125 -0.203125 C 9.582031 0.421875 8.675781 0.734375 7.5625 0.734375 Z M 38.21875 -63.9375 L 21.3125 -24.15625 L 18.796875 -26.140625 L 57.640625 -26.140625 L 55.328125 -24.15625 L 38.4375 -63.9375 Z M 38.21875 -63.9375 "/></g></g></g></svg>