<?xml version="1.0" encoding="UTF-8"?>
<svg version="1.1" xmlns="http://www.w3.org/2000/svg" width="512" height="512">
<path d="M0 0 C1.3365287 -0.01469078 1.3365287 -0.01469078 2.70005798 -0.02967834 C31.02930163 -0.27680589 57.17994109 2.00410905 84.4453125 10.23828125 C85.69803955 10.61460693 85.69803955 10.61460693 86.97607422 10.99853516 C119.59093302 21.04331738 149.52840834 39.02739936 174.4453125 62.23828125 C175.83675916 63.45166344 177.23239889 64.66025928 178.6328125 65.86328125 C185.1320759 71.55663599 190.73301067 77.63695018 196.140625 84.3828125 C197.58642725 86.17413698 199.05707409 87.94598331 200.5625 89.6875 C232.20807149 126.6073334 252.23933452 179.11780235 252.68359375 227.79296875 C252.6933876 228.68398788 252.70318146 229.57500702 252.71327209 230.49302673 C253.23397222 290.18301748 237.46998542 346.91861502 198.4453125 393.23828125 C198.00074707 393.77163086 197.55618164 394.30498047 197.09814453 394.85449219 C188.22536736 405.48522354 179.07675597 415.36819695 168.21484375 424.02734375 C166.40012249 425.47604929 164.60476024 426.94942113 162.83203125 428.44921875 C121.52207816 463.33317913 66.69507132 480.72710773 13.1328125 480.61328125 C12.16687164 480.61273743 11.20093079 480.6121936 10.20571899 480.6116333 C-5.69146444 480.57060916 -20.9742443 479.64585488 -36.5546875 476.23828125 C-37.54082031 476.02397461 -38.52695313 475.80966797 -39.54296875 475.58886719 C-80.68601851 466.32763679 -118.66455293 447.01341561 -149.5546875 418.23828125 C-150.94613416 417.02489906 -152.34177389 415.81630322 -153.7421875 414.61328125 C-160.23579506 408.92488103 -165.82997583 402.84849748 -171.23828125 396.11328125 C-172.72964128 394.26228465 -174.24130496 392.42737276 -175.77734375 390.61328125 C-186.48593264 377.92162035 -194.84788293 363.9027082 -202.5546875 349.23828125 C-202.90241211 348.58762695 -203.25013672 347.93697266 -203.60839844 347.26660156 C-214.77726192 326.11658788 -221.86063665 301.78641992 -225.5546875 278.23828125 C-225.73725098 277.08271729 -225.91981445 275.92715332 -226.10791016 274.73657227 C-227.70824137 263.46656388 -227.95385383 252.29750635 -227.9296875 240.92578125 C-227.92914368 239.95984039 -227.92859985 238.99389954 -227.92803955 237.99868774 C-227.88701541 222.10150431 -226.96226113 206.81872445 -223.5546875 191.23828125 C-223.34038086 190.25214844 -223.12607422 189.26601562 -222.90527344 188.25 C-213.64404304 147.10695024 -194.32982186 109.12841582 -165.5546875 78.23828125 C-164.34130531 76.84683459 -163.13270947 75.45119486 -161.9296875 74.05078125 C-123.16385022 29.67058133 -58.73818865 0.53610464 0 0 Z M-2.85858154 120.89785767 C-3.61213928 121.66624969 -4.36569702 122.43464172 -5.14208984 123.22631836 C-6.36797318 124.44628761 -6.36797318 124.44628761 -7.61862183 125.69090271 C-10.30491231 128.37050428 -12.97288073 131.06756886 -15.640625 133.765625 C-17.50675135 135.63600312 -19.37384136 137.50542022 -21.24185181 139.37391663 C-25.14872967 143.28541171 -29.04600679 147.2062628 -32.93701172 151.13354492 C-37.43236812 155.67070157 -41.93975501 160.19560792 -46.4544071 164.71356004 C-50.80571138 169.06811855 -55.15105015 173.42856527 -59.49315262 177.79229927 C-61.33811385 179.64614659 -63.18415699 181.49891783 -65.03129196 183.35059929 C-67.6072638 185.93559776 -70.17644264 188.52715285 -72.74365234 191.12084961 C-73.50935547 191.88721741 -74.27505859 192.65358521 -75.06396484 193.44317627 C-75.76194183 194.15112839 -76.45991882 194.85908051 -77.17904663 195.58848572 C-77.78625738 196.20034698 -78.39346813 196.81220823 -79.01907921 197.44261074 C-82.63358847 201.66925352 -82.99453767 205.35714915 -82.8671875 210.76953125 C-82.21979149 215.88395972 -79.52397027 218.47522886 -75.6171875 221.55078125 C-70.47949026 224.38175728 -65.87266688 224.35907001 -60.06640625 224.3359375 C-59.0116082 224.33381508 -59.0116082 224.33381508 -57.9355011 224.33164978 C-55.70435206 224.32608234 -53.47330586 224.313536 -51.2421875 224.30078125 C-49.72330875 224.29576204 -48.20442841 224.29119987 -46.68554688 224.28710938 C-42.97522738 224.27612361 -39.26496749 224.25888159 -35.5546875 224.23828125 C-35.55883557 225.09166407 -35.55883557 225.09166407 -35.56306744 225.96228695 C-35.62945466 239.83513617 -35.67883807 253.70795738 -35.71012402 267.58093166 C-35.7255624 274.28993387 -35.74659356 280.99882974 -35.78100586 287.70776367 C-35.8136596 294.18518766 -35.83155335 300.66250133 -35.83931923 307.1400013 C-35.84485189 309.60827432 -35.85565581 312.07654147 -35.87187767 314.54476738 C-35.89373137 318.00841075 -35.89665103 321.47160124 -35.89526367 324.93530273 C-35.9060495 325.95022797 -35.91683533 326.9651532 -35.927948 328.01083374 C-35.89984427 334.517206 -35.52181162 341.54189564 -31.27965069 346.82669735 C-23.94604416 353.53442442 -14.45977637 352.54980515 -5.1875 352.5390625 C-3.78416824 352.54295656 -2.38083765 352.54729268 -0.97750854 352.55204773 C1.95595123 352.55948347 4.88929059 352.55923821 7.82275391 352.55395508 C11.56040342 352.54816704 15.29755631 352.56508776 19.03512383 352.58829975 C21.93155747 352.60311568 24.8278737 352.60389814 27.72433853 352.60079002 C29.10128893 352.6012994 30.47824658 352.60646418 31.85515976 352.61660194 C44.12971273 352.92112199 44.12971273 352.92112199 55.02072144 347.96333313 C61.0493533 341.4347353 60.73089908 333.4830449 60.67236328 325.16235352 C60.67265533 324.06893143 60.67294739 322.97550934 60.67324829 321.84895325 C60.67185989 318.2507827 60.65632152 314.65282168 60.640625 311.0546875 C60.63689314 308.55362562 60.63404698 306.05256228 60.63204956 303.55149841 C60.62520505 297.65139531 60.60945742 291.75136902 60.58935058 285.85129732 C60.56474707 278.47053965 60.55404873 271.08977259 60.54296875 263.70898438 C60.52154276 250.55204548 60.48780956 237.3951681 60.4453125 224.23828125 C61.82867798 224.26184692 61.82867798 224.26184692 63.23999023 224.28588867 C66.70098631 224.33738318 70.1615682 224.37480735 73.62280273 224.40307617 C75.11342848 224.41805167 76.60401101 224.43843944 78.09448242 224.46459961 C91.41938521 225.17612323 91.41938521 225.17612323 103.04858398 219.78564453 C106.30921307 216.02745747 107.61716195 213.37403717 107.7578125 208.48828125 C107.79519531 207.6478125 107.83257812 206.80734375 107.87109375 205.94140625 C106.77211969 198.96443331 100.35610466 193.84695823 95.59082031 189.07739258 C94.40953049 187.88361748 94.40953049 187.88361748 93.20437622 186.66572571 C90.60782092 184.04513847 88.00372768 181.43221429 85.3984375 178.8203125 C83.58478399 176.9976894 81.77120682 175.17499032 79.95770264 173.35221863 C76.15846094 169.53650421 72.35488169 165.72517751 68.54882812 161.91625977 C64.15964789 157.52344267 59.78378315 153.11765919 55.41376233 148.70578939 C51.19591837 144.44898747 46.96430765 140.2061452 42.72750092 135.96820641 C40.93249171 134.1689949 39.14159842 132.36566719 37.35495758 130.55814552 C34.8541287 128.03042095 32.33793116 125.51902698 29.81738281 123.01098633 C28.71981155 121.89116364 28.71981155 121.89116364 27.60006714 120.74871826 C17.11586823 110.41176806 7.57174908 110.60997856 -2.85858154 120.89785767 Z " fill="#3767C0" transform="translate(243.5546875,15.76171875)"/>
</svg>
