<?xml version="1.0" encoding="UTF-8"?>
<svg version="1.1" xmlns="http://www.w3.org/2000/svg" width="48" height="48">
<path d="M0 0 C1.67163195 0.65411685 3.34015202 1.31653318 5 2 C5.99 1.34 6.98 0.68 8 0 C11.76904461 -0.6820176 15.45628171 -0.83098707 18.88671875 1.015625 C21.5498242 3.15642648 22.91352869 4.74058608 24 8 C24.58855022 14.00321226 23.42246518 18.13952424 20 23 C15.55065597 27.66167716 10.29283402 31.36117661 5 35 C-3.17246612 31.21182159 -10.41673116 25.79155703 -15 18 C-16.24300105 14.27099684 -16.6711674 10.86650786 -16 7 C-12.00360768 0.05104918 -7.42655619 -0.57919416 0 0 Z " fill="#E10507" transform="translate(20,8)"/>
<path d="M0 0 C0.33 0 0.66 0 1 0 C1.06316406 0.556875 1.12632813 1.11375 1.19140625 1.6875 C2.4351102 9.43773933 6.06916687 13.79875332 12.0625 18.6796875 C15.9338977 21.4385269 15.9338977 21.4385269 20.5 21.6875 C30.9225428 14.94797856 30.9225428 14.94797856 36.25 4.1875 C36.513662 2.79418272 36.7683578 1.39899699 37 0 C37.33 0 37.66 0 38 0 C39.14467859 3.81559528 39.16306706 6.35195021 37.5625 9.9375 C33.63542262 17.03332258 26.54226616 21.50219201 20 26 C11.95864712 22.27259643 4.28242325 16.8511093 0 9 C-1.41573034 2.83146067 -1.41573034 2.83146067 0 0 Z " fill="#B11020" transform="translate(5,17)"/>
<path d="M0 0 C0.33 0 0.66 0 1 0 C1.06316406 0.556875 1.12632813 1.11375 1.19140625 1.6875 C2.28494954 8.50200134 5.14630186 12.22643367 10 17 C10.66 17.66 11.32 18.32 12 19 C9.21282111 18.91802415 7.48247233 18.43764605 5.40234375 16.55078125 C2.55702047 13.32794579 -0.0166552 10.26116081 -1 6 C-0.625 2.6875 -0.625 2.6875 0 0 Z " fill="#BD1626" transform="translate(5,17)"/>
<path d="M0 0 C4.38889325 0.66498383 7.9811485 2.18757677 12 4 C11.01 5.485 11.01 5.485 10 7 C6.42032008 5.34784004 3.22017048 3.26875648 0 1 C0 0.67 0 0.34 0 0 Z " fill="#96030E" transform="translate(15,36)"/>
</svg>
