<?xml version="1.0" encoding="UTF-8"?>
<svg version="1.1" xmlns="http://www.w3.org/2000/svg" width="100" height="100">
<path d="M0 0 C11.29866337 7.67841981 19.39230629 17.72553723 23 31 C24.55924255 46.25048637 22.61798954 58.23411359 13.140625 70.5546875 C6.77279254 77.82889027 -3.38646935 84.22157624 -13.17773438 85.22265625 C-27.67355051 85.90787005 -38.62433065 84.58878323 -50 75 C-51.010625 74.2575 -52.02125 73.515 -53.0625 72.75 C-60.59898025 66.30189428 -66.18044176 56.64028989 -67.23925781 46.76953125 C-68.2891804 32.01196014 -66.20270651 19.72681126 -56.2265625 8.21875 C-41.57763456 -6.37877819 -18.29677305 -10.60325123 0 0 Z " fill="#F2665C" transform="translate(73,11)"/>
<path d="M0 0 C11.29866337 7.67841981 19.39230629 17.72553723 23 31 C24.55924255 46.25048637 22.61798954 58.23411359 13.140625 70.5546875 C6.77279254 77.82889027 -3.38646935 84.22157624 -13.17773438 85.22265625 C-27.67355051 85.90787005 -38.62433065 84.58878323 -50 75 C-51.010625 74.2575 -52.02125 73.515 -53.0625 72.75 C-60.59898025 66.30189428 -66.18044176 56.64028989 -67.23925781 46.76953125 C-68.2891804 32.01196014 -66.20270651 19.72681126 -56.2265625 8.21875 C-41.57763456 -6.37877819 -18.29677305 -10.60325123 0 0 Z M-29.45703125 0.28515625 C-38.83135534 1.76834424 -47.73358917 6.45784867 -53.59375 14.0703125 C-58.19853987 20.72919982 -61.29337652 26.80316765 -62 35 C-62.06445312 35.65484375 -62.12890625 36.3096875 -62.1953125 36.984375 C-62.74661506 47.05483501 -59.08559946 56.81809299 -53.0546875 64.77734375 C-45.90564091 72.5108181 -36.54652255 77.38947231 -26.0546875 78.23828125 C-15.69800549 78.48002198 -7.33536852 76.35075697 1 70 C1.825 69.443125 2.65 68.88625 3.5 68.3125 C10.65889508 61.69052205 15.30741345 52.45117138 16.34765625 42.76171875 C16.63703989 32.05452424 14.18885448 23.68782411 8 15 C7.13375 13.700625 7.13375 13.700625 6.25 12.375 C-1.19258095 4.51894233 -11.84542479 -0.06796778 -22.6875 -0.375 C-24.96043029 -0.24618677 -27.19572587 0.0227154 -29.45703125 0.28515625 Z " fill="#E8E8E9" transform="translate(73,11)"/>
<path d="M0 0 C3 1 3 1 4.38671875 3.43359375 C4.81597656 4.42488281 5.24523437 5.41617188 5.6875 6.4375 C6.34298828 7.92056641 6.34298828 7.92056641 7.01171875 9.43359375 C8 12 8 12 8 14 C8.66386719 13.98839844 9.32773437 13.97679687 10.01171875 13.96484375 C18.78207381 13.87521968 18.78207381 13.87521968 23 15 C22.62652943 17.7209999 22.22015007 18.80032901 20.15234375 20.67578125 C19.05599609 21.48595703 19.05599609 21.48595703 17.9375 22.3125 C14.51721096 25.11265148 14.51721096 25.11265148 13.4375 29.375 C13.623125 30.57125 13.80875 31.7675 14 33 C14.17111914 34.64537636 14.3376918 36.29123113 14.5 37.9375 C14.66282742 39.29213367 14.82812502 40.64648453 15 42 C11.26003782 41.64937855 9.01340861 40.41275449 6 38.3125 C2.98440773 36.23627756 2.98440773 36.23627756 -0.5625 36.4375 C-1.7690625 37.2109375 -1.7690625 37.2109375 -3 38 C-9.72659176 42 -9.72659176 42 -13 42 C-12.82339844 40.9378125 -12.64679687 39.875625 -12.46484375 38.78125 C-11.12599927 30.62577236 -11.12599927 30.62577236 -13.9375 23.26171875 C-16.38164618 21.16065036 -16.38164618 21.16065036 -18.99609375 19.48046875 C-19.65738281 18.99191406 -20.31867187 18.50335938 -21 18 C-21 17.01 -21 16.02 -21 15 C-17.68929162 13.99890485 -14.69915231 13.89643866 -11.25 13.9375 C-10.26515625 13.94652344 -9.2803125 13.95554687 -8.265625 13.96484375 C-7.14414062 13.98224609 -7.14414062 13.98224609 -6 14 C-5.81824219 13.40832031 -5.63648438 12.81664062 -5.44921875 12.20703125 C-4.04332943 7.787492 -2.62472819 3.87459875 0 0 Z " fill="#FEC270" transform="translate(49,28)"/>
<path d="M0 0 C9.16554234 -0.5166033 18.85634394 2.4577314 26.0234375 8.19140625 C26.8484375 8.74828125 27.6734375 9.30515625 28.5234375 9.87890625 C35.93625213 16.73575979 40.34684161 26.07748378 41.296875 36.06640625 C41.66978225 47.54047546 38.44690612 57.45279878 30.9609375 66.26171875 C23.24035836 73.95116652 13.34610206 78.33471261 2.4609375 78.62890625 C-8.96089817 78.20988033 -17.07967256 74.26547434 -25.6640625 66.87890625 C-33.1010292 58.23594495 -37.694207 49.09915887 -37.1953125 37.4375 C-36.15069792 26.71154675 -32.60606149 16.97329806 -24.265625 9.69921875 C-16.71857561 3.70334157 -9.56114204 0.92588134 0 0 Z M-26.37109375 16.1640625 C-33.31585413 24.93372342 -34.7410925 34.29337865 -33.9765625 45.19140625 C-32.09380471 54.67931953 -26.536019 63.21652813 -18.9765625 69.19140625 C-9.65130336 74.76065823 -1.83243973 76.04721515 9.0234375 75.19140625 C18.92910508 72.64234779 28.18652479 66.5040647 33.54296875 57.69140625 C38.12567892 48.81653237 39.86984309 39.19435387 37.26953125 29.33203125 C33.00302843 18.28931808 26.23130584 10.08658674 15.4296875 5.125 C12.23612337 3.88593859 9.44649778 3.37478448 6.0234375 3.19140625 C5.25257812 3.14113281 4.48171875 3.09085938 3.6875 3.0390625 C-8.25092932 2.57989214 -18.19206182 7.61070417 -26.37109375 16.1640625 Z " fill="#4E4273" transform="translate(47.9765625,10.80859375)"/>
<path d="M0 0 C6.36166842 6.80040417 7.54866696 14.87134438 7.4375 23.875 C7.42847656 24.75341553 7.41945313 25.63183105 7.41015625 26.53686523 C7.09196254 38.4790728 2.86233167 47.01857733 -5 56 C-13.92311342 64.33515633 -24.59353396 68.39653363 -36.6875 68.375 C-37.5736499 68.37411377 -38.4597998 68.37322754 -39.37280273 68.37231445 C-46.66999115 68.24068309 -54.17823024 67.51938798 -59.77734375 62.36328125 C-60.18082031 61.91339844 -60.58429687 61.46351562 -61 61 C-59.68 61 -58.36 61 -57 61 C-57 61.66 -57 62.32 -57 63 C-44.63949631 66.59578289 -30.70051753 66.72399419 -19 61 C-7.60812287 54.4533167 -1.7676739 46.23603394 3.125 34.2421875 C4.22969244 30.14890746 4.29931221 26.40633541 4.25 22.1875 C4.24613281 21.39230957 4.24226563 20.59711914 4.23828125 19.77783203 C4.15708245 14.27322978 3.57043298 9.3002113 2 4 C1.34 4 0.68 4 0 4 C0 2.68 0 1.36 0 0 Z " fill="#060606" transform="translate(89,28)"/>
</svg>
